<ttFont>
    <TTGlyph name="A" xMin="-70" yMin="0" xMax="588" yMax="706">
      <contour>
        <pt x="-64" y="0" on="1"/>
        <pt x="-70" y="22" on="1"/>
        <pt x="-56" y="31" on="0"/>
        <pt x="3" y="57" on="1"/>
        <pt x="339" y="691" on="1"/>
        <pt x="376" y="706" on="0"/>
        <pt x="403" y="706" on="1"/>
        <pt x="418" y="697" on="1"/>
        <pt x="509" y="56" on="1"/>
        <pt x="550" y="42" on="0"/>
        <pt x="588" y="22" on="1"/>
        <pt x="582" y="0" on="1"/>
        <pt x="359" y="0" on="1"/>
        <pt x="351" y="26" on="1"/>
        <pt x="393" y="43" on="0"/>
        <pt x="431" y="55" on="1"/>
        <pt x="406" y="229" on="1"/>
        <pt x="144" y="215" on="1"/>
        <pt x="61" y="56" on="1"/>
        <pt x="137" y="26" on="1"/>
        <pt x="129" y="0" on="1"/>
      </contour>
      <contour>
        <pt x="352" y="617" on="1"/>
        <pt x="174" y="273" on="1"/>
        <pt x="400" y="273" on="1"/>
      </contour>
    </TTGlyph>
    <TTGlyph name="AE" xMin="-70" yMin="-4" xMax="869" yMax="713">
      <contour>
        <pt x="286" y="678" on="1"/>
        <pt x="292" y="700" on="1"/>
        <pt x="413" y="696" on="1"/>
        <pt x="789" y="696" on="0"/>
        <pt x="863" y="713" on="1"/>
        <pt x="869" y="696" on="1"/>
        <pt x="860" y="669" on="0"/>
        <pt x="838" y="643" on="1"/>
        <pt x="683" y="643" on="0"/>
        <pt x="585" y="649" on="1"/>
        <pt x="537" y="353" on="1"/>
        <pt x="768" y="353" on="1"/>
        <pt x="759" y="310" on="1"/>
        <pt x="527" y="304" on="1"/>
        <pt x="473" y="55" on="1"/>
        <pt x="715" y="57" on="0"/>
        <pt x="783" y="72" on="1"/>
        <pt x="789" y="55" on="1"/>
        <pt x="780" y="22" on="0"/>
        <pt x="758" y="-4" on="1"/>
        <pt x="602" y="8" on="0"/>
        <pt x="433" y="8" on="1"/>
        <pt x="328" y="0" on="1"/>
        <pt x="320" y="26" on="1"/>
        <pt x="371" y="47" on="0"/>
        <pt x="405" y="57" on="1"/>
        <pt x="451" y="302" on="1"/>
        <pt x="221" y="296" on="1"/>
        <pt x="68" y="53" on="1"/>
        <pt x="137" y="26" on="1"/>
        <pt x="129" y="0" on="1"/>
        <pt x="-64" y="0" on="1"/>
        <pt x="-70" y="22" on="1"/>
        <pt x="-41" y="39" on="0"/>
        <pt x="10" y="59" on="1"/>
        <pt x="377" y="639" on="1"/>
        <pt x="327" y="654" on="0"/>
      </contour>
      <contour>
        <pt x="517" y="649" on="1"/>
        <pt x="444" y="649" on="1"/>
        <pt x="257" y="353" on="1"/>
        <pt x="461" y="353" on="1"/>
      </contour>
    </TTGlyph>
    <TTGlyph name="Aacute" xMin="-70" yMin="0" xMax="588" yMax="946">
      <component glyphName="A" x="0" y="0" flags="0x1004"/>
      <component glyphName="acute" x="299" y="244" flags="0x1004"/>
    </TTGlyph>
    <TTGlyph name="Acircumflex" xMin="-70" yMin="0" xMax="588" yMax="932">
      <contour>
        <pt x="-64" y="0" on="1"/>
        <pt x="-70" y="22" on="1"/>
        <pt x="-56" y="31" on="0"/>
        <pt x="3" y="57" on="1"/>
        <pt x="339" y="691" on="1"/>
        <pt x="376" y="706" on="0"/>
        <pt x="403" y="706" on="1"/>
        <pt x="418" y="697" on="1"/>
        <pt x="509" y="56" on="1"/>
        <pt x="550" y="42" on="0"/>
        <pt x="588" y="22" on="1"/>
        <pt x="582" y="0" on="1"/>
        <pt x="359" y="0" on="1"/>
        <pt x="351" y="26" on="1"/>
        <pt x="393" y="43" on="0"/>
        <pt x="431" y="55" on="1"/>
        <pt x="406" y="229" on="1"/>
        <pt x="144" y="215" on="1"/>
        <pt x="61" y="56" on="1"/>
        <pt x="137" y="26" on="1"/>
        <pt x="129" y="0" on="1"/>
      </contour>
      <contour>
        <pt x="352" y="617" on="1"/>
        <pt x="174" y="273" on="1"/>
        <pt x="400" y="273" on="1"/>
      </contour>
      <contour>
        <pt x="392" y="929" on="1"/>
        <pt x="416" y="932" on="1"/>
        <pt x="428" y="932" on="0"/>
        <pt x="440" y="929" on="1"/>
        <pt x="506" y="762" on="1"/>
        <pt x="487" y="748" on="1"/>
        <pt x="437" y="807" on="0"/>
        <pt x="408" y="852" on="1"/>
        <pt x="371" y="820" on="0"/>
        <pt x="269" y="748" on="1"/>
        <pt x="250" y="765" on="1"/>
        <pt x="311" y="824" on="0"/>
      </contour>
    </TTGlyph>
    <TTGlyph name="Adieresis" xMin="-70" yMin="0" xMax="588" yMax="903">
      <contour>
        <pt x="-64" y="0" on="1"/>
        <pt x="-70" y="22" on="1"/>
        <pt x="-56" y="31" on="0"/>
        <pt x="3" y="57" on="1"/>
        <pt x="339" y="691" on="1"/>
        <pt x="376" y="706" on="0"/>
        <pt x="403" y="706" on="1"/>
        <pt x="418" y="697" on="1"/>
        <pt x="509" y="56" on="1"/>
        <pt x="550" y="42" on="0"/>
        <pt x="588" y="22" on="1"/>
        <pt x="582" y="0" on="1"/>
        <pt x="359" y="0" on="1"/>
        <pt x="351" y="26" on="1"/>
        <pt x="393" y="43" on="0"/>
        <pt x="431" y="55" on="1"/>
        <pt x="406" y="229" on="1"/>
        <pt x="144" y="215" on="1"/>
        <pt x="61" y="56" on="1"/>
        <pt x="137" y="26" on="1"/>
        <pt x="129" y="0" on="1"/>
      </contour>
      <contour>
        <pt x="352" y="617" on="1"/>
        <pt x="174" y="273" on="1"/>
        <pt x="400" y="273" on="1"/>
      </contour>
      <contour>
        <pt x="496" y="903" on="1"/>
        <pt x="521" y="903" on="0"/>
        <pt x="521" y="869" on="1"/>
        <pt x="521" y="843" on="0"/>
        <pt x="503" y="797" on="0"/>
        <pt x="502" y="797" on="1"/>
        <pt x="472" y="788" on="0"/>
        <pt x="453" y="788" on="1"/>
        <pt x="427" y="788" on="0"/>
        <pt x="427" y="820" on="1"/>
        <pt x="427" y="850" on="0"/>
        <pt x="441" y="884" on="1"/>
        <pt x="446" y="896" on="1"/>
        <pt x="478" y="903" on="0"/>
      </contour>
      <contour>
        <pt x="360" y="903" on="1"/>
        <pt x="385" y="903" on="0"/>
        <pt x="385" y="869" on="1"/>
        <pt x="385" y="843" on="0"/>
        <pt x="367" y="797" on="0"/>
        <pt x="366" y="797" on="1"/>
        <pt x="336" y="788" on="0"/>
        <pt x="317" y="788" on="1"/>
        <pt x="291" y="788" on="0"/>
        <pt x="291" y="820" on="1"/>
        <pt x="291" y="850" on="0"/>
        <pt x="305" y="884" on="1"/>
        <pt x="310" y="896" on="1"/>
        <pt x="342" y="903" on="0"/>
      </contour>
    </TTGlyph>
    <TTGlyph name="Agrave" xMin="-70" yMin="0" xMax="588" yMax="958">
      <component glyphName="A" x="0" y="0" flags="0x1004"/>
      <component glyphName="grave" x="312" y="244" flags="0x1004"/>
    </TTGlyph>
    <TTGlyph name="Aring" xMin="-70" yMin="0" xMax="588" yMax="923">
      <component glyphName="A" x="0" y="0" flags="0x1004"/>
      <component glyphName="ring" x="223" y="244" flags="0x1004"/>
    </TTGlyph>
    <TTGlyph name="Atilde" xMin="-70" yMin="0" xMax="588" yMax="886">
      <component glyphName="A" x="0" y="0" flags="0x1004"/>
      <component glyphName="tilde" x="131" y="244" flags="0x1004"/>
    </TTGlyph>
    <TTGlyph name="B" xMin="13" yMin="0" xMax="577" yMax="700">
      <contour>
        <pt x="125" y="678" on="1"/>
        <pt x="131" y="700" on="1"/>
        <pt x="252" y="696" on="1"/>
        <pt x="425" y="698" on="1"/>
        <pt x="496" y="698" on="0"/>
        <pt x="577" y="612" on="0"/>
        <pt x="577" y="494" on="0"/>
        <pt x="501" y="403" on="0"/>
        <pt x="441" y="374" on="1"/>
        <pt x="503" y="358" on="0"/>
        <pt x="567" y="277" on="0"/>
        <pt x="567" y="225" on="1"/>
        <pt x="567" y="135" on="0"/>
        <pt x="427" y="0" on="0"/>
        <pt x="330" y="0" on="1"/>
        <pt x="323" y="0" on="0"/>
        <pt x="126" y="8" on="1"/>
        <pt x="21" y="0" on="1"/>
        <pt x="13" y="26" on="1"/>
        <pt x="64" y="47" on="0"/>
        <pt x="98" y="57" on="1"/>
        <pt x="209" y="642" on="1"/>
        <pt x="172" y="652" on="0"/>
      </contour>
      <contour>
        <pt x="166" y="58" on="1"/>
        <pt x="250" y="44" on="0"/>
        <pt x="391" y="44" on="0"/>
        <pt x="486" y="154" on="0"/>
        <pt x="486" y="223" on="1"/>
        <pt x="486" y="272" on="0"/>
        <pt x="432" y="343" on="0"/>
        <pt x="379" y="351" on="1"/>
        <pt x="366" y="346" on="0"/>
        <pt x="332" y="345" on="0"/>
        <pt x="269" y="366" on="1"/>
        <pt x="281" y="407" on="1"/>
        <pt x="343" y="399" on="0"/>
        <pt x="362" y="399" on="1"/>
        <pt x="429" y="399" on="0"/>
        <pt x="497" y="486" on="0"/>
        <pt x="497" y="589" on="0"/>
        <pt x="450" y="656" on="0"/>
        <pt x="403" y="656" on="1"/>
        <pt x="278" y="646" on="1"/>
        <pt x="230" y="350" on="1"/>
      </contour>
    </TTGlyph>
    <TTGlyph name="C" xMin="50" yMin="-12" xMax="597" yMax="712">
      <contour>
        <pt x="485" y="82" on="1"/>
        <pt x="506" y="46" on="1"/>
        <pt x="407" y="-12" on="0"/>
        <pt x="186" y="-12" on="0"/>
        <pt x="50" y="124" on="0"/>
        <pt x="50" y="254" on="1"/>
        <pt x="50" y="357" on="0"/>
        <pt x="110" y="522" on="0"/>
        <pt x="164" y="576" on="1"/>
        <pt x="272" y="684" on="0"/>
        <pt x="439" y="712" on="1"/>
        <pt x="480" y="712" on="0"/>
        <pt x="597" y="673" on="1"/>
        <pt x="571" y="623" on="1"/>
        <pt x="456" y="646" on="0"/>
        <pt x="413" y="646" on="1"/>
        <pt x="277" y="646" on="0"/>
        <pt x="130" y="438" on="0"/>
        <pt x="130" y="258" on="1"/>
        <pt x="130" y="151" on="0"/>
        <pt x="233" y="41" on="0"/>
        <pt x="413" y="41" on="0"/>
      </contour>
    </TTGlyph>
    <TTGlyph name="Ccedilla" xMin="50" yMin="-237" xMax="597" yMax="712">
      <component glyphName="C" x="0" y="0" flags="0x1004"/>
      <component glyphName="cedilla" x="105" y="0" flags="0x1004"/>
    </TTGlyph>
    <TTGlyph name="D" xMin="13" yMin="-6" xMax="702" yMax="712">
      <contour>
        <pt x="125" y="678" on="1"/>
        <pt x="131" y="700" on="1"/>
        <pt x="257" y="696" on="1"/>
        <pt x="454" y="712" on="1"/>
        <pt x="566" y="712" on="0"/>
        <pt x="702" y="582" on="0"/>
        <pt x="702" y="337" on="0"/>
        <pt x="612" y="134" on="0"/>
        <pt x="426" y="0" on="0"/>
        <pt x="299" y="-6" on="1"/>
        <pt x="123" y="8" on="1"/>
        <pt x="21" y="0" on="1"/>
        <pt x="13" y="26" on="1"/>
        <pt x="64" y="47" on="0"/>
        <pt x="98" y="57" on="1"/>
        <pt x="209" y="642" on="1"/>
        <pt x="172" y="652" on="0"/>
      </contour>
      <contour>
        <pt x="248" y="41" on="0"/>
        <pt x="386" y="41" on="0"/>
        <pt x="505" y="117" on="0"/>
        <pt x="542" y="177" on="1"/>
        <pt x="622" y="304" on="0"/>
        <pt x="622" y="449" on="1"/>
        <pt x="622" y="551" on="0"/>
        <pt x="522" y="658" on="0"/>
        <pt x="356" y="658" on="0"/>
        <pt x="276" y="639" on="1"/>
        <pt x="230" y="350" on="1"/>
        <pt x="167" y="60" on="1"/>
      </contour>
    </TTGlyph>
    <TTGlyph name="Delta" xMin="26" yMin="0" xMax="570" yMax="700">
      <contour>
        <pt x="385" y="700" on="1"/>
        <pt x="457" y="700" on="1"/>
        <pt x="570" y="0" on="1"/>
        <pt x="26" y="0" on="1"/>
      </contour>
      <contour>
        <pt x="394" y="619" on="1"/>
        <pt x="113" y="58" on="1"/>
        <pt x="483" y="58" on="1"/>
      </contour>
    </TTGlyph>
    <TTGlyph name="E" xMin="13" yMin="-4" xMax="577" yMax="713">
      <contour>
        <pt x="125" y="678" on="1"/>
        <pt x="131" y="700" on="1"/>
        <pt x="252" y="696" on="1"/>
        <pt x="502" y="698" on="0"/>
        <pt x="571" y="713" on="1"/>
        <pt x="577" y="696" on="1"/>
        <pt x="568" y="667" on="0"/>
        <pt x="546" y="640" on="1"/>
        <pt x="382" y="640" on="0"/>
        <pt x="278" y="646" on="1"/>
        <pt x="235" y="382" on="1"/>
        <pt x="482" y="382" on="1"/>
        <pt x="473" y="339" on="1"/>
        <pt x="225" y="326" on="1"/>
        <pt x="166" y="55" on="1"/>
        <pt x="421" y="57" on="0"/>
        <pt x="491" y="72" on="1"/>
        <pt x="497" y="55" on="1"/>
        <pt x="488" y="22" on="0"/>
        <pt x="466" y="-4" on="1"/>
        <pt x="304" y="8" on="0"/>
        <pt x="126" y="8" on="1"/>
        <pt x="21" y="0" on="1"/>
        <pt x="13" y="26" on="1"/>
        <pt x="64" y="47" on="0"/>
        <pt x="98" y="57" on="1"/>
        <pt x="209" y="642" on="1"/>
        <pt x="172" y="652" on="0"/>
      </contour>
    </TTGlyph>
    <TTGlyph name="Eacute" xMin="13" yMin="-4" xMax="577" yMax="946">
      <contour>
        <pt x="125" y="678" on="1"/>
        <pt x="131" y="700" on="1"/>
        <pt x="252" y="696" on="1"/>
        <pt x="502" y="698" on="0"/>
        <pt x="571" y="713" on="1"/>
        <pt x="577" y="696" on="1"/>
        <pt x="568" y="667" on="0"/>
        <pt x="546" y="640" on="1"/>
        <pt x="382" y="640" on="0"/>
        <pt x="278" y="646" on="1"/>
        <pt x="235" y="382" on="1"/>
        <pt x="482" y="382" on="1"/>
        <pt x="473" y="339" on="1"/>
        <pt x="225" y="326" on="1"/>
        <pt x="166" y="55" on="1"/>
        <pt x="421" y="57" on="0"/>
        <pt x="491" y="72" on="1"/>
        <pt x="497" y="55" on="1"/>
        <pt x="488" y="22" on="0"/>
        <pt x="466" y="-4" on="1"/>
        <pt x="304" y="8" on="0"/>
        <pt x="126" y="8" on="1"/>
        <pt x="21" y="0" on="1"/>
        <pt x="13" y="26" on="1"/>
        <pt x="64" y="47" on="0"/>
        <pt x="98" y="57" on="1"/>
        <pt x="209" y="642" on="1"/>
        <pt x="172" y="652" on="0"/>
      </contour>
      <contour>
        <pt x="392" y="746" on="1"/>
        <pt x="377" y="762" on="1"/>
        <pt x="447" y="850" on="0"/>
        <pt x="511" y="946" on="1"/>
        <pt x="521" y="939" on="0"/>
        <pt x="548" y="905" on="0"/>
        <pt x="551" y="891" on="1"/>
        <pt x="547" y="872" on="1"/>
        <pt x="494" y="810" on="0"/>
      </contour>
    </TTGlyph>
    <TTGlyph name="Ecircumflex" xMin="13" yMin="-4" xMax="577" yMax="932">
      <component glyphName="E" x="0" y="0" flags="0x1004"/>
      <component glyphName="circumflex" x="212" y="244" flags="0x1004"/>
    </TTGlyph>
    <TTGlyph name="Edieresis" xMin="13" yMin="-4" xMax="577" yMax="903">
      <component glyphName="E" x="0" y="0" flags="0x1004"/>
      <component glyphName="dieresis" x="207" y="244" flags="0x1004"/>
    </TTGlyph>
    <TTGlyph name="Egrave" xMin="13" yMin="-4" xMax="577" yMax="958">
      <contour>
        <pt x="125" y="678" on="1"/>
        <pt x="131" y="700" on="1"/>
        <pt x="252" y="696" on="1"/>
        <pt x="502" y="698" on="0"/>
        <pt x="571" y="713" on="1"/>
        <pt x="577" y="696" on="1"/>
        <pt x="568" y="667" on="0"/>
        <pt x="546" y="640" on="1"/>
        <pt x="382" y="640" on="0"/>
        <pt x="278" y="646" on="1"/>
        <pt x="235" y="382" on="1"/>
        <pt x="482" y="382" on="1"/>
        <pt x="473" y="339" on="1"/>
        <pt x="225" y="326" on="1"/>
        <pt x="166" y="55" on="1"/>
        <pt x="421" y="57" on="0"/>
        <pt x="491" y="72" on="1"/>
        <pt x="497" y="55" on="1"/>
        <pt x="488" y="22" on="0"/>
        <pt x="466" y="-4" on="1"/>
        <pt x="304" y="8" on="0"/>
        <pt x="126" y="8" on="1"/>
        <pt x="21" y="0" on="1"/>
        <pt x="13" y="26" on="1"/>
        <pt x="64" y="47" on="0"/>
        <pt x="98" y="57" on="1"/>
        <pt x="209" y="642" on="1"/>
        <pt x="172" y="652" on="0"/>
      </contour>
      <contour>
        <pt x="459" y="774" on="1"/>
        <pt x="444" y="758" on="1"/>
        <pt x="342" y="822" on="0"/>
        <pt x="289" y="884" on="1"/>
        <pt x="285" y="903" on="1"/>
        <pt x="288" y="917" on="0"/>
        <pt x="315" y="951" on="0"/>
        <pt x="325" y="958" on="1"/>
        <pt x="381" y="872" on="0"/>
        <pt x="440" y="798" on="1"/>
      </contour>
    </TTGlyph>
    <TTGlyph name="Eth" xMin="13" yMin="-6" xMax="702" yMax="712">
      <contour>
        <pt x="67" y="324" on="1"/>
        <pt x="67" y="382" on="1"/>
        <pt x="403" y="382" on="1"/>
        <pt x="403" y="339" on="1"/>
      </contour>
      <contour>
        <pt x="125" y="678" on="1"/>
        <pt x="131" y="700" on="1"/>
        <pt x="257" y="696" on="1"/>
        <pt x="454" y="712" on="1"/>
        <pt x="566" y="712" on="0"/>
        <pt x="702" y="582" on="0"/>
        <pt x="702" y="337" on="0"/>
        <pt x="612" y="134" on="0"/>
        <pt x="426" y="0" on="0"/>
        <pt x="299" y="-6" on="1"/>
        <pt x="123" y="8" on="1"/>
        <pt x="21" y="0" on="1"/>
        <pt x="13" y="26" on="1"/>
        <pt x="64" y="47" on="0"/>
        <pt x="98" y="57" on="1"/>
        <pt x="209" y="642" on="1"/>
        <pt x="172" y="652" on="0"/>
      </contour>
      <contour>
        <pt x="248" y="41" on="0"/>
        <pt x="386" y="41" on="0"/>
        <pt x="505" y="117" on="0"/>
        <pt x="542" y="177" on="1"/>
        <pt x="622" y="304" on="0"/>
        <pt x="622" y="449" on="1"/>
        <pt x="622" y="551" on="0"/>
        <pt x="522" y="658" on="0"/>
        <pt x="356" y="658" on="0"/>
        <pt x="276" y="639" on="1"/>
        <pt x="230" y="350" on="1"/>
        <pt x="167" y="60" on="1"/>
      </contour>
    </TTGlyph>
    <TTGlyph name="Euro" xMin="33" yMin="-12" xMax="469" yMax="563">
      <contour>
        <pt x="312" y="251" on="1"/>
        <pt x="305" y="214" on="1"/>
        <pt x="164" y="214" on="1"/>
        <pt x="163" y="199" on="0"/>
        <pt x="163" y="172" on="1"/>
        <pt x="163" y="37" on="0"/>
        <pt x="259" y="37" on="1"/>
        <pt x="299" y="37" on="0"/>
        <pt x="344" y="62" on="1"/>
        <pt x="361" y="122" on="0"/>
        <pt x="379" y="161" on="1"/>
        <pt x="403" y="165" on="1"/>
        <pt x="403" y="27" on="1"/>
        <pt x="327" y="-12" on="0"/>
        <pt x="170" y="-12" on="0"/>
        <pt x="86" y="88" on="0"/>
        <pt x="86" y="184" on="1"/>
        <pt x="86" y="204" on="0"/>
        <pt x="87" y="214" on="1"/>
        <pt x="33" y="214" on="1"/>
        <pt x="40" y="251" on="1"/>
        <pt x="91" y="251" on="1"/>
        <pt x="94" y="275" on="0"/>
        <pt x="100" y="298" on="1"/>
        <pt x="48" y="298" on="1"/>
        <pt x="55" y="335" on="1"/>
        <pt x="110" y="335" on="1"/>
        <pt x="173" y="520" on="0"/>
        <pt x="355" y="563" on="1"/>
        <pt x="378" y="563" on="0"/>
        <pt x="469" y="534" on="1"/>
        <pt x="454" y="486" on="1"/>
        <pt x="370" y="501" on="0"/>
        <pt x="344" y="501" on="1"/>
        <pt x="236" y="501" on="0"/>
        <pt x="186" y="335" on="1"/>
        <pt x="327" y="335" on="1"/>
        <pt x="320" y="298" on="1"/>
        <pt x="177" y="298" on="1"/>
        <pt x="171" y="275" on="0"/>
        <pt x="169" y="251" on="1"/>
      </contour>
    </TTGlyph>
    <TTGlyph name="F" xMin="13" yMin="0" xMax="577" yMax="713">
      <contour>
        <pt x="278" y="646" on="1"/>
        <pt x="232" y="366" on="1"/>
        <pt x="468" y="366" on="1"/>
        <pt x="459" y="323" on="1"/>
        <pt x="221" y="310" on="1"/>
        <pt x="167" y="60" on="1"/>
        <pt x="225" y="45" on="0"/>
        <pt x="280" y="22" on="1"/>
        <pt x="274" y="0" on="1"/>
        <pt x="21" y="0" on="1"/>
        <pt x="13" y="26" on="1"/>
        <pt x="64" y="47" on="0"/>
        <pt x="98" y="57" on="1"/>
        <pt x="209" y="642" on="1"/>
        <pt x="172" y="652" on="0"/>
        <pt x="125" y="678" on="1"/>
        <pt x="131" y="700" on="1"/>
        <pt x="252" y="696" on="1"/>
        <pt x="494" y="696" on="0"/>
        <pt x="571" y="713" on="1"/>
        <pt x="577" y="696" on="1"/>
        <pt x="568" y="667" on="0"/>
        <pt x="546" y="640" on="1"/>
        <pt x="382" y="640" on="0"/>
      </contour>
    </TTGlyph>
    <TTGlyph name="G" xMin="50" yMin="-12" xMax="627" yMax="712">
      <contour>
        <pt x="443" y="646" on="1"/>
        <pt x="293" y="646" on="0"/>
        <pt x="130" y="438" on="0"/>
        <pt x="130" y="258" on="1"/>
        <pt x="130" y="151" on="0"/>
        <pt x="233" y="41" on="0"/>
        <pt x="407" y="41" on="0"/>
        <pt x="476" y="72" on="1"/>
        <pt x="505" y="306" on="1"/>
        <pt x="355" y="317" on="1"/>
        <pt x="363" y="360" on="1"/>
        <pt x="588" y="360" on="1"/>
        <pt x="535" y="86" on="1"/>
        <pt x="538" y="47" on="1"/>
        <pt x="419" y="-12" on="0"/>
        <pt x="186" y="-12" on="0"/>
        <pt x="50" y="124" on="0"/>
        <pt x="50" y="254" on="1"/>
        <pt x="50" y="362" on="0"/>
        <pt x="115" y="529" on="0"/>
        <pt x="174" y="582" on="1"/>
        <pt x="289" y="684" on="0"/>
        <pt x="469" y="712" on="1"/>
        <pt x="510" y="712" on="0"/>
        <pt x="627" y="673" on="1"/>
        <pt x="601" y="623" on="1"/>
        <pt x="486" y="646" on="0"/>
      </contour>
    </TTGlyph>
    <TTGlyph name="H" xMin="13" yMin="0" xMax="780" yMax="700">
      <contour>
        <pt x="125" y="678" on="1"/>
        <pt x="131" y="700" on="1"/>
        <pt x="354" y="700" on="1"/>
        <pt x="362" y="674" on="1"/>
        <pt x="311" y="653" on="0"/>
        <pt x="277" y="643" on="1"/>
        <pt x="235" y="384" on="1"/>
        <pt x="570" y="384" on="1"/>
        <pt x="627" y="642" on="1"/>
        <pt x="590" y="652" on="0"/>
        <pt x="543" y="678" on="1"/>
        <pt x="549" y="700" on="1"/>
        <pt x="772" y="700" on="1"/>
        <pt x="780" y="674" on="1"/>
        <pt x="729" y="653" on="0"/>
        <pt x="695" y="643" on="1"/>
        <pt x="584" y="58" on="1"/>
        <pt x="629" y="43" on="0"/>
        <pt x="668" y="22" on="1"/>
        <pt x="662" y="0" on="1"/>
        <pt x="439" y="0" on="1"/>
        <pt x="431" y="26" on="1"/>
        <pt x="457" y="37" on="0"/>
        <pt x="515" y="57" on="1"/>
        <pt x="561" y="338" on="1"/>
        <pt x="224" y="322" on="1"/>
        <pt x="166" y="58" on="1"/>
        <pt x="209" y="44" on="0"/>
        <pt x="250" y="22" on="1"/>
        <pt x="244" y="0" on="1"/>
        <pt x="21" y="0" on="1"/>
        <pt x="13" y="26" on="1"/>
        <pt x="64" y="47" on="0"/>
        <pt x="98" y="57" on="1"/>
        <pt x="209" y="642" on="1"/>
        <pt x="172" y="652" on="0"/>
      </contour>
    </TTGlyph>
    <TTGlyph name="I" xMin="14" yMin="0" xMax="363" yMax="700">
      <contour>
        <pt x="251" y="22" on="1"/>
        <pt x="245" y="0" on="1"/>
        <pt x="22" y="0" on="1"/>
        <pt x="14" y="26" on="1"/>
        <pt x="40" y="37" on="0"/>
        <pt x="98" y="57" on="1"/>
        <pt x="149" y="350" on="1"/>
        <pt x="210" y="642" on="1"/>
        <pt x="173" y="652" on="0"/>
        <pt x="126" y="678" on="1"/>
        <pt x="132" y="700" on="1"/>
        <pt x="355" y="700" on="1"/>
        <pt x="363" y="674" on="1"/>
        <pt x="312" y="653" on="0"/>
        <pt x="278" y="643" on="1"/>
        <pt x="228" y="350" on="1"/>
        <pt x="167" y="58" on="1"/>
        <pt x="210" y="44" on="0"/>
      </contour>
    </TTGlyph>
    <TTGlyph name="Iacute" xMin="14" yMin="0" xMax="393" yMax="946">
      <component glyphName="I" x="0" y="0" flags="0x1004"/>
      <component glyphName="acute" x="169" y="244" flags="0x1004"/>
    </TTGlyph>
    <TTGlyph name="Icircumflex" xMin="14" yMin="0" xMax="390" yMax="932">
      <component glyphName="I" x="0" y="0" flags="0x1004"/>
      <component glyphName="circumflex" x="84" y="244" flags="0x1004"/>
    </TTGlyph>
    <TTGlyph name="Idieresis" xMin="14" yMin="0" xMax="400" yMax="903">
      <contour>
        <pt x="251" y="22" on="1"/>
        <pt x="245" y="0" on="1"/>
        <pt x="22" y="0" on="1"/>
        <pt x="14" y="26" on="1"/>
        <pt x="40" y="37" on="0"/>
        <pt x="98" y="57" on="1"/>
        <pt x="149" y="350" on="1"/>
        <pt x="210" y="642" on="1"/>
        <pt x="173" y="652" on="0"/>
        <pt x="126" y="678" on="1"/>
        <pt x="132" y="700" on="1"/>
        <pt x="355" y="700" on="1"/>
        <pt x="363" y="674" on="1"/>
        <pt x="312" y="653" on="0"/>
        <pt x="278" y="643" on="1"/>
        <pt x="228" y="350" on="1"/>
        <pt x="167" y="58" on="1"/>
        <pt x="210" y="44" on="0"/>
      </contour>
      <contour>
        <pt x="375" y="903" on="1"/>
        <pt x="400" y="903" on="0"/>
        <pt x="400" y="869" on="1"/>
        <pt x="400" y="843" on="0"/>
        <pt x="382" y="797" on="0"/>
        <pt x="381" y="797" on="1"/>
        <pt x="351" y="788" on="0"/>
        <pt x="332" y="788" on="1"/>
        <pt x="306" y="788" on="0"/>
        <pt x="306" y="820" on="1"/>
        <pt x="306" y="845" on="0"/>
        <pt x="320" y="884" on="1"/>
        <pt x="325" y="896" on="1"/>
        <pt x="357" y="903" on="0"/>
      </contour>
      <contour>
        <pt x="239" y="903" on="1"/>
        <pt x="264" y="903" on="0"/>
        <pt x="264" y="869" on="1"/>
        <pt x="264" y="843" on="0"/>
        <pt x="246" y="797" on="0"/>
        <pt x="245" y="797" on="1"/>
        <pt x="215" y="788" on="0"/>
        <pt x="196" y="788" on="1"/>
        <pt x="170" y="788" on="0"/>
        <pt x="170" y="820" on="1"/>
        <pt x="170" y="845" on="0"/>
        <pt x="184" y="884" on="1"/>
        <pt x="189" y="896" on="1"/>
        <pt x="221" y="903" on="0"/>
      </contour>
    </TTGlyph>
    <TTGlyph name="Igrave" xMin="14" yMin="0" xMax="363" yMax="958">
      <component glyphName="I" x="0" y="0" flags="0x1004"/>
      <component glyphName="grave" x="180" y="244" flags="0x1004"/>
    </TTGlyph>
    <TTGlyph name="J" xMin="-84" yMin="-204" xMax="361" yMax="700">
      <contour>
        <pt x="104" y="678" on="1"/>
        <pt x="110" y="700" on="1"/>
        <pt x="353" y="700" on="1"/>
        <pt x="361" y="674" on="1"/>
        <pt x="322" y="658" on="0"/>
        <pt x="280" y="644" on="1"/>
        <pt x="192" y="186" on="1"/>
        <pt x="156" y="3" on="0"/>
        <pt x="-59" y="-204" on="1"/>
        <pt x="-84" y="-183" on="1"/>
        <pt x="80" y="-2" on="0"/>
        <pt x="111" y="159" on="1"/>
        <pt x="204" y="641" on="1"/>
        <pt x="148" y="657" on="0"/>
      </contour>
    </TTGlyph>
    <TTGlyph name="K" xMin="13" yMin="-12" xMax="624" yMax="707">
      <contour>
        <pt x="125" y="678" on="1"/>
        <pt x="131" y="700" on="1"/>
        <pt x="354" y="700" on="1"/>
        <pt x="362" y="674" on="1"/>
        <pt x="311" y="653" on="0"/>
        <pt x="277" y="643" on="1"/>
        <pt x="234" y="376" on="1"/>
        <pt x="272" y="368" on="0"/>
        <pt x="335" y="368" on="0"/>
        <pt x="343" y="369" on="1"/>
        <pt x="401" y="434" on="0"/>
        <pt x="470" y="534" on="1"/>
        <pt x="512" y="655" on="1"/>
        <pt x="567" y="707" on="0"/>
        <pt x="603" y="707" on="1"/>
        <pt x="624" y="694" on="1"/>
        <pt x="596" y="634" on="0"/>
        <pt x="483" y="475" on="0"/>
        <pt x="379" y="343" on="1"/>
        <pt x="406" y="182" on="0"/>
        <pt x="482" y="57" on="1"/>
        <pt x="506" y="55" on="0"/>
        <pt x="566" y="37" on="0"/>
        <pt x="577" y="28" on="1"/>
        <pt x="571" y="8" on="1"/>
        <pt x="440" y="-12" on="1"/>
        <pt x="415" y="-12" on="0"/>
        <pt x="339" y="204" on="0"/>
        <pt x="322" y="315" on="1"/>
        <pt x="297" y="315" on="0"/>
        <pt x="226" y="334" on="1"/>
        <pt x="166" y="58" on="1"/>
        <pt x="209" y="44" on="0"/>
        <pt x="250" y="22" on="1"/>
        <pt x="244" y="0" on="1"/>
        <pt x="21" y="0" on="1"/>
        <pt x="13" y="26" on="1"/>
        <pt x="64" y="47" on="0"/>
        <pt x="98" y="57" on="1"/>
        <pt x="209" y="642" on="1"/>
        <pt x="172" y="652" on="0"/>
      </contour>
    </TTGlyph>
    <TTGlyph name="L" xMin="13" yMin="-4" xMax="453" yMax="700">
      <contour>
        <pt x="130" y="5" on="1"/>
        <pt x="21" y="0" on="1"/>
        <pt x="13" y="26" on="1"/>
        <pt x="39" y="37" on="0"/>
        <pt x="97" y="57" on="1"/>
        <pt x="148" y="350" on="1"/>
        <pt x="209" y="642" on="1"/>
        <pt x="172" y="652" on="0"/>
        <pt x="125" y="678" on="1"/>
        <pt x="131" y="700" on="1"/>
        <pt x="354" y="700" on="1"/>
        <pt x="362" y="674" on="1"/>
        <pt x="311" y="653" on="0"/>
        <pt x="277" y="643" on="1"/>
        <pt x="227" y="350" on="1"/>
        <pt x="166" y="55" on="1"/>
        <pt x="378" y="57" on="0"/>
        <pt x="447" y="72" on="1"/>
        <pt x="453" y="55" on="1"/>
        <pt x="444" y="22" on="0"/>
        <pt x="422" y="-4" on="1"/>
        <pt x="314" y="5" on="0"/>
      </contour>
    </TTGlyph>
    <TTGlyph name="Lslash" xMin="13" yMin="-4" xMax="453" yMax="700">
      <contour>
        <pt x="303" y="456" on="1"/>
        <pt x="320" y="444" on="0"/>
        <pt x="326" y="438" on="1"/>
        <pt x="328" y="426" on="1"/>
        <pt x="246" y="377" on="0"/>
        <pt x="97" y="302" on="1"/>
        <pt x="67" y="320" on="0"/>
        <pt x="59" y="330" on="1"/>
        <pt x="57" y="343" on="1"/>
        <pt x="157" y="376" on="0"/>
      </contour>
      <contour>
        <pt x="130" y="5" on="1"/>
        <pt x="21" y="0" on="1"/>
        <pt x="13" y="26" on="1"/>
        <pt x="39" y="37" on="0"/>
        <pt x="97" y="57" on="1"/>
        <pt x="148" y="350" on="1"/>
        <pt x="209" y="642" on="1"/>
        <pt x="172" y="652" on="0"/>
        <pt x="125" y="678" on="1"/>
        <pt x="131" y="700" on="1"/>
        <pt x="354" y="700" on="1"/>
        <pt x="362" y="674" on="1"/>
        <pt x="311" y="653" on="0"/>
        <pt x="277" y="643" on="1"/>
        <pt x="227" y="350" on="1"/>
        <pt x="166" y="55" on="1"/>
        <pt x="378" y="57" on="0"/>
        <pt x="447" y="72" on="1"/>
        <pt x="453" y="55" on="1"/>
        <pt x="444" y="22" on="0"/>
        <pt x="422" y="-4" on="1"/>
        <pt x="314" y="5" on="0"/>
      </contour>
    </TTGlyph>
    <TTGlyph name="M" xMin="-15" yMin="0" xMax="891" yMax="700">
      <contour>
        <pt x="136" y="678" on="1"/>
        <pt x="142" y="700" on="1"/>
        <pt x="307" y="696" on="1"/>
        <pt x="425" y="185" on="1"/>
        <pt x="730" y="696" on="1"/>
        <pt x="883" y="700" on="1"/>
        <pt x="891" y="674" on="1"/>
        <pt x="853" y="658" on="0"/>
        <pt x="806" y="642" on="1"/>
        <pt x="737" y="56" on="1"/>
        <pt x="782" y="42" on="0"/>
        <pt x="820" y="26" on="1"/>
        <pt x="812" y="0" on="1"/>
        <pt x="559" y="0" on="1"/>
        <pt x="553" y="22" on="1"/>
        <pt x="603" y="44" on="0"/>
        <pt x="658" y="58" on="1"/>
        <pt x="727" y="601" on="1"/>
        <pt x="397" y="50" on="1"/>
        <pt x="379" y="50" on="1"/>
        <pt x="246" y="598" on="1"/>
        <pt x="120" y="58" on="1"/>
        <pt x="148" y="48" on="0"/>
        <pt x="202" y="26" on="1"/>
        <pt x="194" y="0" on="1"/>
        <pt x="-9" y="0" on="1"/>
        <pt x="-15" y="22" on="1"/>
        <pt x="27" y="47" on="0"/>
        <pt x="64" y="58" on="1"/>
        <pt x="206" y="644" on="1"/>
        <pt x="169" y="658" on="0"/>
      </contour>
    </TTGlyph>
    <TTGlyph name="N" xMin="6" yMin="0" xMax="790" yMax="700">
      <contour>
        <pt x="121" y="678" on="1"/>
        <pt x="127" y="700" on="1"/>
        <pt x="264" y="700" on="1"/>
        <pt x="559" y="126" on="1"/>
        <pt x="654" y="642" on="1"/>
        <pt x="620" y="654" on="0"/>
        <pt x="573" y="674" on="1"/>
        <pt x="581" y="700" on="1"/>
        <pt x="784" y="700" on="1"/>
        <pt x="790" y="678" on="1"/>
        <pt x="749" y="653" on="0"/>
        <pt x="709" y="641" on="1"/>
        <pt x="588" y="0" on="1"/>
        <pt x="533" y="0" on="1"/>
        <pt x="235" y="583" on="1"/>
        <pt x="141" y="58" on="1"/>
        <pt x="169" y="48" on="0"/>
        <pt x="223" y="26" on="1"/>
        <pt x="215" y="0" on="1"/>
        <pt x="12" y="0" on="1"/>
        <pt x="6" y="22" on="1"/>
        <pt x="41" y="43" on="0"/>
        <pt x="84" y="58" on="1"/>
        <pt x="194" y="643" on="1"/>
        <pt x="154" y="658" on="0"/>
      </contour>
    </TTGlyph>
    <TTGlyph name="Ntilde" xMin="6" yMin="0" xMax="790" yMax="886">
      <component glyphName="N" x="0" y="0" flags="0x1004"/>
      <component glyphName="tilde" x="252" y="244" flags="0x1004"/>
    </TTGlyph>
    <TTGlyph name="O" xMin="50" yMin="-12" xMax="679" yMax="712">
      <contour>
        <pt x="451" y="712" on="1"/>
        <pt x="558" y="712" on="0"/>
        <pt x="679" y="565" on="0"/>
        <pt x="679" y="341" on="0"/>
        <pt x="580" y="130" on="0"/>
        <pt x="386" y="-12" on="0"/>
        <pt x="266" y="-12" on="1"/>
        <pt x="166" y="-12" on="0"/>
        <pt x="50" y="132" on="0"/>
        <pt x="50" y="242" on="1"/>
        <pt x="50" y="324" on="0"/>
        <pt x="106" y="489" on="0"/>
        <pt x="206" y="626" on="0"/>
        <pt x="361" y="712" on="0"/>
      </contour>
      <contour>
        <pt x="599" y="539" on="0"/>
        <pt x="498" y="659" on="0"/>
        <pt x="353" y="659" on="0"/>
        <pt x="235" y="584" on="0"/>
        <pt x="200" y="522" on="1"/>
        <pt x="130" y="397" on="0"/>
        <pt x="130" y="241" on="1"/>
        <pt x="130" y="153" on="0"/>
        <pt x="217" y="41" on="0"/>
        <pt x="360" y="41" on="0"/>
        <pt x="483" y="117" on="0"/>
        <pt x="521" y="178" on="1"/>
        <pt x="599" y="302" on="0"/>
        <pt x="599" y="451" on="1"/>
      </contour>
    </TTGlyph>
    <TTGlyph name="OE" xMin="50" yMin="-12" xMax="860" yMax="713">
      <contour>
        <pt x="535" y="696" on="1"/>
        <pt x="538" y="620" on="1"/>
        <pt x="492" y="653" on="0"/>
        <pt x="353" y="653" on="0"/>
        <pt x="235" y="580" on="0"/>
        <pt x="200" y="520" on="1"/>
        <pt x="130" y="396" on="0"/>
        <pt x="130" y="241" on="1"/>
        <pt x="130" y="153" on="0"/>
        <pt x="217" y="39" on="0"/>
        <pt x="349" y="39" on="0"/>
        <pt x="408" y="70" on="1"/>
        <pt x="420" y="11" on="1"/>
        <pt x="345" y="-12" on="0"/>
        <pt x="266" y="-12" on="1"/>
        <pt x="166" y="-12" on="0"/>
        <pt x="50" y="132" on="0"/>
        <pt x="50" y="242" on="1"/>
        <pt x="50" y="324" on="0"/>
        <pt x="106" y="487" on="0"/>
        <pt x="206" y="622" on="0"/>
        <pt x="361" y="706" on="0"/>
        <pt x="451" y="706" on="1"/>
        <pt x="493" y="706" on="0"/>
      </contour>
      <contour>
        <pt x="408" y="678" on="1"/>
        <pt x="414" y="700" on="1"/>
        <pt x="535" y="696" on="1"/>
        <pt x="785" y="698" on="0"/>
        <pt x="854" y="713" on="1"/>
        <pt x="860" y="696" on="1"/>
        <pt x="851" y="667" on="0"/>
        <pt x="829" y="640" on="1"/>
        <pt x="665" y="640" on="0"/>
        <pt x="561" y="646" on="1"/>
        <pt x="518" y="382" on="1"/>
        <pt x="765" y="382" on="1"/>
        <pt x="756" y="339" on="1"/>
        <pt x="508" y="326" on="1"/>
        <pt x="449" y="55" on="1"/>
        <pt x="704" y="57" on="0"/>
        <pt x="774" y="72" on="1"/>
        <pt x="780" y="55" on="1"/>
        <pt x="771" y="22" on="0"/>
        <pt x="749" y="-4" on="1"/>
        <pt x="587" y="8" on="0"/>
        <pt x="409" y="8" on="1"/>
        <pt x="304" y="0" on="1"/>
        <pt x="296" y="26" on="1"/>
        <pt x="347" y="47" on="0"/>
        <pt x="381" y="57" on="1"/>
        <pt x="492" y="642" on="1"/>
        <pt x="455" y="652" on="0"/>
      </contour>
    </TTGlyph>
    <TTGlyph name="Oacute" xMin="50" yMin="-12" xMax="679" yMax="946">
      <contour>
        <pt x="451" y="712" on="1"/>
        <pt x="558" y="712" on="0"/>
        <pt x="679" y="565" on="0"/>
        <pt x="679" y="341" on="0"/>
        <pt x="580" y="130" on="0"/>
        <pt x="386" y="-12" on="0"/>
        <pt x="266" y="-12" on="1"/>
        <pt x="166" y="-12" on="0"/>
        <pt x="50" y="132" on="0"/>
        <pt x="50" y="242" on="1"/>
        <pt x="50" y="324" on="0"/>
        <pt x="106" y="489" on="0"/>
        <pt x="206" y="626" on="0"/>
        <pt x="361" y="712" on="0"/>
      </contour>
      <contour>
        <pt x="599" y="539" on="0"/>
        <pt x="498" y="659" on="0"/>
        <pt x="353" y="659" on="0"/>
        <pt x="235" y="584" on="0"/>
        <pt x="200" y="522" on="1"/>
        <pt x="130" y="397" on="0"/>
        <pt x="130" y="241" on="1"/>
        <pt x="130" y="153" on="0"/>
        <pt x="217" y="41" on="0"/>
        <pt x="360" y="41" on="0"/>
        <pt x="483" y="117" on="0"/>
        <pt x="521" y="178" on="1"/>
        <pt x="599" y="302" on="0"/>
        <pt x="599" y="451" on="1"/>
      </contour>
      <contour>
        <pt x="423" y="746" on="1"/>
        <pt x="408" y="762" on="1"/>
        <pt x="478" y="850" on="0"/>
        <pt x="542" y="946" on="1"/>
        <pt x="552" y="939" on="0"/>
        <pt x="579" y="905" on="0"/>
        <pt x="582" y="891" on="1"/>
        <pt x="578" y="872" on="1"/>
        <pt x="525" y="810" on="0"/>
      </contour>
    </TTGlyph>
    <TTGlyph name="Ocircumflex" xMin="50" yMin="-12" xMax="679" yMax="932">
      <contour>
        <pt x="451" y="712" on="1"/>
        <pt x="558" y="712" on="0"/>
        <pt x="679" y="565" on="0"/>
        <pt x="679" y="341" on="0"/>
        <pt x="580" y="130" on="0"/>
        <pt x="386" y="-12" on="0"/>
        <pt x="266" y="-12" on="1"/>
        <pt x="166" y="-12" on="0"/>
        <pt x="50" y="132" on="0"/>
        <pt x="50" y="242" on="1"/>
        <pt x="50" y="324" on="0"/>
        <pt x="106" y="489" on="0"/>
        <pt x="206" y="626" on="0"/>
        <pt x="361" y="712" on="0"/>
      </contour>
      <contour>
        <pt x="599" y="539" on="0"/>
        <pt x="498" y="659" on="0"/>
        <pt x="353" y="659" on="0"/>
        <pt x="235" y="584" on="0"/>
        <pt x="200" y="522" on="1"/>
        <pt x="130" y="397" on="0"/>
        <pt x="130" y="241" on="1"/>
        <pt x="130" y="153" on="0"/>
        <pt x="217" y="41" on="0"/>
        <pt x="360" y="41" on="0"/>
        <pt x="483" y="117" on="0"/>
        <pt x="521" y="178" on="1"/>
        <pt x="599" y="302" on="0"/>
        <pt x="599" y="451" on="1"/>
      </contour>
      <contour>
        <pt x="467" y="929" on="1"/>
        <pt x="491" y="932" on="1"/>
        <pt x="503" y="932" on="0"/>
        <pt x="515" y="929" on="1"/>
        <pt x="581" y="762" on="1"/>
        <pt x="562" y="748" on="1"/>
        <pt x="512" y="807" on="0"/>
        <pt x="483" y="852" on="1"/>
        <pt x="446" y="820" on="0"/>
        <pt x="344" y="748" on="1"/>
        <pt x="325" y="765" on="1"/>
        <pt x="386" y="824" on="0"/>
      </contour>
    </TTGlyph>
    <TTGlyph name="Odieresis" xMin="50" yMin="-12" xMax="679" yMax="903">
      <component glyphName="O" x="0" y="0" flags="0x1004"/>
      <component glyphName="dieresis" x="280" y="244" flags="0x1004"/>
    </TTGlyph>
    <TTGlyph name="Ograve" xMin="50" yMin="-12" xMax="679" yMax="958">
      <contour>
        <pt x="451" y="712" on="1"/>
        <pt x="558" y="712" on="0"/>
        <pt x="679" y="565" on="0"/>
        <pt x="679" y="341" on="0"/>
        <pt x="580" y="130" on="0"/>
        <pt x="386" y="-12" on="0"/>
        <pt x="266" y="-12" on="1"/>
        <pt x="166" y="-12" on="0"/>
        <pt x="50" y="132" on="0"/>
        <pt x="50" y="242" on="1"/>
        <pt x="50" y="324" on="0"/>
        <pt x="106" y="489" on="0"/>
        <pt x="206" y="626" on="0"/>
        <pt x="361" y="712" on="0"/>
      </contour>
      <contour>
        <pt x="599" y="539" on="0"/>
        <pt x="498" y="659" on="0"/>
        <pt x="353" y="659" on="0"/>
        <pt x="235" y="584" on="0"/>
        <pt x="200" y="522" on="1"/>
        <pt x="130" y="397" on="0"/>
        <pt x="130" y="241" on="1"/>
        <pt x="130" y="153" on="0"/>
        <pt x="217" y="41" on="0"/>
        <pt x="360" y="41" on="0"/>
        <pt x="483" y="117" on="0"/>
        <pt x="521" y="178" on="1"/>
        <pt x="599" y="302" on="0"/>
        <pt x="599" y="451" on="1"/>
      </contour>
      <contour>
        <pt x="537" y="774" on="1"/>
        <pt x="522" y="758" on="1"/>
        <pt x="420" y="822" on="0"/>
        <pt x="367" y="884" on="1"/>
        <pt x="363" y="903" on="1"/>
        <pt x="366" y="917" on="0"/>
        <pt x="393" y="951" on="0"/>
        <pt x="403" y="958" on="1"/>
        <pt x="459" y="872" on="0"/>
        <pt x="518" y="798" on="1"/>
      </contour>
    </TTGlyph>
    <TTGlyph name="Omega" xMin="31" yMin="0" xMax="738" yMax="712">
      <contour>
        <pt x="643" y="0" on="1"/>
        <pt x="450" y="0" on="1"/>
        <pt x="450" y="142" on="1"/>
        <pt x="557" y="202" on="0"/>
        <pt x="652" y="371" on="0"/>
        <pt x="652" y="552" on="0"/>
        <pt x="546" y="658" on="0"/>
        <pt x="458" y="658" on="1"/>
        <pt x="345" y="658" on="0"/>
        <pt x="174" y="477" on="0"/>
        <pt x="174" y="340" on="1"/>
        <pt x="174" y="218" on="0"/>
        <pt x="283" y="142" on="1"/>
        <pt x="233" y="0" on="1"/>
        <pt x="40" y="0" on="1"/>
        <pt x="31" y="0" on="0"/>
        <pt x="31" y="27" on="0"/>
        <pt x="32" y="30" on="1"/>
        <pt x="184" y="52" on="1"/>
        <pt x="210" y="125" on="1"/>
        <pt x="153" y="152" on="0"/>
        <pt x="92" y="265" on="0"/>
        <pt x="92" y="341" on="1"/>
        <pt x="92" y="498" on="0"/>
        <pt x="319" y="712" on="0"/>
        <pt x="473" y="712" on="1"/>
        <pt x="590" y="712" on="0"/>
        <pt x="738" y="580" on="0"/>
        <pt x="738" y="358" on="0"/>
        <pt x="609" y="167" on="0"/>
        <pt x="515" y="128" on="1"/>
        <pt x="517" y="52" on="1"/>
        <pt x="661" y="30" on="1"/>
        <pt x="656" y="0" on="0"/>
      </contour>
    </TTGlyph>
    <TTGlyph name="Oslash" xMin="50" yMin="-119" xMax="679" yMax="817">
      <contour>
        <pt x="157" y="-119" on="1"/>
        <pt x="546" y="817" on="1"/>
        <pt x="600" y="817" on="1"/>
        <pt x="211" y="-119" on="1"/>
      </contour>
      <contour>
        <pt x="451" y="712" on="1"/>
        <pt x="558" y="712" on="0"/>
        <pt x="679" y="565" on="0"/>
        <pt x="679" y="341" on="0"/>
        <pt x="580" y="130" on="0"/>
        <pt x="386" y="-12" on="0"/>
        <pt x="266" y="-12" on="1"/>
        <pt x="166" y="-12" on="0"/>
        <pt x="50" y="132" on="0"/>
        <pt x="50" y="242" on="1"/>
        <pt x="50" y="324" on="0"/>
        <pt x="106" y="489" on="0"/>
        <pt x="206" y="626" on="0"/>
        <pt x="361" y="712" on="0"/>
      </contour>
      <contour>
        <pt x="599" y="539" on="0"/>
        <pt x="498" y="659" on="0"/>
        <pt x="353" y="659" on="0"/>
        <pt x="235" y="584" on="0"/>
        <pt x="200" y="522" on="1"/>
        <pt x="130" y="397" on="0"/>
        <pt x="130" y="241" on="1"/>
        <pt x="130" y="153" on="0"/>
        <pt x="217" y="41" on="0"/>
        <pt x="360" y="41" on="0"/>
        <pt x="483" y="117" on="0"/>
        <pt x="521" y="178" on="1"/>
        <pt x="599" y="302" on="0"/>
        <pt x="599" y="451" on="1"/>
      </contour>
    </TTGlyph>
    <TTGlyph name="Otilde" xMin="50" yMin="-12" xMax="679" yMax="886">
      <contour>
        <pt x="451" y="712" on="1"/>
        <pt x="558" y="712" on="0"/>
        <pt x="679" y="565" on="0"/>
        <pt x="679" y="341" on="0"/>
        <pt x="580" y="130" on="0"/>
        <pt x="386" y="-12" on="0"/>
        <pt x="266" y="-12" on="1"/>
        <pt x="166" y="-12" on="0"/>
        <pt x="50" y="132" on="0"/>
        <pt x="50" y="242" on="1"/>
        <pt x="50" y="324" on="0"/>
        <pt x="106" y="489" on="0"/>
        <pt x="206" y="626" on="0"/>
        <pt x="361" y="712" on="0"/>
      </contour>
      <contour>
        <pt x="599" y="539" on="0"/>
        <pt x="498" y="659" on="0"/>
        <pt x="353" y="659" on="0"/>
        <pt x="235" y="584" on="0"/>
        <pt x="200" y="522" on="1"/>
        <pt x="130" y="397" on="0"/>
        <pt x="130" y="241" on="1"/>
        <pt x="130" y="153" on="0"/>
        <pt x="217" y="41" on="0"/>
        <pt x="360" y="41" on="0"/>
        <pt x="483" y="117" on="0"/>
        <pt x="521" y="178" on="1"/>
        <pt x="599" y="302" on="0"/>
        <pt x="599" y="451" on="1"/>
      </contour>
      <contour>
        <pt x="604" y="886" on="1"/>
        <pt x="623" y="869" on="1"/>
        <pt x="578" y="795" on="0"/>
        <pt x="527" y="795" on="1"/>
        <pt x="507" y="795" on="0"/>
        <pt x="428" y="824" on="0"/>
        <pt x="408" y="824" on="1"/>
        <pt x="370" y="824" on="0"/>
        <pt x="341" y="795" on="1"/>
        <pt x="322" y="812" on="1"/>
        <pt x="366" y="886" on="0"/>
        <pt x="418" y="886" on="1"/>
        <pt x="438" y="886" on="0"/>
        <pt x="516" y="857" on="0"/>
        <pt x="537" y="857" on="1"/>
        <pt x="574" y="857" on="0"/>
      </contour>
    </TTGlyph>
    <TTGlyph name="P" xMin="13" yMin="0" xMax="584" yMax="700">
      <contour>
        <pt x="280" y="22" on="1"/>
        <pt x="274" y="0" on="1"/>
        <pt x="21" y="0" on="1"/>
        <pt x="13" y="26" on="1"/>
        <pt x="64" y="47" on="0"/>
        <pt x="98" y="57" on="1"/>
        <pt x="209" y="642" on="1"/>
        <pt x="172" y="652" on="0"/>
        <pt x="125" y="678" on="1"/>
        <pt x="131" y="700" on="1"/>
        <pt x="252" y="696" on="1"/>
        <pt x="423" y="698" on="1"/>
        <pt x="499" y="698" on="0"/>
        <pt x="584" y="602" on="0"/>
        <pt x="584" y="432" on="0"/>
        <pt x="439" y="277" on="0"/>
        <pt x="344" y="255" on="1"/>
        <pt x="324" y="255" on="0"/>
        <pt x="243" y="285" on="0"/>
        <pt x="241" y="286" on="1"/>
        <pt x="253" y="327" on="1"/>
        <pt x="312" y="309" on="0"/>
        <pt x="354" y="309" on="1"/>
        <pt x="428" y="309" on="0"/>
        <pt x="504" y="441" on="0"/>
        <pt x="504" y="577" on="0"/>
        <pt x="454" y="656" on="0"/>
        <pt x="405" y="656" on="1"/>
        <pt x="278" y="646" on="1"/>
        <pt x="230" y="350" on="1"/>
        <pt x="167" y="60" on="1"/>
        <pt x="225" y="45" on="0"/>
      </contour>
    </TTGlyph>
    <TTGlyph name="Q" xMin="50" yMin="-179" xMax="679" yMax="712">
      <contour>
        <pt x="269" y="0" on="1"/>
        <pt x="342" y="0" on="1"/>
        <pt x="377" y="-62" on="0"/>
        <pt x="438" y="-113" on="0"/>
        <pt x="472" y="-113" on="1"/>
        <pt x="531" y="-113" on="0"/>
        <pt x="643" y="-91" on="1"/>
        <pt x="656" y="-140" on="1"/>
        <pt x="539" y="-179" on="0"/>
        <pt x="498" y="-179" on="1"/>
        <pt x="427" y="-165" on="0"/>
        <pt x="320" y="-77" on="0"/>
      </contour>
      <contour>
        <pt x="451" y="712" on="1"/>
        <pt x="558" y="712" on="0"/>
        <pt x="679" y="565" on="0"/>
        <pt x="679" y="341" on="0"/>
        <pt x="580" y="130" on="0"/>
        <pt x="386" y="-12" on="0"/>
        <pt x="266" y="-12" on="1"/>
        <pt x="166" y="-12" on="0"/>
        <pt x="50" y="132" on="0"/>
        <pt x="50" y="242" on="1"/>
        <pt x="50" y="324" on="0"/>
        <pt x="106" y="489" on="0"/>
        <pt x="206" y="626" on="0"/>
        <pt x="361" y="712" on="0"/>
      </contour>
      <contour>
        <pt x="599" y="539" on="0"/>
        <pt x="498" y="659" on="0"/>
        <pt x="353" y="659" on="0"/>
        <pt x="235" y="584" on="0"/>
        <pt x="200" y="522" on="1"/>
        <pt x="130" y="397" on="0"/>
        <pt x="130" y="241" on="1"/>
        <pt x="130" y="153" on="0"/>
        <pt x="217" y="41" on="0"/>
        <pt x="360" y="41" on="0"/>
        <pt x="483" y="117" on="0"/>
        <pt x="521" y="178" on="1"/>
        <pt x="599" y="302" on="0"/>
        <pt x="599" y="451" on="1"/>
      </contour>
    </TTGlyph>
    <TTGlyph name="R" xMin="13" yMin="-12" xMax="582" yMax="700">
      <contour>
        <pt x="260" y="22" on="1"/>
        <pt x="254" y="0" on="1"/>
        <pt x="21" y="0" on="1"/>
        <pt x="13" y="26" on="1"/>
        <pt x="64" y="47" on="0"/>
        <pt x="98" y="57" on="1"/>
        <pt x="209" y="642" on="1"/>
        <pt x="172" y="652" on="0"/>
        <pt x="125" y="678" on="1"/>
        <pt x="131" y="700" on="1"/>
        <pt x="252" y="696" on="1"/>
        <pt x="421" y="698" on="1"/>
        <pt x="497" y="698" on="0"/>
        <pt x="582" y="602" on="0"/>
        <pt x="582" y="455" on="0"/>
        <pt x="483" y="331" on="0"/>
        <pt x="410" y="299" on="1"/>
        <pt x="429" y="160" on="0"/>
        <pt x="482" y="57" on="1"/>
        <pt x="506" y="55" on="0"/>
        <pt x="566" y="37" on="0"/>
        <pt x="577" y="28" on="1"/>
        <pt x="571" y="8" on="1"/>
        <pt x="440" y="-12" on="1"/>
        <pt x="422" y="-12" on="0"/>
        <pt x="364" y="181" on="0"/>
        <pt x="352" y="280" on="1"/>
        <pt x="341" y="280" on="0"/>
        <pt x="270" y="302" on="0"/>
        <pt x="249" y="311" on="1"/>
        <pt x="261" y="352" on="1"/>
        <pt x="320" y="334" on="0"/>
        <pt x="410" y="334" on="0"/>
        <pt x="443" y="365" on="1"/>
        <pt x="502" y="420" on="0"/>
        <pt x="502" y="518" on="1"/>
        <pt x="502" y="577" on="0"/>
        <pt x="452" y="656" on="0"/>
        <pt x="403" y="656" on="1"/>
        <pt x="278" y="646" on="1"/>
        <pt x="230" y="350" on="1"/>
        <pt x="166" y="58" on="1"/>
        <pt x="208" y="47" on="0"/>
      </contour>
    </TTGlyph>
    <TTGlyph name="S" xMin="0" yMin="-12" xMax="500" yMax="712">
      <contour>
        <pt x="0" y="36" on="1"/>
        <pt x="36" y="186" on="1"/>
        <pt x="59" y="181" on="1"/>
        <pt x="68" y="134" on="0"/>
        <pt x="73" y="77" on="1"/>
        <pt x="125" y="36" on="0"/>
        <pt x="284" y="36" on="0"/>
        <pt x="372" y="120" on="0"/>
        <pt x="372" y="235" on="0"/>
        <pt x="324" y="267" on="1"/>
        <pt x="175" y="368" on="1"/>
        <pt x="107" y="414" on="0"/>
        <pt x="107" y="575" on="0"/>
        <pt x="234" y="696" on="0"/>
        <pt x="342" y="712" on="1"/>
        <pt x="383" y="712" on="0"/>
        <pt x="500" y="673" on="1"/>
        <pt x="474" y="623" on="1"/>
        <pt x="359" y="646" on="0"/>
        <pt x="293" y="646" on="0"/>
        <pt x="250" y="636" on="0"/>
        <pt x="205" y="611" on="0"/>
        <pt x="177" y="559" on="0"/>
        <pt x="177" y="523" on="1"/>
        <pt x="177" y="460" on="0"/>
        <pt x="227" y="427" on="1"/>
        <pt x="372" y="329" on="1"/>
        <pt x="456" y="271" on="0"/>
        <pt x="456" y="196" on="1"/>
        <pt x="456" y="104" on="0"/>
        <pt x="298" y="-12" on="0"/>
        <pt x="97" y="-12" on="0"/>
      </contour>
    </TTGlyph>
    <TTGlyph name="Scaron" xMin="0" yMin="-12" xMax="525" yMax="947">
      <component glyphName="S" x="0" y="0" flags="0x1004"/>
      <component glyphName="caron" x="208" y="244" flags="0x1004"/>
    </TTGlyph>
    <TTGlyph name="T" xMin="70" yMin="0" xMax="616" yMax="713">
      <contour>
        <pt x="371" y="22" on="1"/>
        <pt x="365" y="0" on="1"/>
        <pt x="102" y="0" on="1"/>
        <pt x="94" y="26" on="1"/>
        <pt x="167" y="50" on="0"/>
        <pt x="199" y="59" on="1"/>
        <pt x="249" y="350" on="1"/>
        <pt x="314" y="660" on="1"/>
        <pt x="236" y="660" on="1"/>
        <pt x="198" y="660" on="0"/>
        <pt x="108" y="623" on="1"/>
        <pt x="80" y="654" on="0"/>
        <pt x="70" y="684" on="1"/>
        <pt x="75" y="700" on="1"/>
        <pt x="501" y="700" on="1"/>
        <pt x="559" y="700" on="0"/>
        <pt x="610" y="713" on="1"/>
        <pt x="616" y="696" on="1"/>
        <pt x="609" y="675" on="0"/>
        <pt x="583" y="638" on="1"/>
        <pt x="381" y="657" on="1"/>
        <pt x="328" y="350" on="1"/>
        <pt x="267" y="59" on="1"/>
        <pt x="319" y="46" on="0"/>
      </contour>
    </TTGlyph>
    <TTGlyph name="Thorn" xMin="14" yMin="0" xMax="561" yMax="700">
      <contour>
        <pt x="331" y="174" on="1"/>
        <pt x="405" y="174" on="0"/>
        <pt x="481" y="306" on="0"/>
        <pt x="481" y="442" on="0"/>
        <pt x="431" y="521" on="0"/>
        <pt x="382" y="521" on="1"/>
        <pt x="255" y="511" on="1"/>
        <pt x="229" y="561" on="1"/>
        <pt x="400" y="563" on="1"/>
        <pt x="476" y="563" on="0"/>
        <pt x="561" y="467" on="0"/>
        <pt x="561" y="297" on="0"/>
        <pt x="416" y="142" on="0"/>
        <pt x="321" y="120" on="1"/>
        <pt x="301" y="120" on="0"/>
        <pt x="220" y="150" on="0"/>
        <pt x="218" y="151" on="1"/>
        <pt x="230" y="192" on="1"/>
        <pt x="288" y="174" on="0"/>
      </contour>
      <contour>
        <pt x="251" y="22" on="1"/>
        <pt x="245" y="0" on="1"/>
        <pt x="22" y="0" on="1"/>
        <pt x="14" y="26" on="1"/>
        <pt x="40" y="37" on="0"/>
        <pt x="98" y="57" on="1"/>
        <pt x="149" y="350" on="1"/>
        <pt x="210" y="642" on="1"/>
        <pt x="173" y="652" on="0"/>
        <pt x="126" y="678" on="1"/>
        <pt x="132" y="700" on="1"/>
        <pt x="355" y="700" on="1"/>
        <pt x="363" y="674" on="1"/>
        <pt x="312" y="653" on="0"/>
        <pt x="278" y="643" on="1"/>
        <pt x="228" y="350" on="1"/>
        <pt x="167" y="58" on="1"/>
        <pt x="210" y="44" on="0"/>
      </contour>
    </TTGlyph>
    <TTGlyph name="U" xMin="95" yMin="-12" xMax="758" yMax="700">
      <contour>
        <pt x="102" y="678" on="1"/>
        <pt x="108" y="700" on="1"/>
        <pt x="331" y="700" on="1"/>
        <pt x="339" y="674" on="1"/>
        <pt x="300" y="658" on="0"/>
        <pt x="258" y="644" on="1"/>
        <pt x="175" y="215" on="1"/>
        <pt x="170" y="188" on="0"/>
        <pt x="170" y="170" on="1"/>
        <pt x="170" y="110" on="0"/>
        <pt x="245" y="43" on="0"/>
        <pt x="412" y="43" on="0"/>
        <pt x="525" y="144" on="0"/>
        <pt x="539" y="216" on="1"/>
        <pt x="622" y="642" on="1"/>
        <pt x="588" y="654" on="0"/>
        <pt x="541" y="674" on="1"/>
        <pt x="549" y="700" on="1"/>
        <pt x="752" y="700" on="1"/>
        <pt x="758" y="678" on="1"/>
        <pt x="713" y="652" on="0"/>
        <pt x="677" y="641" on="1"/>
        <pt x="595" y="218" on="1"/>
        <pt x="575" y="115" on="0"/>
        <pt x="421" y="-12" on="0"/>
        <pt x="310" y="-12" on="1"/>
        <pt x="95" y="-12" on="0"/>
        <pt x="95" y="155" on="1"/>
        <pt x="95" y="186" on="0"/>
        <pt x="102" y="218" on="1"/>
        <pt x="184" y="643" on="1"/>
        <pt x="143" y="655" on="0"/>
      </contour>
    </TTGlyph>
    <TTGlyph name="Uacute" xMin="95" yMin="-12" xMax="758" yMax="946">
      <component glyphName="U" x="0" y="0" flags="0x1004"/>
      <component glyphName="acute" x="370" y="244" flags="0x1004"/>
    </TTGlyph>
    <TTGlyph name="Ucircumflex" xMin="95" yMin="-12" xMax="758" yMax="932">
      <contour>
        <pt x="102" y="678" on="1"/>
        <pt x="108" y="700" on="1"/>
        <pt x="331" y="700" on="1"/>
        <pt x="339" y="674" on="1"/>
        <pt x="300" y="658" on="0"/>
        <pt x="258" y="644" on="1"/>
        <pt x="175" y="215" on="1"/>
        <pt x="170" y="188" on="0"/>
        <pt x="170" y="170" on="1"/>
        <pt x="170" y="110" on="0"/>
        <pt x="245" y="43" on="0"/>
        <pt x="412" y="43" on="0"/>
        <pt x="525" y="144" on="0"/>
        <pt x="539" y="216" on="1"/>
        <pt x="622" y="642" on="1"/>
        <pt x="588" y="654" on="0"/>
        <pt x="541" y="674" on="1"/>
        <pt x="549" y="700" on="1"/>
        <pt x="752" y="700" on="1"/>
        <pt x="758" y="678" on="1"/>
        <pt x="713" y="652" on="0"/>
        <pt x="677" y="641" on="1"/>
        <pt x="595" y="218" on="1"/>
        <pt x="575" y="115" on="0"/>
        <pt x="421" y="-12" on="0"/>
        <pt x="310" y="-12" on="1"/>
        <pt x="95" y="-12" on="0"/>
        <pt x="95" y="155" on="1"/>
        <pt x="95" y="186" on="0"/>
        <pt x="102" y="218" on="1"/>
        <pt x="184" y="643" on="1"/>
        <pt x="143" y="655" on="0"/>
      </contour>
      <contour>
        <pt x="483" y="929" on="1"/>
        <pt x="507" y="932" on="1"/>
        <pt x="519" y="932" on="0"/>
        <pt x="531" y="929" on="1"/>
        <pt x="597" y="762" on="1"/>
        <pt x="578" y="748" on="1"/>
        <pt x="528" y="807" on="0"/>
        <pt x="499" y="852" on="1"/>
        <pt x="462" y="820" on="0"/>
        <pt x="360" y="748" on="1"/>
        <pt x="341" y="765" on="1"/>
        <pt x="402" y="824" on="0"/>
      </contour>
    </TTGlyph>
    <TTGlyph name="Udieresis" xMin="95" yMin="-12" xMax="758" yMax="903">
      <component glyphName="U" x="0" y="0" flags="0x1004"/>
      <component glyphName="dieresis" x="301" y="244" flags="0x1004"/>
    </TTGlyph>
    <TTGlyph name="Ugrave" xMin="95" yMin="-12" xMax="758" yMax="958">
      <contour>
        <pt x="102" y="678" on="1"/>
        <pt x="108" y="700" on="1"/>
        <pt x="331" y="700" on="1"/>
        <pt x="339" y="674" on="1"/>
        <pt x="300" y="658" on="0"/>
        <pt x="258" y="644" on="1"/>
        <pt x="175" y="215" on="1"/>
        <pt x="170" y="188" on="0"/>
        <pt x="170" y="170" on="1"/>
        <pt x="170" y="110" on="0"/>
        <pt x="245" y="43" on="0"/>
        <pt x="412" y="43" on="0"/>
        <pt x="525" y="144" on="0"/>
        <pt x="539" y="216" on="1"/>
        <pt x="622" y="642" on="1"/>
        <pt x="588" y="654" on="0"/>
        <pt x="541" y="674" on="1"/>
        <pt x="549" y="700" on="1"/>
        <pt x="752" y="700" on="1"/>
        <pt x="758" y="678" on="1"/>
        <pt x="713" y="652" on="0"/>
        <pt x="677" y="641" on="1"/>
        <pt x="595" y="218" on="1"/>
        <pt x="575" y="115" on="0"/>
        <pt x="421" y="-12" on="0"/>
        <pt x="310" y="-12" on="1"/>
        <pt x="95" y="-12" on="0"/>
        <pt x="95" y="155" on="1"/>
        <pt x="95" y="186" on="0"/>
        <pt x="102" y="218" on="1"/>
        <pt x="184" y="643" on="1"/>
        <pt x="143" y="655" on="0"/>
      </contour>
      <contour>
        <pt x="521" y="774" on="1"/>
        <pt x="506" y="758" on="1"/>
        <pt x="404" y="822" on="0"/>
        <pt x="351" y="884" on="1"/>
        <pt x="347" y="903" on="1"/>
        <pt x="350" y="917" on="0"/>
        <pt x="377" y="951" on="0"/>
        <pt x="387" y="958" on="1"/>
        <pt x="443" y="872" on="0"/>
        <pt x="502" y="798" on="1"/>
      </contour>
    </TTGlyph>
    <TTGlyph name="V" xMin="60" yMin="-8" xMax="617" yMax="707">
      <contour>
        <pt x="196" y="700" on="1"/>
        <pt x="284" y="89" on="1"/>
        <pt x="333" y="161" on="0"/>
        <pt x="462" y="425" on="0"/>
        <pt x="495" y="531" on="1"/>
        <pt x="505" y="655" on="1"/>
        <pt x="560" y="707" on="0"/>
        <pt x="596" y="707" on="1"/>
        <pt x="617" y="694" on="1"/>
        <pt x="571" y="554" on="0"/>
        <pt x="389" y="161" on="0"/>
        <pt x="283" y="0" on="1"/>
        <pt x="226" y="-8" on="1"/>
        <pt x="124" y="646" on="1"/>
        <pt x="88" y="659" on="0"/>
        <pt x="60" y="678" on="1"/>
        <pt x="66" y="700" on="1"/>
      </contour>
    </TTGlyph>
    <TTGlyph name="W" xMin="65" yMin="-8" xMax="893" yMax="707">
      <contour>
        <pt x="203" y="700" on="1"/>
        <pt x="246" y="102" on="1"/>
        <pt x="298" y="195" on="0"/>
        <pt x="417" y="446" on="0"/>
        <pt x="455" y="550" on="1"/>
        <pt x="444" y="655" on="1"/>
        <pt x="499" y="707" on="0"/>
        <pt x="533" y="707" on="1"/>
        <pt x="554" y="694" on="1"/>
        <pt x="539" y="650" on="0"/>
        <pt x="521" y="602" on="1"/>
        <pt x="525" y="566" on="0"/>
        <pt x="552" y="245" on="0"/>
        <pt x="566" y="102" on="1"/>
        <pt x="615" y="174" on="0"/>
        <pt x="738" y="425" on="0"/>
        <pt x="771" y="531" on="1"/>
        <pt x="781" y="655" on="1"/>
        <pt x="836" y="707" on="0"/>
        <pt x="872" y="707" on="1"/>
        <pt x="893" y="694" on="1"/>
        <pt x="847" y="554" on="0"/>
        <pt x="665" y="161" on="0"/>
        <pt x="559" y="0" on="1"/>
        <pt x="505" y="-8" on="1"/>
        <pt x="463" y="454" on="1"/>
        <pt x="358" y="197" on="0"/>
        <pt x="240" y="0" on="1"/>
        <pt x="182" y="-8" on="1"/>
        <pt x="129" y="646" on="1"/>
        <pt x="93" y="659" on="0"/>
        <pt x="65" y="678" on="1"/>
        <pt x="71" y="700" on="1"/>
      </contour>
    </TTGlyph>
    <TTGlyph name="X" xMin="0" yMin="0" xMax="674" yMax="705">
      <contour>
        <pt x="108" y="678" on="1"/>
        <pt x="114" y="700" on="1"/>
        <pt x="337" y="700" on="1"/>
        <pt x="345" y="674" on="1"/>
        <pt x="315" y="661" on="0"/>
        <pt x="266" y="645" on="1"/>
        <pt x="373" y="399" on="1"/>
        <pt x="522" y="587" on="1"/>
        <pt x="538" y="606" on="0"/>
        <pt x="553" y="693" on="1"/>
        <pt x="590" y="705" on="0"/>
        <pt x="655" y="705" on="0"/>
        <pt x="662" y="704" on="1"/>
        <pt x="674" y="692" on="1"/>
        <pt x="394" y="352" on="1"/>
        <pt x="523" y="56" on="1"/>
        <pt x="564" y="42" on="0"/>
        <pt x="602" y="22" on="1"/>
        <pt x="596" y="0" on="1"/>
        <pt x="373" y="0" on="1"/>
        <pt x="365" y="26" on="1"/>
        <pt x="397" y="39" on="0"/>
        <pt x="441" y="54" on="1"/>
        <pt x="337" y="293" on="1"/>
        <pt x="188" y="105" on="1"/>
        <pt x="166" y="76" on="0"/>
        <pt x="156" y="51" on="1"/>
        <pt x="152" y="0" on="1"/>
        <pt x="8" y="0" on="1"/>
        <pt x="0" y="26" on="1"/>
        <pt x="43" y="46" on="0"/>
        <pt x="83" y="61" on="1"/>
        <pt x="315" y="343" on="1"/>
        <pt x="183" y="645" on="1"/>
        <pt x="145" y="657" on="0"/>
      </contour>
    </TTGlyph>
    <TTGlyph name="Y" xMin="46" yMin="0" xMax="552" yMax="707">
      <contour>
        <pt x="369" y="22" on="1"/>
        <pt x="363" y="0" on="1"/>
        <pt x="100" y="0" on="1"/>
        <pt x="92" y="26" on="1"/>
        <pt x="145" y="44" on="0"/>
        <pt x="196" y="58" on="1"/>
        <pt x="233" y="271" on="1"/>
        <pt x="110" y="646" on="1"/>
        <pt x="74" y="659" on="0"/>
        <pt x="46" y="678" on="1"/>
        <pt x="52" y="700" on="1"/>
        <pt x="172" y="700" on="1"/>
        <pt x="289" y="309" on="1"/>
        <pt x="366" y="425" on="0"/>
        <pt x="426" y="534" on="1"/>
        <pt x="440" y="655" on="1"/>
        <pt x="495" y="707" on="0"/>
        <pt x="531" y="707" on="1"/>
        <pt x="552" y="694" on="1"/>
        <pt x="521" y="613" on="0"/>
        <pt x="382" y="367" on="0"/>
        <pt x="305" y="264" on="1"/>
        <pt x="266" y="59" on="1"/>
        <pt x="316" y="47" on="0"/>
      </contour>
    </TTGlyph>
    <TTGlyph name="Yacute" xMin="64" yMin="0" xMax="570" yMax="946">
      <contour>
        <pt x="387" y="22" on="1"/>
        <pt x="381" y="0" on="1"/>
        <pt x="118" y="0" on="1"/>
        <pt x="110" y="26" on="1"/>
        <pt x="163" y="44" on="0"/>
        <pt x="214" y="58" on="1"/>
        <pt x="251" y="271" on="1"/>
        <pt x="128" y="646" on="1"/>
        <pt x="92" y="659" on="0"/>
        <pt x="64" y="678" on="1"/>
        <pt x="70" y="700" on="1"/>
        <pt x="190" y="700" on="1"/>
        <pt x="307" y="309" on="1"/>
        <pt x="384" y="425" on="0"/>
        <pt x="444" y="534" on="1"/>
        <pt x="458" y="655" on="1"/>
        <pt x="513" y="707" on="0"/>
        <pt x="549" y="707" on="1"/>
        <pt x="570" y="694" on="1"/>
        <pt x="539" y="613" on="0"/>
        <pt x="400" y="367" on="0"/>
        <pt x="323" y="264" on="1"/>
        <pt x="284" y="59" on="1"/>
        <pt x="334" y="47" on="0"/>
      </contour>
      <contour>
        <pt x="335" y="746" on="1"/>
        <pt x="320" y="762" on="1"/>
        <pt x="390" y="850" on="0"/>
        <pt x="454" y="946" on="1"/>
        <pt x="464" y="939" on="0"/>
        <pt x="491" y="905" on="0"/>
        <pt x="494" y="891" on="1"/>
        <pt x="490" y="872" on="1"/>
        <pt x="437" y="810" on="0"/>
      </contour>
    </TTGlyph>
    <TTGlyph name="Ydieresis" xMin="64" yMin="0" xMax="570" yMax="903">
      <contour>
        <pt x="387" y="22" on="1"/>
        <pt x="381" y="0" on="1"/>
        <pt x="118" y="0" on="1"/>
        <pt x="110" y="26" on="1"/>
        <pt x="163" y="44" on="0"/>
        <pt x="214" y="58" on="1"/>
        <pt x="251" y="271" on="1"/>
        <pt x="128" y="646" on="1"/>
        <pt x="92" y="659" on="0"/>
        <pt x="64" y="678" on="1"/>
        <pt x="70" y="700" on="1"/>
        <pt x="190" y="700" on="1"/>
        <pt x="307" y="309" on="1"/>
        <pt x="384" y="425" on="0"/>
        <pt x="444" y="534" on="1"/>
        <pt x="458" y="655" on="1"/>
        <pt x="513" y="707" on="0"/>
        <pt x="549" y="707" on="1"/>
        <pt x="570" y="694" on="1"/>
        <pt x="539" y="613" on="0"/>
        <pt x="400" y="367" on="0"/>
        <pt x="323" y="264" on="1"/>
        <pt x="284" y="59" on="1"/>
        <pt x="334" y="47" on="0"/>
      </contour>
      <contour>
        <pt x="465" y="903" on="1"/>
        <pt x="490" y="903" on="0"/>
        <pt x="490" y="869" on="1"/>
        <pt x="490" y="843" on="0"/>
        <pt x="472" y="797" on="0"/>
        <pt x="471" y="797" on="1"/>
        <pt x="441" y="788" on="0"/>
        <pt x="422" y="788" on="1"/>
        <pt x="396" y="788" on="0"/>
        <pt x="396" y="820" on="1"/>
        <pt x="396" y="845" on="0"/>
        <pt x="410" y="884" on="1"/>
        <pt x="415" y="896" on="1"/>
        <pt x="447" y="903" on="0"/>
      </contour>
      <contour>
        <pt x="329" y="903" on="1"/>
        <pt x="354" y="903" on="0"/>
        <pt x="354" y="869" on="1"/>
        <pt x="354" y="843" on="0"/>
        <pt x="336" y="797" on="0"/>
        <pt x="335" y="797" on="1"/>
        <pt x="305" y="788" on="0"/>
        <pt x="286" y="788" on="1"/>
        <pt x="260" y="788" on="0"/>
        <pt x="260" y="820" on="1"/>
        <pt x="260" y="845" on="0"/>
        <pt x="274" y="884" on="1"/>
        <pt x="279" y="896" on="1"/>
        <pt x="311" y="903" on="0"/>
      </contour>
    </TTGlyph>
    <TTGlyph name="Z" xMin="-13" yMin="-12" xMax="622" yMax="713">
      <contour>
        <pt x="-13" y="8" on="1"/>
        <pt x="483" y="643" on="1"/>
        <pt x="354" y="640" on="0"/>
        <pt x="164" y="640" on="1"/>
        <pt x="142" y="667" on="0"/>
        <pt x="133" y="696" on="1"/>
        <pt x="139" y="713" on="1"/>
        <pt x="233" y="698" on="0"/>
        <pt x="578" y="696" on="1"/>
        <pt x="604" y="712" on="1"/>
        <pt x="622" y="695" on="1"/>
        <pt x="116" y="55" on="1"/>
        <pt x="430" y="59" on="0"/>
        <pt x="516" y="72" on="1"/>
        <pt x="522" y="55" on="1"/>
        <pt x="513" y="25" on="0"/>
        <pt x="491" y="-4" on="1"/>
        <pt x="302" y="6" on="0"/>
        <pt x="41" y="8" on="1"/>
        <pt x="-1" y="-12" on="1"/>
      </contour>
    </TTGlyph>
    <TTGlyph name="Zcaron" xMin="-13" yMin="-12" xMax="622" yMax="947">
      <contour>
        <pt x="-13" y="8" on="1"/>
        <pt x="483" y="643" on="1"/>
        <pt x="354" y="640" on="0"/>
        <pt x="164" y="640" on="1"/>
        <pt x="142" y="667" on="0"/>
        <pt x="133" y="696" on="1"/>
        <pt x="139" y="713" on="1"/>
        <pt x="233" y="698" on="0"/>
        <pt x="578" y="696" on="1"/>
        <pt x="604" y="712" on="1"/>
        <pt x="622" y="695" on="1"/>
        <pt x="116" y="55" on="1"/>
        <pt x="430" y="59" on="0"/>
        <pt x="516" y="72" on="1"/>
        <pt x="522" y="55" on="1"/>
        <pt x="513" y="25" on="0"/>
        <pt x="491" y="-4" on="1"/>
        <pt x="302" y="6" on="0"/>
        <pt x="41" y="8" on="1"/>
        <pt x="-1" y="-12" on="1"/>
      </contour>
      <contour>
        <pt x="373" y="766" on="1"/>
        <pt x="307" y="933" on="1"/>
        <pt x="326" y="947" on="1"/>
        <pt x="376" y="888" on="0"/>
        <pt x="405" y="843" on="1"/>
        <pt x="442" y="875" on="0"/>
        <pt x="544" y="947" on="1"/>
        <pt x="563" y="930" on="1"/>
        <pt x="502" y="871" on="0"/>
        <pt x="421" y="766" on="1"/>
        <pt x="409" y="763" on="0"/>
        <pt x="385" y="763" on="0"/>
      </contour>
    </TTGlyph>
    <TTGlyph name="a" xMin="35" yMin="-12" xMax="458" yMax="467">
      <contour>
        <pt x="318" y="-12" on="1"/>
        <pt x="301" y="-12" on="0"/>
        <pt x="301" y="23" on="1"/>
        <pt x="301" y="80" on="0"/>
        <pt x="324" y="213" on="1"/>
        <pt x="246" y="85" on="0"/>
        <pt x="141" y="-12" on="0"/>
        <pt x="97" y="-12" on="1"/>
        <pt x="68" y="-12" on="0"/>
        <pt x="35" y="40" on="0"/>
        <pt x="35" y="82" on="1"/>
        <pt x="35" y="174" on="0"/>
        <pt x="87" y="319" on="0"/>
        <pt x="130" y="362" on="1"/>
        <pt x="209" y="442" on="0"/>
        <pt x="308" y="467" on="1"/>
        <pt x="328" y="467" on="0"/>
        <pt x="403" y="438" on="0"/>
        <pt x="407" y="437" on="1"/>
        <pt x="417" y="461" on="1"/>
        <pt x="439" y="461" on="0"/>
        <pt x="458" y="457" on="1"/>
        <pt x="422" y="378" on="0"/>
        <pt x="358" y="115" on="0"/>
        <pt x="358" y="53" on="1"/>
        <pt x="422" y="46" on="0"/>
        <pt x="448" y="26" on="1"/>
        <pt x="442" y="7" on="1"/>
      </contour>
      <contour>
        <pt x="102" y="80" on="1"/>
        <pt x="102" y="44" on="0"/>
        <pt x="127" y="44" on="1"/>
        <pt x="183" y="44" on="0"/>
        <pt x="341" y="308" on="1"/>
        <pt x="359" y="401" on="1"/>
        <pt x="309" y="410" on="0"/>
        <pt x="276" y="410" on="1"/>
        <pt x="220" y="410" on="0"/>
        <pt x="179" y="356" on="1"/>
        <pt x="102" y="256" on="0"/>
      </contour>
    </TTGlyph>
    <TTGlyph name="aacute" xMin="35" yMin="-12" xMax="458" yMax="702">
      <component glyphName="a" x="0" y="0" flags="0x1004"/>
      <component glyphName="acute" x="223" y="0" flags="0x1004"/>
    </TTGlyph>
    <TTGlyph name="acircumflex" xMin="35" yMin="-12" xMax="458" yMax="688">
      <contour>
        <pt x="318" y="-12" on="1"/>
        <pt x="301" y="-12" on="0"/>
        <pt x="301" y="23" on="1"/>
        <pt x="301" y="80" on="0"/>
        <pt x="324" y="213" on="1"/>
        <pt x="246" y="85" on="0"/>
        <pt x="141" y="-12" on="0"/>
        <pt x="97" y="-12" on="1"/>
        <pt x="68" y="-12" on="0"/>
        <pt x="35" y="40" on="0"/>
        <pt x="35" y="82" on="1"/>
        <pt x="35" y="174" on="0"/>
        <pt x="87" y="319" on="0"/>
        <pt x="130" y="362" on="1"/>
        <pt x="209" y="442" on="0"/>
        <pt x="308" y="467" on="1"/>
        <pt x="328" y="467" on="0"/>
        <pt x="403" y="438" on="0"/>
        <pt x="407" y="437" on="1"/>
        <pt x="417" y="461" on="1"/>
        <pt x="439" y="461" on="0"/>
        <pt x="458" y="457" on="1"/>
        <pt x="422" y="378" on="0"/>
        <pt x="358" y="115" on="0"/>
        <pt x="358" y="53" on="1"/>
        <pt x="422" y="46" on="0"/>
        <pt x="448" y="26" on="1"/>
        <pt x="442" y="7" on="1"/>
      </contour>
      <contour>
        <pt x="102" y="80" on="1"/>
        <pt x="102" y="44" on="0"/>
        <pt x="127" y="44" on="1"/>
        <pt x="183" y="44" on="0"/>
        <pt x="341" y="308" on="1"/>
        <pt x="359" y="401" on="1"/>
        <pt x="309" y="410" on="0"/>
        <pt x="276" y="410" on="1"/>
        <pt x="220" y="410" on="0"/>
        <pt x="179" y="356" on="1"/>
        <pt x="102" y="256" on="0"/>
      </contour>
      <contour>
        <pt x="337" y="685" on="1"/>
        <pt x="361" y="688" on="1"/>
        <pt x="373" y="688" on="0"/>
        <pt x="385" y="685" on="1"/>
        <pt x="451" y="518" on="1"/>
        <pt x="432" y="504" on="1"/>
        <pt x="382" y="563" on="0"/>
        <pt x="353" y="608" on="1"/>
        <pt x="316" y="576" on="0"/>
        <pt x="214" y="504" on="1"/>
        <pt x="195" y="521" on="1"/>
        <pt x="256" y="580" on="0"/>
      </contour>
    </TTGlyph>
    <TTGlyph name="acute" xMin="50" yMin="502" xMax="224" yMax="702">
      <contour>
        <pt x="65" y="502" on="1"/>
        <pt x="50" y="518" on="1"/>
        <pt x="120" y="606" on="0"/>
        <pt x="184" y="702" on="1"/>
        <pt x="194" y="695" on="0"/>
        <pt x="221" y="661" on="0"/>
        <pt x="224" y="647" on="1"/>
        <pt x="220" y="628" on="1"/>
        <pt x="167" y="566" on="0"/>
      </contour>
    </TTGlyph>
    <TTGlyph name="adieresis" xMin="35" yMin="-12" xMax="458" yMax="659">
      <component glyphName="a" x="0" y="0" flags="0x1004"/>
      <component glyphName="dieresis" x="153" y="0" flags="0x1004"/>
    </TTGlyph>
    <TTGlyph name="ae" xMin="40" yMin="-12" xMax="599" yMax="468">
      <contour>
        <pt x="311" y="249" on="1"/>
        <pt x="309" y="180" on="1"/>
        <pt x="240" y="72" on="0"/>
        <pt x="143" y="-12" on="0"/>
        <pt x="73" y="-12" on="0"/>
        <pt x="40" y="40" on="0"/>
        <pt x="40" y="82" on="1"/>
        <pt x="40" y="174" on="0"/>
        <pt x="92" y="319" on="0"/>
        <pt x="135" y="362" on="1"/>
        <pt x="214" y="442" on="0"/>
        <pt x="313" y="467" on="1"/>
        <pt x="333" y="467" on="0"/>
        <pt x="414" y="437" on="0"/>
        <pt x="416" y="436" on="1"/>
        <pt x="401" y="395" on="1"/>
        <pt x="311" y="410" on="0"/>
        <pt x="281" y="410" on="1"/>
        <pt x="225" y="410" on="0"/>
        <pt x="184" y="356" on="1"/>
        <pt x="107" y="256" on="0"/>
        <pt x="107" y="80" on="1"/>
        <pt x="107" y="44" on="0"/>
        <pt x="132" y="44" on="1"/>
        <pt x="182" y="44" on="0"/>
      </contour>
      <contour>
        <pt x="441" y="223" on="1"/>
        <pt x="330" y="212" on="1"/>
        <pt x="323" y="170" on="0"/>
        <pt x="323" y="120" on="1"/>
        <pt x="323" y="44" on="0"/>
        <pt x="379" y="44" on="1"/>
        <pt x="414" y="44" on="0"/>
        <pt x="498" y="105" on="0"/>
        <pt x="528" y="149" on="1"/>
        <pt x="550" y="127" on="1"/>
        <pt x="458" y="-12" on="0"/>
        <pt x="355" y="-12" on="1"/>
        <pt x="308" y="-12" on="0"/>
        <pt x="256" y="62" on="0"/>
        <pt x="256" y="199" on="0"/>
        <pt x="298" y="324" on="0"/>
        <pt x="359" y="398" on="0"/>
        <pt x="396" y="424" on="1"/>
        <pt x="462" y="468" on="0"/>
        <pt x="514" y="468" on="1"/>
        <pt x="543" y="468" on="0"/>
        <pt x="599" y="431" on="0"/>
        <pt x="599" y="407" on="1"/>
        <pt x="599" y="337" on="0"/>
        <pt x="508" y="230" on="0"/>
      </contour>
      <contour>
        <pt x="533" y="400" on="1"/>
        <pt x="533" y="409" on="0"/>
        <pt x="511" y="416" on="0"/>
        <pt x="479" y="416" on="1"/>
        <pt x="429" y="416" on="0"/>
        <pt x="358" y="328" on="0"/>
        <pt x="339" y="256" on="1"/>
        <pt x="407" y="256" on="1"/>
        <pt x="462" y="256" on="0"/>
        <pt x="533" y="342" on="0"/>
      </contour>
    </TTGlyph>
    <TTGlyph name="agrave" xMin="35" yMin="-12" xMax="458" yMax="714">
      <contour>
        <pt x="318" y="-12" on="1"/>
        <pt x="301" y="-12" on="0"/>
        <pt x="301" y="23" on="1"/>
        <pt x="301" y="80" on="0"/>
        <pt x="324" y="213" on="1"/>
        <pt x="246" y="85" on="0"/>
        <pt x="141" y="-12" on="0"/>
        <pt x="97" y="-12" on="1"/>
        <pt x="68" y="-12" on="0"/>
        <pt x="35" y="40" on="0"/>
        <pt x="35" y="82" on="1"/>
        <pt x="35" y="174" on="0"/>
        <pt x="87" y="319" on="0"/>
        <pt x="130" y="362" on="1"/>
        <pt x="209" y="442" on="0"/>
        <pt x="308" y="467" on="1"/>
        <pt x="328" y="467" on="0"/>
        <pt x="403" y="438" on="0"/>
        <pt x="407" y="437" on="1"/>
        <pt x="417" y="461" on="1"/>
        <pt x="439" y="461" on="0"/>
        <pt x="458" y="457" on="1"/>
        <pt x="422" y="378" on="0"/>
        <pt x="358" y="115" on="0"/>
        <pt x="358" y="53" on="1"/>
        <pt x="422" y="46" on="0"/>
        <pt x="448" y="26" on="1"/>
        <pt x="442" y="7" on="1"/>
      </contour>
      <contour>
        <pt x="102" y="80" on="1"/>
        <pt x="102" y="44" on="0"/>
        <pt x="127" y="44" on="1"/>
        <pt x="183" y="44" on="0"/>
        <pt x="341" y="308" on="1"/>
        <pt x="359" y="401" on="1"/>
        <pt x="309" y="410" on="0"/>
        <pt x="276" y="410" on="1"/>
        <pt x="220" y="410" on="0"/>
        <pt x="179" y="356" on="1"/>
        <pt x="102" y="256" on="0"/>
      </contour>
      <contour>
        <pt x="374" y="530" on="1"/>
        <pt x="359" y="514" on="1"/>
        <pt x="257" y="578" on="0"/>
        <pt x="204" y="640" on="1"/>
        <pt x="200" y="659" on="1"/>
        <pt x="203" y="673" on="0"/>
        <pt x="230" y="707" on="0"/>
        <pt x="240" y="714" on="1"/>
        <pt x="296" y="628" on="0"/>
        <pt x="354" y="554" on="1"/>
      </contour>
    </TTGlyph>
    <TTGlyph name="ampersand" xMin="20" yMin="-14" xMax="539" yMax="681">
      <contour>
        <pt x="331" y="620" on="0"/>
        <pt x="252" y="532" on="0"/>
        <pt x="252" y="415" on="0"/>
        <pt x="327" y="231" on="0"/>
        <pt x="385" y="139" on="1"/>
        <pt x="454" y="211" on="0"/>
        <pt x="472" y="300" on="1"/>
        <pt x="445" y="403" on="1"/>
        <pt x="490" y="447" on="0"/>
        <pt x="520" y="447" on="1"/>
        <pt x="538" y="437" on="1"/>
        <pt x="538" y="231" on="0"/>
        <pt x="409" y="102" on="1"/>
        <pt x="441" y="57" on="0"/>
        <pt x="444" y="53" on="1"/>
        <pt x="468" y="51" on="0"/>
        <pt x="528" y="34" on="0"/>
        <pt x="539" y="26" on="1"/>
        <pt x="533" y="7" on="1"/>
        <pt x="409" y="-12" on="1"/>
        <pt x="398" y="-12" on="0"/>
        <pt x="353" y="54" on="1"/>
        <pt x="258" y="-14" on="0"/>
        <pt x="95" y="-14" on="0"/>
        <pt x="20" y="58" on="0"/>
        <pt x="20" y="186" on="0"/>
        <pt x="114" y="335" on="0"/>
        <pt x="192" y="395" on="1"/>
        <pt x="185" y="427" on="0"/>
        <pt x="185" y="461" on="1"/>
        <pt x="185" y="519" on="0"/>
        <pt x="268" y="619" on="0"/>
        <pt x="380" y="675" on="0"/>
        <pt x="435" y="681" on="1"/>
        <pt x="454" y="681" on="0"/>
        <pt x="534" y="653" on="1"/>
        <pt x="518" y="604" on="1"/>
        <pt x="434" y="620" on="0"/>
        <pt x="401" y="620" on="1"/>
      </contour>
      <contour>
        <pt x="329" y="90" on="1"/>
        <pt x="241" y="231" on="0"/>
        <pt x="205" y="347" on="1"/>
        <pt x="157" y="301" on="0"/>
        <pt x="96" y="178" on="0"/>
        <pt x="96" y="131" on="1"/>
        <pt x="96" y="34" on="0"/>
        <pt x="185" y="34" on="1"/>
        <pt x="253" y="34" on="0"/>
      </contour>
    </TTGlyph>
    <TTGlyph name="apple" xMin="100" yMin="-114" xMax="823" yMax="608">
      <contour>
        <pt x="589" y="-89" on="1"/>
        <pt x="566" y="-88" on="1"/>
        <pt x="552" y="-88" on="0"/>
        <pt x="517" y="-112" on="0"/>
        <pt x="508" y="-112" on="1"/>
        <pt x="462" y="-102" on="1"/>
        <pt x="454" y="-102" on="0"/>
        <pt x="423" y="-114" on="0"/>
        <pt x="406" y="-114" on="0"/>
        <pt x="374" y="-89" on="0"/>
        <pt x="361" y="-89" on="1"/>
        <pt x="337" y="-91" on="1"/>
        <pt x="322" y="-91" on="0"/>
        <pt x="304" y="-74" on="1"/>
        <pt x="286" y="-55" on="1"/>
        <pt x="274" y="-49" on="0"/>
        <pt x="248" y="-47" on="0"/>
        <pt x="230" y="-36" on="0"/>
        <pt x="216" y="-1" on="0"/>
        <pt x="205" y="8" on="0"/>
        <pt x="177" y="19" on="0"/>
        <pt x="171" y="28" on="1"/>
        <pt x="166" y="37" on="0"/>
        <pt x="162" y="66" on="0"/>
        <pt x="154" y="79" on="0"/>
        <pt x="144" y="86" on="1"/>
        <pt x="122" y="104" on="0"/>
        <pt x="122" y="124" on="1"/>
        <pt x="125" y="149" on="1"/>
        <pt x="125" y="158" on="0"/>
        <pt x="100" y="193" on="0"/>
        <pt x="100" y="211" on="0"/>
        <pt x="112" y="240" on="0"/>
        <pt x="112" y="257" on="0"/>
        <pt x="100" y="283" on="0"/>
        <pt x="100" y="301" on="0"/>
        <pt x="125" y="342" on="0"/>
        <pt x="125" y="351" on="1"/>
        <pt x="124" y="376" on="1"/>
        <pt x="124" y="391" on="0"/>
        <pt x="157" y="420" on="0"/>
        <pt x="162" y="430" on="0"/>
        <pt x="166" y="462" on="0"/>
        <pt x="174" y="474" on="0"/>
        <pt x="205" y="486" on="0"/>
        <pt x="215" y="496" on="0"/>
        <pt x="229" y="527" on="0"/>
        <pt x="242" y="538" on="0"/>
        <pt x="280" y="546" on="0"/>
        <pt x="291" y="552" on="0"/>
        <pt x="321" y="586" on="0"/>
        <pt x="335" y="587" on="1"/>
        <pt x="361" y="585" on="1"/>
        <pt x="374" y="585" on="0"/>
        <pt x="405" y="608" on="0"/>
        <pt x="416" y="608" on="1"/>
        <pt x="460" y="596" on="1"/>
        <pt x="505" y="608" on="1"/>
        <pt x="518" y="608" on="0"/>
        <pt x="550" y="583" on="0"/>
        <pt x="562" y="583" on="1"/>
        <pt x="590" y="586" on="1"/>
        <pt x="606" y="586" on="0"/>
        <pt x="632" y="553" on="0"/>
        <pt x="645" y="546" on="0"/>
        <pt x="675" y="540" on="0"/>
        <pt x="690" y="530" on="0"/>
        <pt x="700" y="502" on="0"/>
        <pt x="711" y="492" on="0"/>
        <pt x="751" y="471" on="0"/>
        <pt x="760" y="455" on="0"/>
        <pt x="761" y="423" on="0"/>
        <pt x="766" y="414" on="0"/>
        <pt x="800" y="385" on="0"/>
        <pt x="800" y="369" on="1"/>
        <pt x="799" y="344" on="1"/>
        <pt x="799" y="331" on="0"/>
        <pt x="823" y="294" on="0"/>
        <pt x="823" y="276" on="0"/>
        <pt x="812" y="250" on="0"/>
        <pt x="812" y="236" on="0"/>
        <pt x="823" y="207" on="0"/>
        <pt x="822" y="191" on="0"/>
        <pt x="798" y="166" on="0"/>
        <pt x="798" y="152" on="1"/>
        <pt x="800" y="120" on="1"/>
        <pt x="800" y="104" on="0"/>
        <pt x="768" y="78" on="0"/>
        <pt x="763" y="68" on="0"/>
        <pt x="754" y="30" on="0"/>
        <pt x="743" y="17" on="0"/>
        <pt x="718" y="6" on="0"/>
        <pt x="708" y="-4" on="0"/>
        <pt x="690" y="-37" on="0"/>
        <pt x="676" y="-47" on="0"/>
        <pt x="641" y="-56" on="0"/>
        <pt x="631" y="-62" on="0"/>
        <pt x="604" y="-89" on="0"/>
      </contour>
      <contour>
        <pt x="462" y="-6" on="1"/>
        <pt x="495" y="-13" on="1"/>
        <pt x="501" y="-13" on="0"/>
        <pt x="512" y="-6" on="1"/>
        <pt x="527" y="4" on="0"/>
        <pt x="539" y="4" on="1"/>
        <pt x="554" y="3" on="1"/>
        <pt x="566" y="3" on="0"/>
        <pt x="584" y="23" on="0"/>
        <pt x="591" y="27" on="0"/>
        <pt x="617" y="34" on="0"/>
        <pt x="628" y="42" on="0"/>
        <pt x="641" y="65" on="0"/>
        <pt x="648" y="72" on="0"/>
        <pt x="666" y="80" on="0"/>
        <pt x="674" y="89" on="0"/>
        <pt x="680" y="117" on="0"/>
        <pt x="685" y="125" on="0"/>
        <pt x="707" y="143" on="0"/>
        <pt x="707" y="157" on="1"/>
        <pt x="706" y="177" on="1"/>
        <pt x="706" y="188" on="0"/>
        <pt x="723" y="207" on="0"/>
        <pt x="724" y="213" on="1"/>
        <pt x="716" y="245" on="1"/>
        <pt x="724" y="273" on="1"/>
        <pt x="724" y="281" on="0"/>
        <pt x="706" y="309" on="0"/>
        <pt x="706" y="318" on="1"/>
        <pt x="707" y="335" on="1"/>
        <pt x="707" y="347" on="0"/>
        <pt x="683" y="367" on="0"/>
        <pt x="679" y="375" on="0"/>
        <pt x="678" y="398" on="0"/>
        <pt x="672" y="409" on="0"/>
        <pt x="643" y="424" on="0"/>
        <pt x="635" y="432" on="0"/>
        <pt x="627" y="452" on="0"/>
        <pt x="617" y="460" on="0"/>
        <pt x="595" y="464" on="0"/>
        <pt x="585" y="469" on="0"/>
        <pt x="567" y="493" on="0"/>
        <pt x="555" y="493" on="1"/>
        <pt x="535" y="491" on="1"/>
        <pt x="526" y="491" on="0"/>
        <pt x="504" y="509" on="0"/>
        <pt x="494" y="509" on="1"/>
        <pt x="461" y="500" on="1"/>
        <pt x="429" y="509" on="1"/>
        <pt x="421" y="509" on="0"/>
        <pt x="397" y="492" on="0"/>
        <pt x="387" y="492" on="1"/>
        <pt x="370" y="493" on="1"/>
        <pt x="359" y="493" on="0"/>
        <pt x="338" y="468" on="0"/>
        <pt x="329" y="463" on="0"/>
        <pt x="303" y="458" on="0"/>
        <pt x="293" y="450" on="0"/>
        <pt x="283" y="428" on="0"/>
        <pt x="275" y="420" on="0"/>
        <pt x="254" y="412" on="0"/>
        <pt x="250" y="407" on="1"/>
        <pt x="248" y="403" on="0"/>
        <pt x="244" y="380" on="0"/>
        <pt x="240" y="372" on="0"/>
        <pt x="216" y="351" on="0"/>
        <pt x="216" y="340" on="1"/>
        <pt x="217" y="324" on="1"/>
        <pt x="217" y="316" on="0"/>
        <pt x="200" y="286" on="0"/>
        <pt x="200" y="278" on="1"/>
        <pt x="208" y="248" on="1"/>
        <pt x="200" y="215" on="1"/>
        <pt x="200" y="207" on="0"/>
        <pt x="217" y="182" on="0"/>
        <pt x="217" y="174" on="1"/>
        <pt x="215" y="158" on="1"/>
        <pt x="215" y="147" on="0"/>
        <pt x="240" y="124" on="0"/>
        <pt x="244" y="116" on="0"/>
        <pt x="247" y="95" on="0"/>
        <pt x="255" y="82" on="0"/>
        <pt x="275" y="74" on="0"/>
        <pt x="283" y="67" on="0"/>
        <pt x="294" y="41" on="0"/>
        <pt x="306" y="33" on="0"/>
        <pt x="325" y="33" on="0"/>
        <pt x="337" y="27" on="0"/>
        <pt x="360" y="2" on="0"/>
        <pt x="371" y="2" on="1"/>
        <pt x="386" y="3" on="1"/>
        <pt x="396" y="3" on="0"/>
        <pt x="420" y="-14" on="0"/>
        <pt x="426" y="-15" on="1"/>
      </contour>
      <contour>
        <pt x="392" y="417" on="0"/>
        <pt x="532" y="417" on="0"/>
        <pt x="632" y="318" on="0"/>
        <pt x="632" y="176" on="0"/>
        <pt x="532" y="77" on="0"/>
        <pt x="392" y="77" on="0"/>
        <pt x="292" y="176" on="0"/>
        <pt x="292" y="318" on="0"/>
      </contour>
      <contour>
        <pt x="505" y="292" on="1"/>
        <pt x="557" y="292" on="1"/>
        <pt x="557" y="360" on="1"/>
        <pt x="366" y="360" on="1"/>
        <pt x="366" y="292" on="1"/>
        <pt x="420" y="292" on="1"/>
        <pt x="420" y="117" on="1"/>
        <pt x="505" y="117" on="1"/>
      </contour>
    </TTGlyph>
    <TTGlyph name="approxequal" xMin="71" yMin="155" xMax="461" yMax="399">
      <contour>
        <pt x="447" y="399" on="1"/>
        <pt x="461" y="359" on="1"/>
        <pt x="414" y="313" on="0"/>
        <pt x="354" y="313" on="1"/>
        <pt x="325" y="313" on="0"/>
        <pt x="216" y="338" on="0"/>
        <pt x="147" y="338" on="0"/>
        <pt x="114" y="313" on="1"/>
        <pt x="99" y="353" on="1"/>
        <pt x="144" y="397" on="0"/>
        <pt x="205" y="397" on="1"/>
        <pt x="234" y="397" on="0"/>
        <pt x="343" y="372" on="0"/>
        <pt x="410" y="372" on="0"/>
      </contour>
      <contour>
        <pt x="420" y="241" on="1"/>
        <pt x="434" y="201" on="1"/>
        <pt x="385" y="155" on="0"/>
        <pt x="326" y="155" on="1"/>
        <pt x="297" y="155" on="0"/>
        <pt x="188" y="180" on="0"/>
        <pt x="121" y="180" on="0"/>
        <pt x="86" y="155" on="1"/>
        <pt x="71" y="195" on="1"/>
        <pt x="116" y="239" on="0"/>
        <pt x="177" y="239" on="1"/>
        <pt x="206" y="239" on="0"/>
        <pt x="315" y="214" on="0"/>
        <pt x="381" y="214" on="0"/>
      </contour>
    </TTGlyph>
    <TTGlyph name="aring" xMin="35" yMin="-12" xMax="458" yMax="679">
      <component glyphName="a" x="0" y="0" flags="0x1004"/>
      <component glyphName="ring" x="154" y="0" flags="0x1004"/>
    </TTGlyph>
    <TTGlyph name="asciicircum" xMin="78" yMin="225" xMax="421" yMax="512">
      <contour>
        <pt x="135" y="225" on="1"/>
        <pt x="78" y="225" on="1"/>
        <pt x="273" y="512" on="1"/>
        <pt x="327" y="512" on="1"/>
        <pt x="421" y="225" on="1"/>
        <pt x="364" y="225" on="1"/>
        <pt x="290" y="457" on="1"/>
      </contour>
    </TTGlyph>
    <TTGlyph name="asciitilde" xMin="85" yMin="238" xMax="448" yMax="321">
      <contour>
        <pt x="434" y="321" on="1"/>
        <pt x="448" y="284" on="1"/>
        <pt x="401" y="238" on="0"/>
        <pt x="341" y="238" on="1"/>
        <pt x="312" y="238" on="0"/>
        <pt x="202" y="263" on="0"/>
        <pt x="134" y="263" on="0"/>
        <pt x="101" y="238" on="1"/>
        <pt x="85" y="275" on="1"/>
        <pt x="130" y="319" on="0"/>
        <pt x="191" y="319" on="1"/>
        <pt x="220" y="319" on="0"/>
        <pt x="329" y="294" on="0"/>
        <pt x="395" y="294" on="0"/>
      </contour>
    </TTGlyph>
    <TTGlyph name="asterisk" xMin="95" yMin="352" xMax="449" yMax="712">
      <contour>
        <pt x="328" y="690" on="1"/>
        <pt x="328" y="665" on="0"/>
        <pt x="274" y="551" on="1"/>
        <pt x="259" y="551" on="1"/>
        <pt x="244" y="624" on="0"/>
        <pt x="244" y="679" on="1"/>
        <pt x="244" y="695" on="0"/>
        <pt x="279" y="712" on="0"/>
        <pt x="328" y="712" on="0"/>
      </contour>
      <contour>
        <pt x="121" y="645" on="1"/>
        <pt x="149" y="645" on="0"/>
        <pt x="233" y="561" on="1"/>
        <pt x="245" y="549" on="1"/>
        <pt x="240" y="535" on="1"/>
        <pt x="167" y="543" on="0"/>
        <pt x="114" y="560" on="1"/>
        <pt x="95" y="565" on="0"/>
        <pt x="95" y="588" on="1"/>
        <pt x="95" y="645" on="0"/>
      </contour>
      <contour>
        <pt x="406" y="514" on="1"/>
        <pt x="384" y="514" on="0"/>
        <pt x="285" y="523" on="1"/>
        <pt x="281" y="538" on="1"/>
        <pt x="302" y="553" on="0"/>
        <pt x="385" y="594" on="0"/>
        <pt x="404" y="594" on="1"/>
        <pt x="429" y="594" on="0"/>
        <pt x="446" y="551" on="1"/>
        <pt x="449" y="542" on="0"/>
        <pt x="449" y="531" on="1"/>
        <pt x="449" y="514" on="0"/>
      </contour>
      <contour>
        <pt x="113" y="440" on="1"/>
        <pt x="123" y="455" on="0"/>
        <pt x="238" y="521" on="1"/>
        <pt x="250" y="512" on="1"/>
        <pt x="219" y="445" on="0"/>
        <pt x="187" y="399" on="1"/>
        <pt x="180" y="389" on="0"/>
        <pt x="146" y="389" on="0"/>
        <pt x="108" y="417" on="0"/>
        <pt x="108" y="434" on="0"/>
      </contour>
      <contour>
        <pt x="338" y="361" on="1"/>
        <pt x="324" y="352" on="0"/>
        <pt x="307" y="352" on="0"/>
        <pt x="293" y="371" on="0"/>
        <pt x="262" y="505" on="1"/>
        <pt x="275" y="514" on="1"/>
        <pt x="327" y="465" on="0"/>
        <pt x="363" y="419" on="1"/>
        <pt x="367" y="414" on="0"/>
        <pt x="367" y="406" on="1"/>
        <pt x="367" y="383" on="0"/>
      </contour>
    </TTGlyph>
    <TTGlyph name="at" xMin="50" yMin="-172" xMax="832" yMax="592">
      <contour>
        <pt x="662" y="592" on="0"/>
        <pt x="832" y="437" on="0"/>
        <pt x="832" y="172" on="0"/>
        <pt x="678" y="-12" on="0"/>
        <pt x="562" y="-12" on="1"/>
        <pt x="528" y="-12" on="0"/>
        <pt x="494" y="18" on="0"/>
        <pt x="493" y="51" on="1"/>
        <pt x="442" y="27" on="1"/>
        <pt x="359" y="-12" on="0"/>
        <pt x="280" y="-12" on="0"/>
        <pt x="245" y="43" on="0"/>
        <pt x="245" y="179" on="0"/>
        <pt x="278" y="298" on="0"/>
        <pt x="329" y="371" on="0"/>
        <pt x="402" y="426" on="0"/>
        <pt x="467" y="452" on="0"/>
        <pt x="506" y="462" on="1"/>
        <pt x="528" y="462" on="0"/>
        <pt x="581" y="441" on="1"/>
        <pt x="604" y="468" on="1"/>
        <pt x="627" y="468" on="1"/>
        <pt x="605" y="368" on="0"/>
        <pt x="557" y="89" on="0"/>
        <pt x="557" y="65" on="1"/>
        <pt x="557" y="29" on="0"/>
        <pt x="637" y="29" on="0"/>
        <pt x="704" y="80" on="0"/>
        <pt x="723" y="121" on="1"/>
        <pt x="761" y="203" on="0"/>
        <pt x="761" y="295" on="1"/>
        <pt x="761" y="416" on="0"/>
        <pt x="624" y="555" on="0"/>
        <pt x="403" y="555" on="0"/>
        <pt x="219" y="421" on="0"/>
        <pt x="121" y="224" on="0"/>
        <pt x="121" y="3" on="0"/>
        <pt x="256" y="-135" on="0"/>
        <pt x="489" y="-135" on="0"/>
        <pt x="596" y="-50" on="1"/>
        <pt x="643" y="-73" on="1"/>
        <pt x="513" y="-172" on="0"/>
        <pt x="219" y="-172" on="0"/>
        <pt x="50" y="-17" on="0"/>
        <pt x="50" y="236" on="0"/>
        <pt x="175" y="454" on="0"/>
        <pt x="396" y="592" on="0"/>
      </contour>
      <contour>
        <pt x="358" y="40" on="1"/>
        <pt x="382" y="40" on="0"/>
        <pt x="425" y="60" on="1"/>
        <pt x="495" y="92" on="1"/>
        <pt x="549" y="405" on="1"/>
        <pt x="474" y="405" on="1"/>
        <pt x="418" y="405" on="0"/>
        <pt x="344" y="312" on="0"/>
        <pt x="316" y="184" on="0"/>
        <pt x="316" y="105" on="1"/>
        <pt x="316" y="40" on="0"/>
      </contour>
    </TTGlyph>
    <TTGlyph name="atilde" xMin="35" yMin="-12" xMax="492" yMax="642">
      <contour>
        <pt x="318" y="-12" on="1"/>
        <pt x="301" y="-12" on="0"/>
        <pt x="301" y="23" on="1"/>
        <pt x="301" y="80" on="0"/>
        <pt x="324" y="213" on="1"/>
        <pt x="246" y="85" on="0"/>
        <pt x="141" y="-12" on="0"/>
        <pt x="97" y="-12" on="1"/>
        <pt x="68" y="-12" on="0"/>
        <pt x="35" y="40" on="0"/>
        <pt x="35" y="82" on="1"/>
        <pt x="35" y="174" on="0"/>
        <pt x="87" y="319" on="0"/>
        <pt x="130" y="362" on="1"/>
        <pt x="209" y="442" on="0"/>
        <pt x="308" y="467" on="1"/>
        <pt x="328" y="467" on="0"/>
        <pt x="403" y="438" on="0"/>
        <pt x="407" y="437" on="1"/>
        <pt x="417" y="461" on="1"/>
        <pt x="439" y="461" on="0"/>
        <pt x="458" y="457" on="1"/>
        <pt x="422" y="378" on="0"/>
        <pt x="358" y="115" on="0"/>
        <pt x="358" y="53" on="1"/>
        <pt x="422" y="46" on="0"/>
        <pt x="448" y="26" on="1"/>
        <pt x="442" y="7" on="1"/>
      </contour>
      <contour>
        <pt x="102" y="80" on="1"/>
        <pt x="102" y="44" on="0"/>
        <pt x="127" y="44" on="1"/>
        <pt x="183" y="44" on="0"/>
        <pt x="341" y="308" on="1"/>
        <pt x="359" y="401" on="1"/>
        <pt x="309" y="410" on="0"/>
        <pt x="276" y="410" on="1"/>
        <pt x="220" y="410" on="0"/>
        <pt x="179" y="356" on="1"/>
        <pt x="102" y="256" on="0"/>
      </contour>
      <contour>
        <pt x="473" y="642" on="1"/>
        <pt x="492" y="625" on="1"/>
        <pt x="447" y="551" on="0"/>
        <pt x="396" y="551" on="1"/>
        <pt x="376" y="551" on="0"/>
        <pt x="297" y="580" on="0"/>
        <pt x="277" y="580" on="1"/>
        <pt x="239" y="580" on="0"/>
        <pt x="210" y="551" on="1"/>
        <pt x="191" y="568" on="1"/>
        <pt x="235" y="642" on="0"/>
        <pt x="287" y="642" on="1"/>
        <pt x="307" y="642" on="0"/>
        <pt x="385" y="613" on="0"/>
        <pt x="406" y="613" on="1"/>
        <pt x="443" y="613" on="0"/>
      </contour>
    </TTGlyph>
    <TTGlyph name="b" xMin="22" yMin="-12" xMax="445" yMax="762">
      <contour>
        <pt x="238" y="727" on="1"/>
        <pt x="238" y="652" on="0"/>
        <pt x="147" y="255" on="1"/>
        <pt x="230" y="376" on="0"/>
        <pt x="338" y="467" on="0"/>
        <pt x="383" y="467" on="1"/>
        <pt x="412" y="467" on="0"/>
        <pt x="445" y="415" on="0"/>
        <pt x="445" y="373" on="1"/>
        <pt x="445" y="281" on="0"/>
        <pt x="393" y="136" on="0"/>
        <pt x="350" y="92" on="1"/>
        <pt x="271" y="13" on="0"/>
        <pt x="172" y="-12" on="1"/>
        <pt x="147" y="-12" on="0"/>
        <pt x="22" y="27" on="1"/>
        <pt x="68" y="133" on="0"/>
        <pt x="163" y="604" on="0"/>
        <pt x="163" y="694" on="1"/>
        <pt x="116" y="699" on="0"/>
        <pt x="83" y="724" on="1"/>
        <pt x="89" y="743" on="1"/>
        <pt x="229" y="762" on="1"/>
        <pt x="238" y="762" on="0"/>
      </contour>
      <contour>
        <pt x="378" y="375" on="1"/>
        <pt x="378" y="411" on="0"/>
        <pt x="353" y="411" on="1"/>
        <pt x="298" y="411" on="0"/>
        <pt x="140" y="191" on="1"/>
        <pt x="110" y="55" on="1"/>
        <pt x="172" y="45" on="0"/>
        <pt x="204" y="45" on="1"/>
        <pt x="260" y="45" on="0"/>
        <pt x="301" y="98" on="1"/>
        <pt x="378" y="199" on="0"/>
      </contour>
    </TTGlyph>
    <TTGlyph name="backslash" xMin="-30" yMin="-50" xMax="357" yMax="750">
      <contour>
        <pt x="24" y="750" on="1"/>
        <pt x="357" y="-50" on="1"/>
        <pt x="303" y="-50" on="1"/>
        <pt x="-30" y="750" on="1"/>
      </contour>
    </TTGlyph>
    <TTGlyph name="bar" xMin="100" yMin="-208" xMax="170" yMax="673">
      <contour>
        <pt x="100" y="-208" on="1"/>
        <pt x="100" y="673" on="1"/>
        <pt x="170" y="673" on="1"/>
        <pt x="170" y="-208" on="1"/>
      </contour>
    </TTGlyph>
    <TTGlyph name="braceleft" xMin="29" yMin="-233" xMax="322" yMax="731">
      <contour>
        <pt x="186" y="463" on="1"/>
        <pt x="190" y="332" on="1"/>
        <pt x="190" y="293" on="0"/>
        <pt x="160" y="259" on="0"/>
        <pt x="127" y="253" on="1"/>
        <pt x="126" y="245" on="1"/>
        <pt x="176" y="236" on="0"/>
        <pt x="176" y="200" on="1"/>
        <pt x="176" y="178" on="0"/>
        <pt x="162" y="135" on="1"/>
        <pt x="116" y="-15" on="0"/>
        <pt x="95" y="-182" on="1"/>
        <pt x="111" y="-182" on="0"/>
        <pt x="205" y="-198" on="0"/>
        <pt x="205" y="-199" on="1"/>
        <pt x="195" y="-233" on="1"/>
        <pt x="38" y="-233" on="1"/>
        <pt x="38" y="24" on="0"/>
        <pt x="121" y="209" on="1"/>
        <pt x="29" y="236" on="1"/>
        <pt x="33" y="263" on="1"/>
        <pt x="131" y="290" on="1"/>
        <pt x="114" y="368" on="0"/>
        <pt x="114" y="545" on="0"/>
        <pt x="156" y="731" on="1"/>
        <pt x="322" y="731" on="1"/>
        <pt x="314" y="697" on="1"/>
        <pt x="314" y="695" on="0"/>
        <pt x="210" y="680" on="0"/>
        <pt x="201" y="680" on="1"/>
        <pt x="186" y="561" on="0"/>
      </contour>
    </TTGlyph>
    <TTGlyph name="braceright" xMin="-64" yMin="-233" xMax="229" yMax="731">
      <contour>
        <pt x="72" y="35" on="1"/>
        <pt x="68" y="166" on="1"/>
        <pt x="68" y="205" on="0"/>
        <pt x="98" y="239" on="0"/>
        <pt x="131" y="245" on="1"/>
        <pt x="132" y="253" on="1"/>
        <pt x="82" y="262" on="0"/>
        <pt x="82" y="298" on="1"/>
        <pt x="82" y="320" on="0"/>
        <pt x="96" y="363" on="1"/>
        <pt x="142" y="513" on="0"/>
        <pt x="163" y="680" on="1"/>
        <pt x="147" y="680" on="0"/>
        <pt x="53" y="696" on="0"/>
        <pt x="53" y="697" on="1"/>
        <pt x="63" y="731" on="1"/>
        <pt x="220" y="731" on="1"/>
        <pt x="220" y="474" on="0"/>
        <pt x="137" y="289" on="1"/>
        <pt x="229" y="262" on="1"/>
        <pt x="225" y="235" on="1"/>
        <pt x="127" y="208" on="1"/>
        <pt x="144" y="130" on="0"/>
        <pt x="144" y="-47" on="0"/>
        <pt x="102" y="-233" on="1"/>
        <pt x="-64" y="-233" on="1"/>
        <pt x="-56" y="-199" on="1"/>
        <pt x="-56" y="-197" on="0"/>
        <pt x="48" y="-182" on="0"/>
        <pt x="57" y="-182" on="1"/>
        <pt x="72" y="-63" on="0"/>
      </contour>
    </TTGlyph>
    <TTGlyph name="bracketleft" xMin="29" yMin="-233" xMax="313" yMax="731">
      <contour>
        <pt x="117" y="249" on="1"/>
        <pt x="103" y="330" on="0"/>
        <pt x="103" y="529" on="0"/>
        <pt x="147" y="731" on="1"/>
        <pt x="313" y="731" on="1"/>
        <pt x="305" y="697" on="1"/>
        <pt x="305" y="695" on="0"/>
        <pt x="206" y="680" on="0"/>
        <pt x="198" y="680" on="1"/>
        <pt x="92" y="-182" on="1"/>
        <pt x="108" y="-182" on="0"/>
        <pt x="196" y="-198" on="0"/>
        <pt x="196" y="-199" on="1"/>
        <pt x="186" y="-233" on="1"/>
        <pt x="29" y="-233" on="1"/>
        <pt x="29" y="30" on="0"/>
      </contour>
    </TTGlyph>
    <TTGlyph name="bracketright" xMin="-78" yMin="-233" xMax="206" yMax="731">
      <contour>
        <pt x="118" y="249" on="1"/>
        <pt x="132" y="168" on="0"/>
        <pt x="132" y="-31" on="0"/>
        <pt x="88" y="-233" on="1"/>
        <pt x="-78" y="-233" on="1"/>
        <pt x="-70" y="-199" on="1"/>
        <pt x="-70" y="-197" on="0"/>
        <pt x="29" y="-182" on="0"/>
        <pt x="37" y="-182" on="1"/>
        <pt x="143" y="680" on="1"/>
        <pt x="127" y="680" on="0"/>
        <pt x="39" y="696" on="0"/>
        <pt x="39" y="697" on="1"/>
        <pt x="49" y="731" on="1"/>
        <pt x="206" y="731" on="1"/>
        <pt x="206" y="468" on="0"/>
      </contour>
    </TTGlyph>
    <TTGlyph name="breve" xMin="110" yMin="502" xMax="332" yMax="653">
      <contour>
        <pt x="141" y="653" on="1"/>
        <pt x="157" y="566" on="0"/>
        <pt x="253" y="566" on="0"/>
        <pt x="302" y="653" on="1"/>
        <pt x="332" y="646" on="1"/>
        <pt x="295" y="571" on="0"/>
        <pt x="233" y="502" on="0"/>
        <pt x="156" y="502" on="0"/>
        <pt x="119" y="572" on="0"/>
        <pt x="110" y="646" on="1"/>
      </contour>
    </TTGlyph>
    <TTGlyph name="brokenbar" xMin="100" yMin="-208" xMax="170" yMax="673">
      <contour>
        <pt x="100" y="322" on="1"/>
        <pt x="100" y="673" on="1"/>
        <pt x="170" y="673" on="1"/>
        <pt x="170" y="322" on="1"/>
      </contour>
      <contour>
        <pt x="100" y="-208" on="1"/>
        <pt x="100" y="143" on="1"/>
        <pt x="170" y="143" on="1"/>
        <pt x="170" y="-208" on="1"/>
      </contour>
    </TTGlyph>
    <TTGlyph name="bullet" xMin="50" yMin="186" xMax="201" yMax="347">
      <contour>
        <pt x="147" y="347" on="1"/>
        <pt x="201" y="347" on="0"/>
        <pt x="201" y="271" on="1"/>
        <pt x="201" y="241" on="0"/>
        <pt x="194" y="208" on="1"/>
        <pt x="191" y="197" on="1"/>
        <pt x="138" y="186" on="0"/>
        <pt x="105" y="186" on="1"/>
        <pt x="50" y="186" on="0"/>
        <pt x="50" y="260" on="1"/>
        <pt x="50" y="293" on="0"/>
        <pt x="59" y="328" on="1"/>
        <pt x="62" y="339" on="1"/>
        <pt x="116" y="347" on="0"/>
      </contour>
    </TTGlyph>
    <TTGlyph name="c" xMin="40" yMin="-12" xMax="376" yMax="468">
      <contour>
        <pt x="288" y="75" on="0"/>
        <pt x="195" y="-12" on="0"/>
        <pt x="92" y="-12" on="0"/>
        <pt x="40" y="62" on="0"/>
        <pt x="40" y="204" on="0"/>
        <pt x="86" y="334" on="0"/>
        <pt x="124" y="374" on="1"/>
        <pt x="195" y="447" on="0"/>
        <pt x="283" y="468" on="1"/>
        <pt x="294" y="468" on="0"/>
        <pt x="376" y="442" on="1"/>
        <pt x="361" y="396" on="1"/>
        <pt x="277" y="411" on="0"/>
        <pt x="251" y="411" on="1"/>
        <pt x="184" y="411" on="0"/>
        <pt x="107" y="229" on="0"/>
        <pt x="107" y="120" on="1"/>
        <pt x="107" y="44" on="0"/>
        <pt x="163" y="44" on="1"/>
        <pt x="195" y="44" on="0"/>
        <pt x="271" y="105" on="0"/>
        <pt x="297" y="149" on="1"/>
        <pt x="319" y="127" on="1"/>
      </contour>
    </TTGlyph>
    <TTGlyph name="caron" xMin="61" yMin="519" xMax="317" yMax="703">
      <contour>
        <pt x="127" y="522" on="1"/>
        <pt x="61" y="689" on="1"/>
        <pt x="80" y="703" on="1"/>
        <pt x="130" y="644" on="0"/>
        <pt x="159" y="599" on="1"/>
        <pt x="196" y="631" on="0"/>
        <pt x="298" y="703" on="1"/>
        <pt x="317" y="686" on="1"/>
        <pt x="256" y="627" on="0"/>
        <pt x="175" y="522" on="1"/>
        <pt x="163" y="519" on="0"/>
        <pt x="139" y="519" on="0"/>
      </contour>
    </TTGlyph>
    <TTGlyph name="ccedilla" xMin="40" yMin="-237" xMax="376" yMax="468">
      <component glyphName="c" x="0" y="0" flags="0x1004"/>
      <component glyphName="cedilla" x="-64" y="0" flags="0x1004"/>
    </TTGlyph>
    <TTGlyph name="cedilla" xMin="109" yMin="-237" xMax="252" yMax="0">
      <contour>
        <pt x="120" y="-237" on="1"/>
        <pt x="109" y="-220" on="1"/>
        <pt x="185" y="-172" on="0"/>
        <pt x="185" y="-111" on="1"/>
        <pt x="185" y="-93" on="0"/>
        <pt x="169" y="-55" on="0"/>
        <pt x="169" y="-47" on="1"/>
        <pt x="189" y="0" on="1"/>
        <pt x="216" y="0" on="1"/>
        <pt x="208" y="-27" on="1"/>
        <pt x="208" y="-43" on="0"/>
        <pt x="252" y="-88" on="0"/>
        <pt x="252" y="-110" on="1"/>
        <pt x="252" y="-150" on="0"/>
        <pt x="173" y="-217" on="0"/>
      </contour>
    </TTGlyph>
    <TTGlyph name="cent" xMin="90" yMin="-35" xMax="463" yMax="574">
      <contour>
        <pt x="224" y="-35" on="1"/>
        <pt x="186" y="-35" on="1"/>
        <pt x="205" y="44" on="1"/>
        <pt x="151" y="57" on="0"/>
        <pt x="90" y="144" on="0"/>
        <pt x="90" y="214" on="1"/>
        <pt x="90" y="339" on="0"/>
        <pt x="220" y="487" on="0"/>
        <pt x="320" y="515" on="1"/>
        <pt x="335" y="574" on="1"/>
        <pt x="373" y="574" on="1"/>
        <pt x="359" y="518" on="1"/>
        <pt x="386" y="517" on="0"/>
        <pt x="463" y="490" on="1"/>
        <pt x="447" y="441" on="1"/>
        <pt x="371" y="455" on="0"/>
        <pt x="344" y="457" on="1"/>
        <pt x="254" y="88" on="1"/>
        <pt x="270" y="86" on="0"/>
        <pt x="279" y="86" on="1"/>
        <pt x="324" y="86" on="0"/>
        <pt x="381" y="111" on="1"/>
        <pt x="392" y="81" on="1"/>
        <pt x="323" y="38" on="0"/>
        <pt x="257" y="38" on="1"/>
        <pt x="242" y="38" on="1"/>
      </contour>
      <contour>
        <pt x="165" y="222" on="1"/>
        <pt x="165" y="132" on="0"/>
        <pt x="219" y="101" on="1"/>
        <pt x="306" y="455" on="1"/>
        <pt x="165" y="440" on="0"/>
      </contour>
    </TTGlyph>
    <TTGlyph name="circumflex" xMin="50" yMin="504" xMax="306" yMax="688">
      <contour>
        <pt x="192" y="685" on="1"/>
        <pt x="216" y="688" on="1"/>
        <pt x="228" y="688" on="0"/>
        <pt x="240" y="685" on="1"/>
        <pt x="306" y="518" on="1"/>
        <pt x="287" y="504" on="1"/>
        <pt x="237" y="563" on="0"/>
        <pt x="208" y="608" on="1"/>
        <pt x="171" y="576" on="0"/>
        <pt x="69" y="504" on="1"/>
        <pt x="50" y="521" on="1"/>
        <pt x="111" y="580" on="0"/>
      </contour>
    </TTGlyph>
    <TTGlyph name="colon" xMin="44" yMin="-12" xMax="197" yMax="428">
      <component glyphName="period" x="0" y="0" flags="0x1004"/>
      <component glyphName="period" x="46" y="307" flags="0x1004"/>
    </TTGlyph>
    <TTGlyph name="comma" xMin="17" yMin="-123" xMax="168" yMax="121">
      <contour>
        <pt x="70" y="110" on="1"/>
        <pt x="103" y="121" on="0"/>
        <pt x="126" y="121" on="1"/>
        <pt x="168" y="121" on="0"/>
        <pt x="168" y="60" on="1"/>
        <pt x="158" y="19" on="0"/>
        <pt x="70" y="-93" on="0"/>
        <pt x="39" y="-123" on="1"/>
        <pt x="17" y="-107" on="1"/>
        <pt x="40" y="-75" on="0"/>
        <pt x="52" y="-56" on="1"/>
        <pt x="84" y="-5" on="0"/>
        <pt x="84" y="71" on="0"/>
      </contour>
    </TTGlyph>
    <TTGlyph name="copyright" xMin="30" yMin="217" xMax="596" yMax="783">
      <contour>
        <pt x="30" y="382" on="0"/>
        <pt x="30" y="618" on="0"/>
        <pt x="195" y="783" on="0"/>
        <pt x="431" y="783" on="0"/>
        <pt x="596" y="618" on="0"/>
        <pt x="596" y="382" on="0"/>
        <pt x="431" y="217" on="0"/>
        <pt x="195" y="217" on="0"/>
      </contour>
      <contour>
        <pt x="67" y="603" on="0"/>
        <pt x="67" y="397" on="0"/>
        <pt x="210" y="254" on="0"/>
        <pt x="416" y="254" on="0"/>
        <pt x="559" y="397" on="0"/>
        <pt x="559" y="603" on="0"/>
        <pt x="416" y="746" on="0"/>
        <pt x="210" y="746" on="0"/>
      </contour>
      <contour>
        <pt x="440" y="434" on="1"/>
        <pt x="436" y="355" on="1"/>
        <pt x="391" y="322" on="0"/>
        <pt x="248" y="322" on="0"/>
        <pt x="158" y="417" on="0"/>
        <pt x="158" y="591" on="0"/>
        <pt x="255" y="687" on="0"/>
        <pt x="388" y="687" on="0"/>
        <pt x="437" y="654" on="1"/>
        <pt x="423" y="573" on="1"/>
        <pt x="389" y="573" on="0"/>
        <pt x="389" y="585" on="1"/>
        <pt x="389" y="636" on="1"/>
        <pt x="355" y="646" on="0"/>
        <pt x="290" y="646" on="0"/>
        <pt x="260" y="635" on="1"/>
        <pt x="240" y="618" on="0"/>
        <pt x="214" y="547" on="0"/>
        <pt x="214" y="505" on="1"/>
        <pt x="214" y="434" on="0"/>
        <pt x="276" y="359" on="0"/>
        <pt x="365" y="359" on="0"/>
        <pt x="393" y="375" on="1"/>
        <pt x="404" y="424" on="1"/>
        <pt x="407" y="434" on="0"/>
      </contour>
    </TTGlyph>
    <TTGlyph name="d" xMin="35" yMin="-12" xMax="516" yMax="762">
      <contour>
        <pt x="318" y="-12" on="1"/>
        <pt x="301" y="-12" on="0"/>
        <pt x="301" y="23" on="1"/>
        <pt x="301" y="82" on="0"/>
        <pt x="324" y="213" on="1"/>
        <pt x="246" y="85" on="0"/>
        <pt x="141" y="-12" on="0"/>
        <pt x="97" y="-12" on="1"/>
        <pt x="68" y="-12" on="0"/>
        <pt x="35" y="40" on="0"/>
        <pt x="35" y="82" on="1"/>
        <pt x="35" y="174" on="0"/>
        <pt x="87" y="319" on="0"/>
        <pt x="130" y="362" on="1"/>
        <pt x="209" y="442" on="0"/>
        <pt x="308" y="467" on="1"/>
        <pt x="324" y="467" on="0"/>
        <pt x="370" y="451" on="1"/>
        <pt x="421" y="704" on="0"/>
        <pt x="428" y="747" on="1"/>
        <pt x="467" y="762" on="0"/>
        <pt x="501" y="762" on="1"/>
        <pt x="516" y="753" on="1"/>
        <pt x="481" y="676" on="0"/>
        <pt x="358" y="117" on="0"/>
        <pt x="358" y="53" on="1"/>
        <pt x="422" y="46" on="0"/>
        <pt x="448" y="26" on="1"/>
        <pt x="442" y="7" on="1"/>
      </contour>
      <contour>
        <pt x="102" y="80" on="1"/>
        <pt x="102" y="44" on="0"/>
        <pt x="127" y="44" on="1"/>
        <pt x="183" y="44" on="0"/>
        <pt x="342" y="308" on="1"/>
        <pt x="360" y="401" on="1"/>
        <pt x="310" y="410" on="0"/>
        <pt x="276" y="410" on="1"/>
        <pt x="220" y="410" on="0"/>
        <pt x="179" y="356" on="1"/>
        <pt x="102" y="256" on="0"/>
      </contour>
    </TTGlyph>
    <TTGlyph name="dagger" xMin="48" yMin="-45" xMax="375" yMax="641">
      <contour>
        <pt x="375" y="506" on="1"/>
        <pt x="367" y="457" on="1"/>
        <pt x="243" y="442" on="1"/>
        <pt x="226" y="298" on="1"/>
        <pt x="147" y="-45" on="1"/>
        <pt x="100" y="-45" on="1"/>
        <pt x="141" y="298" on="1"/>
        <pt x="174" y="440" on="1"/>
        <pt x="48" y="457" on="1"/>
        <pt x="56" y="506" on="1"/>
        <pt x="189" y="506" on="1"/>
        <pt x="221" y="641" on="1"/>
        <pt x="268" y="641" on="1"/>
        <pt x="251" y="506" on="1"/>
      </contour>
    </TTGlyph>
    <TTGlyph name="daggerdbl" xMin="-10" yMin="-45" xMax="375" yMax="641">
      <contour>
        <pt x="-10" y="90" on="1"/>
        <pt x="-1" y="139" on="1"/>
        <pt x="123" y="154" on="1"/>
        <pt x="141" y="298" on="1"/>
        <pt x="174" y="440" on="1"/>
        <pt x="48" y="457" on="1"/>
        <pt x="56" y="506" on="1"/>
        <pt x="189" y="506" on="1"/>
        <pt x="221" y="641" on="1"/>
        <pt x="268" y="641" on="1"/>
        <pt x="251" y="506" on="1"/>
        <pt x="375" y="506" on="1"/>
        <pt x="367" y="457" on="1"/>
        <pt x="243" y="442" on="1"/>
        <pt x="226" y="298" on="1"/>
        <pt x="193" y="155" on="1"/>
        <pt x="318" y="139" on="1"/>
        <pt x="309" y="90" on="1"/>
        <pt x="178" y="90" on="1"/>
        <pt x="147" y="-45" on="1"/>
        <pt x="100" y="-45" on="1"/>
        <pt x="116" y="90" on="1"/>
      </contour>
    </TTGlyph>
    <TTGlyph name="degree" xMin="20" yMin="439" xMax="298" yMax="717">
      <contour>
        <pt x="20" y="520" on="0"/>
        <pt x="20" y="636" on="0"/>
        <pt x="101" y="717" on="0"/>
        <pt x="217" y="717" on="0"/>
        <pt x="298" y="636" on="0"/>
        <pt x="298" y="520" on="0"/>
        <pt x="217" y="439" on="0"/>
        <pt x="101" y="439" on="0"/>
      </contour>
      <contour>
        <pt x="66" y="617" on="0"/>
        <pt x="66" y="539" on="0"/>
        <pt x="120" y="485" on="0"/>
        <pt x="198" y="485" on="0"/>
        <pt x="251" y="539" on="0"/>
        <pt x="251" y="617" on="0"/>
        <pt x="198" y="670" on="0"/>
        <pt x="120" y="670" on="0"/>
      </contour>
    </TTGlyph>
    <TTGlyph name="dieresis" xMin="68" yMin="544" xMax="298" yMax="659">
      <contour>
        <pt x="273" y="659" on="1"/>
        <pt x="298" y="659" on="0"/>
        <pt x="298" y="625" on="1"/>
        <pt x="298" y="599" on="0"/>
        <pt x="280" y="553" on="0"/>
        <pt x="279" y="553" on="1"/>
        <pt x="249" y="544" on="0"/>
        <pt x="230" y="544" on="1"/>
        <pt x="204" y="544" on="0"/>
        <pt x="204" y="576" on="1"/>
        <pt x="204" y="601" on="0"/>
        <pt x="218" y="640" on="1"/>
        <pt x="223" y="652" on="1"/>
        <pt x="255" y="659" on="0"/>
      </contour>
      <contour>
        <pt x="137" y="659" on="1"/>
        <pt x="162" y="659" on="0"/>
        <pt x="162" y="625" on="1"/>
        <pt x="162" y="599" on="0"/>
        <pt x="144" y="553" on="0"/>
        <pt x="143" y="553" on="1"/>
        <pt x="113" y="544" on="0"/>
        <pt x="94" y="544" on="1"/>
        <pt x="68" y="544" on="0"/>
        <pt x="68" y="576" on="1"/>
        <pt x="68" y="601" on="0"/>
        <pt x="82" y="640" on="1"/>
        <pt x="87" y="652" on="1"/>
        <pt x="119" y="659" on="0"/>
      </contour>
    </TTGlyph>
    <TTGlyph name="divide" xMin="88" yMin="112" xMax="444" yMax="443">
      <contour>
        <pt x="267" y="362" on="0"/>
        <pt x="249" y="380" on="0"/>
        <pt x="249" y="412" on="0"/>
        <pt x="276" y="443" on="0"/>
        <pt x="309" y="443" on="0"/>
        <pt x="328" y="423" on="0"/>
        <pt x="328" y="391" on="0"/>
        <pt x="299" y="362" on="0"/>
      </contour>
      <contour>
        <pt x="88" y="249" on="1"/>
        <pt x="98" y="306" on="1"/>
        <pt x="444" y="306" on="1"/>
        <pt x="434" y="249" on="1"/>
      </contour>
      <contour>
        <pt x="223" y="112" on="0"/>
        <pt x="205" y="130" on="0"/>
        <pt x="205" y="162" on="0"/>
        <pt x="232" y="193" on="0"/>
        <pt x="265" y="193" on="0"/>
        <pt x="284" y="173" on="0"/>
        <pt x="284" y="141" on="0"/>
        <pt x="255" y="112" on="0"/>
      </contour>
    </TTGlyph>
    <TTGlyph name="dollar" xMin="40" yMin="-88" xMax="449" yMax="627">
      <contour>
        <pt x="292" y="203" on="1"/>
        <pt x="258" y="225" on="1"/>
        <pt x="214" y="39" on="1"/>
        <pt x="264" y="39" on="0"/>
        <pt x="328" y="98" on="0"/>
        <pt x="328" y="179" on="0"/>
      </contour>
      <contour>
        <pt x="241" y="494" on="0"/>
        <pt x="186" y="449" on="0"/>
        <pt x="186" y="369" on="0"/>
        <pt x="224" y="343" on="1"/>
        <pt x="245" y="328" on="1"/>
        <pt x="286" y="499" on="1"/>
      </contour>
      <contour>
        <pt x="112" y="162" on="1"/>
        <pt x="113" y="121" on="1"/>
        <pt x="113" y="81" on="0"/>
        <pt x="111" y="61" on="1"/>
        <pt x="139" y="48" on="0"/>
        <pt x="176" y="42" on="1"/>
        <pt x="226" y="247" on="1"/>
        <pt x="175" y="282" on="1"/>
        <pt x="118" y="321" on="0"/>
        <pt x="118" y="449" on="0"/>
        <pt x="217" y="543" on="0"/>
        <pt x="301" y="562" on="1"/>
        <pt x="317" y="627" on="1"/>
        <pt x="355" y="627" on="1"/>
        <pt x="339" y="561" on="1"/>
        <pt x="380" y="557" on="0"/>
        <pt x="449" y="534" on="1"/>
        <pt x="433" y="485" on="1"/>
        <pt x="384" y="496" on="0"/>
        <pt x="324" y="501" on="1"/>
        <pt x="278" y="307" on="1"/>
        <pt x="338" y="267" on="1"/>
        <pt x="408" y="220" on="0"/>
        <pt x="408" y="78" on="0"/>
        <pt x="285" y="-10" on="0"/>
        <pt x="201" y="-12" on="1"/>
        <pt x="183" y="-88" on="1"/>
        <pt x="145" y="-88" on="1"/>
        <pt x="164" y="-10" on="1"/>
        <pt x="105" y="-2" on="0"/>
        <pt x="40" y="28" on="1"/>
        <pt x="91" y="166" on="1"/>
      </contour>
    </TTGlyph>
    <TTGlyph name="dotaccent" xMin="143" yMin="547" xMax="237" yMax="662">
      <contour>
        <pt x="212" y="662" on="1"/>
        <pt x="237" y="662" on="0"/>
        <pt x="237" y="628" on="1"/>
        <pt x="237" y="602" on="0"/>
        <pt x="219" y="556" on="0"/>
        <pt x="218" y="556" on="1"/>
        <pt x="188" y="547" on="0"/>
        <pt x="169" y="547" on="1"/>
        <pt x="143" y="547" on="0"/>
        <pt x="143" y="579" on="1"/>
        <pt x="143" y="609" on="0"/>
        <pt x="157" y="643" on="1"/>
        <pt x="162" y="655" on="1"/>
        <pt x="194" y="662" on="0"/>
      </contour>
    </TTGlyph>
    <TTGlyph name="dotlessi" xMin="50" yMin="-12" xMax="204" yMax="466">
      <contour>
        <pt x="67" y="-12" on="1"/>
        <pt x="50" y="-12" on="0"/>
        <pt x="50" y="23" on="1"/>
        <pt x="50" y="106" on="0"/>
        <pt x="125" y="451" on="1"/>
        <pt x="164" y="466" on="0"/>
        <pt x="189" y="466" on="1"/>
        <pt x="204" y="457" on="1"/>
        <pt x="172" y="377" on="0"/>
        <pt x="107" y="102" on="0"/>
        <pt x="107" y="53" on="1"/>
        <pt x="171" y="46" on="0"/>
        <pt x="197" y="26" on="1"/>
        <pt x="191" y="7" on="1"/>
      </contour>
    </TTGlyph>
    <TTGlyph name="e" xMin="40" yMin="-12" xMax="383" yMax="468">
      <contour>
        <pt x="225" y="223" on="1"/>
        <pt x="114" y="212" on="1"/>
        <pt x="107" y="170" on="0"/>
        <pt x="107" y="120" on="1"/>
        <pt x="107" y="44" on="0"/>
        <pt x="163" y="44" on="1"/>
        <pt x="198" y="44" on="0"/>
        <pt x="282" y="105" on="0"/>
        <pt x="312" y="149" on="1"/>
        <pt x="334" y="127" on="1"/>
        <pt x="242" y="-12" on="0"/>
        <pt x="139" y="-12" on="1"/>
        <pt x="92" y="-12" on="0"/>
        <pt x="40" y="62" on="0"/>
        <pt x="40" y="199" on="0"/>
        <pt x="82" y="324" on="0"/>
        <pt x="143" y="398" on="0"/>
        <pt x="180" y="424" on="1"/>
        <pt x="246" y="468" on="0"/>
        <pt x="298" y="468" on="1"/>
        <pt x="327" y="468" on="0"/>
        <pt x="383" y="431" on="0"/>
        <pt x="383" y="407" on="1"/>
        <pt x="383" y="337" on="0"/>
        <pt x="292" y="230" on="0"/>
      </contour>
      <contour>
        <pt x="317" y="400" on="1"/>
        <pt x="317" y="409" on="0"/>
        <pt x="295" y="416" on="0"/>
        <pt x="263" y="416" on="1"/>
        <pt x="213" y="416" on="0"/>
        <pt x="142" y="328" on="0"/>
        <pt x="123" y="256" on="1"/>
        <pt x="191" y="256" on="1"/>
        <pt x="246" y="256" on="0"/>
        <pt x="317" y="342" on="0"/>
      </contour>
    </TTGlyph>
    <TTGlyph name="eacute" xMin="40" yMin="-12" xMax="404" yMax="702">
      <component glyphName="e" x="0" y="0" flags="0x1004"/>
      <component glyphName="acute" x="180" y="0" flags="0x1004"/>
    </TTGlyph>
    <TTGlyph name="ecircumflex" xMin="40" yMin="-12" xMax="413" yMax="688">
      <contour>
        <pt x="225" y="223" on="1"/>
        <pt x="114" y="212" on="1"/>
        <pt x="107" y="170" on="0"/>
        <pt x="107" y="120" on="1"/>
        <pt x="107" y="44" on="0"/>
        <pt x="163" y="44" on="1"/>
        <pt x="198" y="44" on="0"/>
        <pt x="282" y="105" on="0"/>
        <pt x="312" y="149" on="1"/>
        <pt x="334" y="127" on="1"/>
        <pt x="242" y="-12" on="0"/>
        <pt x="139" y="-12" on="1"/>
        <pt x="92" y="-12" on="0"/>
        <pt x="40" y="62" on="0"/>
        <pt x="40" y="199" on="0"/>
        <pt x="82" y="324" on="0"/>
        <pt x="143" y="398" on="0"/>
        <pt x="180" y="424" on="1"/>
        <pt x="246" y="468" on="0"/>
        <pt x="298" y="468" on="1"/>
        <pt x="327" y="468" on="0"/>
        <pt x="383" y="431" on="0"/>
        <pt x="383" y="407" on="1"/>
        <pt x="383" y="337" on="0"/>
        <pt x="292" y="230" on="0"/>
      </contour>
      <contour>
        <pt x="317" y="400" on="1"/>
        <pt x="317" y="409" on="0"/>
        <pt x="295" y="416" on="0"/>
        <pt x="263" y="416" on="1"/>
        <pt x="213" y="416" on="0"/>
        <pt x="142" y="328" on="0"/>
        <pt x="123" y="256" on="1"/>
        <pt x="191" y="256" on="1"/>
        <pt x="246" y="256" on="0"/>
        <pt x="317" y="342" on="0"/>
      </contour>
      <contour>
        <pt x="299" y="685" on="1"/>
        <pt x="323" y="688" on="1"/>
        <pt x="335" y="688" on="0"/>
        <pt x="347" y="685" on="1"/>
        <pt x="413" y="518" on="1"/>
        <pt x="394" y="504" on="1"/>
        <pt x="344" y="563" on="0"/>
        <pt x="315" y="608" on="1"/>
        <pt x="278" y="576" on="0"/>
        <pt x="176" y="504" on="1"/>
        <pt x="157" y="521" on="1"/>
        <pt x="218" y="580" on="0"/>
      </contour>
    </TTGlyph>
    <TTGlyph name="edieresis" xMin="40" yMin="-12" xMax="413" yMax="659">
      <component glyphName="e" x="0" y="0" flags="0x1004"/>
      <component glyphName="dieresis" x="115" y="0" flags="0x1004"/>
    </TTGlyph>
    <TTGlyph name="egrave" xMin="40" yMin="-12" xMax="383" yMax="714">
      <contour>
        <pt x="225" y="223" on="1"/>
        <pt x="114" y="212" on="1"/>
        <pt x="107" y="170" on="0"/>
        <pt x="107" y="120" on="1"/>
        <pt x="107" y="44" on="0"/>
        <pt x="163" y="44" on="1"/>
        <pt x="198" y="44" on="0"/>
        <pt x="282" y="105" on="0"/>
        <pt x="312" y="149" on="1"/>
        <pt x="334" y="127" on="1"/>
        <pt x="242" y="-12" on="0"/>
        <pt x="139" y="-12" on="1"/>
        <pt x="92" y="-12" on="0"/>
        <pt x="40" y="62" on="0"/>
        <pt x="40" y="199" on="0"/>
        <pt x="82" y="324" on="0"/>
        <pt x="143" y="398" on="0"/>
        <pt x="180" y="424" on="1"/>
        <pt x="246" y="468" on="0"/>
        <pt x="298" y="468" on="1"/>
        <pt x="327" y="468" on="0"/>
        <pt x="383" y="431" on="0"/>
        <pt x="383" y="407" on="1"/>
        <pt x="383" y="337" on="0"/>
        <pt x="292" y="230" on="0"/>
      </contour>
      <contour>
        <pt x="317" y="400" on="1"/>
        <pt x="317" y="409" on="0"/>
        <pt x="295" y="416" on="0"/>
        <pt x="263" y="416" on="1"/>
        <pt x="213" y="416" on="0"/>
        <pt x="142" y="328" on="0"/>
        <pt x="123" y="256" on="1"/>
        <pt x="191" y="256" on="1"/>
        <pt x="246" y="256" on="0"/>
        <pt x="317" y="342" on="0"/>
      </contour>
      <contour>
        <pt x="359" y="530" on="1"/>
        <pt x="344" y="514" on="1"/>
        <pt x="242" y="578" on="0"/>
        <pt x="189" y="640" on="1"/>
        <pt x="185" y="659" on="1"/>
        <pt x="188" y="673" on="0"/>
        <pt x="215" y="707" on="0"/>
        <pt x="225" y="714" on="1"/>
        <pt x="281" y="628" on="0"/>
        <pt x="340" y="554" on="1"/>
      </contour>
    </TTGlyph>
    <TTGlyph name="eight" xMin="32" yMin="-12" xMax="481" yMax="668">
      <contour>
        <pt x="120" y="-12" on="0"/>
        <pt x="32" y="65" on="0"/>
        <pt x="32" y="178" on="0"/>
        <pt x="114" y="305" on="0"/>
        <pt x="196" y="346" on="1"/>
        <pt x="122" y="401" on="0"/>
        <pt x="122" y="557" on="0"/>
        <pt x="238" y="668" on="0"/>
        <pt x="334" y="668" on="1"/>
        <pt x="401" y="668" on="0"/>
        <pt x="481" y="599" on="0"/>
        <pt x="481" y="497" on="0"/>
        <pt x="410" y="383" on="0"/>
        <pt x="338" y="345" on="1"/>
        <pt x="435" y="274" on="0"/>
        <pt x="435" y="108" on="0"/>
        <pt x="302" y="-12" on="0"/>
        <pt x="196" y="-12" on="1"/>
      </contour>
      <contour>
        <pt x="299" y="270" on="1"/>
        <pt x="229" y="322" on="1"/>
        <pt x="173" y="283" on="0"/>
        <pt x="112" y="176" on="0"/>
        <pt x="112" y="89" on="0"/>
        <pt x="160" y="37" on="0"/>
        <pt x="262" y="37" on="0"/>
        <pt x="352" y="114" on="0"/>
        <pt x="352" y="229" on="0"/>
      </contour>
      <contour>
        <pt x="272" y="619" on="0"/>
        <pt x="199" y="550" on="0"/>
        <pt x="199" y="443" on="0"/>
        <pt x="261" y="400" on="1"/>
        <pt x="306" y="368" on="1"/>
        <pt x="355" y="402" on="0"/>
        <pt x="404" y="499" on="0"/>
        <pt x="404" y="575" on="0"/>
        <pt x="364" y="619" on="0"/>
      </contour>
    </TTGlyph>
    <TTGlyph name="ellipsis" xMin="44" yMin="-12" xMax="545" yMax="121">
      <contour>
        <pt x="123" y="121" on="1"/>
        <pt x="151" y="121" on="0"/>
        <pt x="151" y="81" on="1"/>
        <pt x="151" y="56" on="0"/>
        <pt x="132" y="-3" on="0"/>
        <pt x="131" y="-3" on="1"/>
        <pt x="95" y="-12" on="0"/>
        <pt x="73" y="-12" on="1"/>
        <pt x="44" y="-12" on="0"/>
        <pt x="44" y="26" on="1"/>
        <pt x="44" y="56" on="0"/>
        <pt x="64" y="114" on="0"/>
        <pt x="65" y="114" on="1"/>
        <pt x="102" y="121" on="0"/>
      </contour>
      <contour>
        <pt x="320" y="121" on="1"/>
        <pt x="348" y="121" on="0"/>
        <pt x="348" y="81" on="1"/>
        <pt x="348" y="56" on="0"/>
        <pt x="329" y="-3" on="0"/>
        <pt x="328" y="-3" on="1"/>
        <pt x="292" y="-12" on="0"/>
        <pt x="270" y="-12" on="1"/>
        <pt x="241" y="-12" on="0"/>
        <pt x="241" y="26" on="1"/>
        <pt x="241" y="56" on="0"/>
        <pt x="261" y="114" on="0"/>
        <pt x="262" y="114" on="1"/>
        <pt x="299" y="121" on="0"/>
      </contour>
      <contour>
        <pt x="517" y="121" on="1"/>
        <pt x="545" y="121" on="0"/>
        <pt x="545" y="81" on="1"/>
        <pt x="545" y="56" on="0"/>
        <pt x="526" y="-3" on="0"/>
        <pt x="525" y="-3" on="1"/>
        <pt x="489" y="-12" on="0"/>
        <pt x="467" y="-12" on="1"/>
        <pt x="438" y="-12" on="0"/>
        <pt x="438" y="26" on="1"/>
        <pt x="438" y="56" on="0"/>
        <pt x="458" y="114" on="0"/>
        <pt x="459" y="114" on="1"/>
        <pt x="496" y="121" on="0"/>
      </contour>
    </TTGlyph>
    <TTGlyph name="emdash" xMin="125" yMin="225" xMax="734" yMax="281">
      <contour>
        <pt x="125" y="225" on="1"/>
        <pt x="125" y="281" on="1"/>
        <pt x="734" y="281" on="1"/>
        <pt x="734" y="225" on="1"/>
      </contour>
    </TTGlyph>
    <TTGlyph name="endash" xMin="125" yMin="225" xMax="486" yMax="281">
      <contour>
        <pt x="125" y="225" on="1"/>
        <pt x="125" y="281" on="1"/>
        <pt x="486" y="281" on="1"/>
        <pt x="486" y="225" on="1"/>
      </contour>
    </TTGlyph>
    <TTGlyph name="equal" xMin="74" yMin="168" xMax="458" yMax="387">
      <contour>
        <pt x="102" y="330" on="1"/>
        <pt x="112" y="387" on="1"/>
        <pt x="458" y="387" on="1"/>
        <pt x="448" y="330" on="1"/>
      </contour>
      <contour>
        <pt x="74" y="168" on="1"/>
        <pt x="84" y="225" on="1"/>
        <pt x="430" y="225" on="1"/>
        <pt x="420" y="168" on="1"/>
      </contour>
    </TTGlyph>
    <TTGlyph name="eth" xMin="30" yMin="-13" xMax="421" yMax="731">
      <contour>
        <pt x="160" y="518" on="1"/>
        <pt x="144" y="566" on="1"/>
        <pt x="238" y="612" on="1"/>
        <pt x="197" y="653" on="0"/>
        <pt x="142" y="693" on="1"/>
        <pt x="168" y="731" on="1"/>
        <pt x="237" y="686" on="0"/>
        <pt x="285" y="635" on="1"/>
        <pt x="408" y="695" on="1"/>
        <pt x="421" y="659" on="1"/>
        <pt x="315" y="601" on="1"/>
        <pt x="419" y="474" on="0"/>
        <pt x="419" y="319" on="1"/>
        <pt x="419" y="282" on="0"/>
        <pt x="411" y="236" on="1"/>
        <pt x="353" y="255" on="1"/>
        <pt x="360" y="291" on="0"/>
        <pt x="360" y="330" on="1"/>
        <pt x="360" y="462" on="0"/>
        <pt x="268" y="576" on="1"/>
      </contour>
      <contour>
        <pt x="354" y="468" on="0"/>
        <pt x="419" y="392" on="0"/>
        <pt x="419" y="250" on="0"/>
        <pt x="379" y="131" on="0"/>
        <pt x="320" y="58" on="0"/>
        <pt x="282" y="33" on="1"/>
        <pt x="215" y="-12" on="0"/>
        <pt x="93" y="-12" on="0"/>
        <pt x="30" y="65" on="0"/>
        <pt x="30" y="206" on="0"/>
        <pt x="68" y="325" on="0"/>
        <pt x="126" y="398" on="0"/>
        <pt x="162" y="423" on="1"/>
        <pt x="225" y="468" on="0"/>
      </contour>
      <contour>
        <pt x="286" y="426" on="1"/>
        <pt x="208" y="426" on="0"/>
        <pt x="94" y="263" on="0"/>
        <pt x="94" y="130" on="1"/>
        <pt x="94" y="36" on="0"/>
        <pt x="158" y="36" on="1"/>
        <pt x="231" y="36" on="0"/>
        <pt x="355" y="201" on="0"/>
        <pt x="355" y="330" on="1"/>
        <pt x="355" y="376" on="0"/>
        <pt x="318" y="426" on="0"/>
      </contour>
    </TTGlyph>
    <TTGlyph name="exclam" xMin="57" yMin="-13" xMax="260" yMax="679">
      <contour>
        <pt x="105" y="160" on="1"/>
        <pt x="195" y="664" on="1"/>
        <pt x="224" y="679" on="0"/>
        <pt x="246" y="679" on="1"/>
        <pt x="260" y="670" on="1"/>
        <pt x="254" y="536" on="0"/>
        <pt x="197" y="308" on="0"/>
        <pt x="137" y="164" on="1"/>
      </contour>
      <contour>
        <pt x="123" y="100" on="1"/>
        <pt x="148" y="100" on="0"/>
        <pt x="148" y="66" on="1"/>
        <pt x="148" y="43" on="0"/>
        <pt x="132" y="-5" on="0"/>
        <pt x="131" y="-5" on="1"/>
        <pt x="100" y="-13" on="0"/>
        <pt x="81" y="-13" on="1"/>
        <pt x="57" y="-13" on="0"/>
        <pt x="57" y="20" on="1"/>
        <pt x="57" y="42" on="0"/>
        <pt x="74" y="93" on="0"/>
        <pt x="75" y="93" on="1"/>
        <pt x="107" y="100" on="0"/>
      </contour>
    </TTGlyph>
    <TTGlyph name="exclamdown" xMin="27" yMin="-224" xMax="230" yMax="468">
      <contour>
        <pt x="164" y="355" on="1"/>
        <pt x="139" y="355" on="0"/>
        <pt x="139" y="389" on="1"/>
        <pt x="139" y="412" on="0"/>
        <pt x="155" y="460" on="0"/>
        <pt x="156" y="460" on="1"/>
        <pt x="187" y="468" on="0"/>
        <pt x="206" y="468" on="1"/>
        <pt x="230" y="468" on="0"/>
        <pt x="230" y="435" on="1"/>
        <pt x="230" y="413" on="0"/>
        <pt x="213" y="362" on="0"/>
        <pt x="212" y="362" on="1"/>
        <pt x="180" y="355" on="0"/>
      </contour>
      <contour>
        <pt x="182" y="295" on="1"/>
        <pt x="92" y="-209" on="1"/>
        <pt x="63" y="-224" on="0"/>
        <pt x="41" y="-224" on="1"/>
        <pt x="27" y="-215" on="1"/>
        <pt x="33" y="-81" on="0"/>
        <pt x="90" y="147" on="0"/>
        <pt x="150" y="291" on="1"/>
      </contour>
    </TTGlyph>
    <TTGlyph name="f" xMin="15" yMin="-194" xMax="448" yMax="762">
      <contour>
        <pt x="431" y="684" on="1"/>
        <pt x="347" y="699" on="0"/>
        <pt x="293" y="699" on="0"/>
        <pt x="251" y="659" on="0"/>
        <pt x="236" y="620" on="1"/>
        <pt x="212" y="557" on="0"/>
        <pt x="193" y="451" on="1"/>
        <pt x="314" y="451" on="1"/>
        <pt x="314" y="442" on="0"/>
        <pt x="303" y="408" on="0"/>
        <pt x="295" y="408" on="1"/>
        <pt x="185" y="408" on="1"/>
        <pt x="119" y="52" on="1"/>
        <pt x="52" y="-189" on="1"/>
        <pt x="15" y="-194" on="1"/>
        <pt x="119" y="408" on="1"/>
        <pt x="60" y="408" on="1"/>
        <pt x="49" y="408" on="0"/>
        <pt x="49" y="432" on="0"/>
        <pt x="51" y="442" on="1"/>
        <pt x="127" y="455" on="1"/>
        <pt x="154" y="601" on="0"/>
        <pt x="268" y="741" on="0"/>
        <pt x="355" y="762" on="1"/>
        <pt x="375" y="762" on="0"/>
        <pt x="447" y="736" on="0"/>
        <pt x="448" y="736" on="1"/>
      </contour>
    </TTGlyph>
    <TTGlyph name="fi" xMin="15" yMin="-194" xMax="468" yMax="762">
      <contour>
        <pt x="364" y="408" on="1"/>
        <pt x="185" y="408" on="1"/>
        <pt x="119" y="52" on="1"/>
        <pt x="52" y="-189" on="1"/>
        <pt x="15" y="-194" on="1"/>
        <pt x="119" y="408" on="1"/>
        <pt x="60" y="408" on="1"/>
        <pt x="49" y="408" on="0"/>
        <pt x="49" y="432" on="0"/>
        <pt x="51" y="442" on="1"/>
        <pt x="127" y="455" on="1"/>
        <pt x="154" y="601" on="0"/>
        <pt x="268" y="741" on="0"/>
        <pt x="355" y="762" on="1"/>
        <pt x="376" y="762" on="0"/>
        <pt x="427" y="743" on="0"/>
        <pt x="464" y="730" on="0"/>
        <pt x="468" y="728" on="1"/>
        <pt x="451" y="679" on="1"/>
        <pt x="347" y="699" on="0"/>
        <pt x="293" y="699" on="0"/>
        <pt x="251" y="659" on="0"/>
        <pt x="236" y="620" on="1"/>
        <pt x="212" y="557" on="0"/>
        <pt x="193" y="451" on="1"/>
        <pt x="373" y="451" on="1"/>
        <pt x="418" y="488" on="0"/>
        <pt x="445" y="488" on="1"/>
        <pt x="460" y="479" on="1"/>
        <pt x="428" y="398" on="0"/>
        <pt x="355" y="101" on="0"/>
        <pt x="355" y="53" on="1"/>
        <pt x="419" y="46" on="0"/>
        <pt x="445" y="26" on="1"/>
        <pt x="439" y="7" on="1"/>
        <pt x="315" y="-12" on="1"/>
        <pt x="298" y="-12" on="0"/>
        <pt x="298" y="23" on="1"/>
        <pt x="298" y="99" on="0"/>
      </contour>
    </TTGlyph>
    <TTGlyph name="five" xMin="-1" yMin="-68" xMax="458" yMax="557">
      <contour>
        <pt x="71" y="105" on="1"/>
        <pt x="72" y="64" on="1"/>
        <pt x="72" y="24" on="0"/>
        <pt x="70" y="4" on="1"/>
        <pt x="111" y="-19" on="0"/>
        <pt x="227" y="-19" on="0"/>
        <pt x="329" y="59" on="0"/>
        <pt x="329" y="128" on="1"/>
        <pt x="329" y="181" on="0"/>
        <pt x="253" y="247" on="0"/>
        <pt x="183" y="247" on="1"/>
        <pt x="156" y="247" on="0"/>
        <pt x="129" y="242" on="1"/>
        <pt x="106" y="265" on="1"/>
        <pt x="166" y="532" on="1"/>
        <pt x="186" y="532" on="1"/>
        <pt x="325" y="532" on="0"/>
        <pt x="452" y="557" on="1"/>
        <pt x="458" y="540" on="1"/>
        <pt x="449" y="510" on="0"/>
        <pt x="427" y="481" on="1"/>
        <pt x="362" y="485" on="0"/>
        <pt x="217" y="485" on="1"/>
        <pt x="161" y="298" on="1"/>
        <pt x="170" y="299" on="0"/>
        <pt x="189" y="299" on="1"/>
        <pt x="302" y="299" on="0"/>
        <pt x="407" y="212" on="0"/>
        <pt x="407" y="142" on="1"/>
        <pt x="407" y="49" on="0"/>
        <pt x="260" y="-68" on="0"/>
        <pt x="70" y="-68" on="0"/>
        <pt x="-1" y="-29" on="1"/>
        <pt x="50" y="109" on="1"/>
      </contour>
    </TTGlyph>
    <TTGlyph name="fl" xMin="15" yMin="-194" xMax="531" yMax="762">
      <contour>
        <pt x="431" y="684" on="1"/>
        <pt x="347" y="699" on="0"/>
        <pt x="293" y="699" on="0"/>
        <pt x="251" y="659" on="0"/>
        <pt x="236" y="620" on="1"/>
        <pt x="212" y="557" on="0"/>
        <pt x="193" y="451" on="1"/>
        <pt x="314" y="451" on="1"/>
        <pt x="314" y="442" on="0"/>
        <pt x="303" y="408" on="0"/>
        <pt x="295" y="408" on="1"/>
        <pt x="185" y="408" on="1"/>
        <pt x="119" y="52" on="1"/>
        <pt x="52" y="-189" on="1"/>
        <pt x="15" y="-194" on="1"/>
        <pt x="119" y="408" on="1"/>
        <pt x="60" y="408" on="1"/>
        <pt x="49" y="408" on="0"/>
        <pt x="49" y="432" on="0"/>
        <pt x="51" y="442" on="1"/>
        <pt x="127" y="455" on="1"/>
        <pt x="154" y="601" on="0"/>
        <pt x="268" y="741" on="0"/>
        <pt x="355" y="762" on="1"/>
        <pt x="375" y="762" on="0"/>
        <pt x="447" y="736" on="0"/>
        <pt x="448" y="736" on="1"/>
      </contour>
      <contour>
        <pt x="323" y="-12" on="1"/>
        <pt x="306" y="-12" on="0"/>
        <pt x="306" y="23" on="1"/>
        <pt x="306" y="104" on="0"/>
        <pt x="440" y="727" on="0"/>
        <pt x="443" y="747" on="1"/>
        <pt x="482" y="762" on="0"/>
        <pt x="516" y="762" on="1"/>
        <pt x="531" y="753" on="1"/>
        <pt x="493" y="676" on="0"/>
        <pt x="363" y="117" on="0"/>
        <pt x="363" y="53" on="1"/>
        <pt x="427" y="46" on="0"/>
        <pt x="453" y="26" on="1"/>
        <pt x="447" y="7" on="1"/>
      </contour>
    </TTGlyph>
    <TTGlyph name="florin" xMin="-44" yMin="-231" xMax="496" yMax="613">
      <contour>
        <pt x="101" y="263" on="1"/>
        <pt x="107" y="300" on="1"/>
        <pt x="197" y="300" on="1"/>
        <pt x="219" y="424" on="1"/>
        <pt x="233" y="504" on="0"/>
        <pt x="334" y="613" on="0"/>
        <pt x="397" y="613" on="1"/>
        <pt x="416" y="613" on="0"/>
        <pt x="496" y="585" on="1"/>
        <pt x="480" y="536" on="1"/>
        <pt x="396" y="552" on="0"/>
        <pt x="331" y="552" on="0"/>
        <pt x="302" y="508" on="0"/>
        <pt x="294" y="465" on="1"/>
        <pt x="265" y="300" on="1"/>
        <pt x="398" y="300" on="1"/>
        <pt x="392" y="263" on="1"/>
        <pt x="258" y="263" on="1"/>
        <pt x="198" y="-82" on="1"/>
        <pt x="171" y="-231" on="0"/>
        <pt x="47" y="-231" on="1"/>
        <pt x="-10" y="-231" on="0"/>
        <pt x="-44" y="-202" on="1"/>
        <pt x="-20" y="-163" on="1"/>
        <pt x="8" y="-186" on="0"/>
        <pt x="52" y="-186" on="1"/>
        <pt x="113" y="-186" on="0"/>
        <pt x="132" y="-73" on="1"/>
        <pt x="191" y="263" on="1"/>
      </contour>
    </TTGlyph>
    <TTGlyph name="four" xMin="-8" yMin="-56" xMax="456" yMax="584">
      <contour>
        <pt x="406" y="365" on="1"/>
        <pt x="361" y="134" on="1"/>
        <pt x="456" y="134" on="1"/>
        <pt x="447" y="89" on="1"/>
        <pt x="353" y="89" on="1"/>
        <pt x="335" y="-3" on="1"/>
        <pt x="373" y="-12" on="0"/>
        <pt x="422" y="-34" on="1"/>
        <pt x="416" y="-56" on="1"/>
        <pt x="153" y="-56" on="1"/>
        <pt x="145" y="-30" on="1"/>
        <pt x="216" y="-10" on="0"/>
        <pt x="266" y="1" on="1"/>
        <pt x="283" y="89" on="1"/>
        <pt x="17" y="89" on="1"/>
        <pt x="-8" y="89" on="0"/>
        <pt x="-8" y="111" on="0"/>
        <pt x="54" y="218" on="1"/>
        <pt x="265" y="584" on="1"/>
        <pt x="330" y="562" on="1"/>
        <pt x="65" y="134" on="1"/>
        <pt x="291" y="134" on="1"/>
        <pt x="339" y="379" on="1"/>
        <pt x="339" y="381" on="0"/>
        <pt x="387" y="388" on="0"/>
        <pt x="394" y="388" on="1"/>
        <pt x="406" y="382" on="0"/>
      </contour>
    </TTGlyph>
    <TTGlyph name="fraction" xMin="-60" yMin="-208" xMax="365" yMax="672">
      <contour>
        <pt x="-60" y="-208" on="1"/>
        <pt x="306" y="672" on="1"/>
        <pt x="365" y="672" on="1"/>
        <pt x="-1" y="-208" on="1"/>
      </contour>
    </TTGlyph>
    <TTGlyph name="g" xMin="-56" yMin="-252" xMax="429" yMax="522">
      <contour>
        <pt x="160" y="444" on="0"/>
        <pt x="231" y="468" on="0"/>
        <pt x="291" y="468" on="0"/>
        <pt x="315" y="460" on="1"/>
        <pt x="359" y="520" on="0"/>
        <pt x="414" y="522" on="1"/>
        <pt x="429" y="493" on="0"/>
        <pt x="429" y="469" on="1"/>
        <pt x="420" y="454" on="1"/>
        <pt x="365" y="454" on="0"/>
        <pt x="345" y="444" on="1"/>
        <pt x="379" y="419" on="0"/>
        <pt x="379" y="316" on="0"/>
        <pt x="345" y="232" on="0"/>
        <pt x="295" y="180" on="0"/>
        <pt x="263" y="162" on="1"/>
        <pt x="205" y="131" on="0"/>
        <pt x="149" y="131" on="1"/>
        <pt x="143" y="131" on="1"/>
        <pt x="117" y="91" on="0"/>
        <pt x="108" y="67" on="1"/>
        <pt x="108" y="46" on="0"/>
        <pt x="131" y="42" on="1"/>
        <pt x="276" y="14" on="1"/>
        <pt x="328" y="4" on="0"/>
        <pt x="366" y="-19" on="0"/>
        <pt x="366" y="-46" on="1"/>
        <pt x="366" y="-121" on="0"/>
        <pt x="204" y="-252" on="0"/>
        <pt x="93" y="-252" on="1"/>
        <pt x="18" y="-252" on="0"/>
        <pt x="-56" y="-176" on="0"/>
        <pt x="-56" y="-106" on="1"/>
        <pt x="-21" y="-53" on="0"/>
        <pt x="67" y="0" on="1"/>
        <pt x="50" y="10" on="0"/>
        <pt x="50" y="33" on="1"/>
        <pt x="62" y="78" on="0"/>
        <pt x="102" y="137" on="1"/>
        <pt x="40" y="158" on="0"/>
        <pt x="40" y="233" on="1"/>
        <pt x="40" y="296" on="0"/>
        <pt x="87" y="393" on="0"/>
      </contour>
      <contour>
        <pt x="250" y="433" on="1"/>
        <pt x="188" y="433" on="0"/>
        <pt x="107" y="328" on="0"/>
        <pt x="107" y="241" on="1"/>
        <pt x="107" y="171" on="0"/>
        <pt x="226" y="171" on="0"/>
        <pt x="312" y="276" on="0"/>
        <pt x="312" y="362" on="1"/>
        <pt x="312" y="395" on="0"/>
        <pt x="278" y="433" on="0"/>
      </contour>
      <contour>
        <pt x="246" y="-40" on="1"/>
        <pt x="100" y="-11" on="1"/>
        <pt x="11" y="-84" on="0"/>
        <pt x="11" y="-106" on="1"/>
        <pt x="11" y="-204" on="0"/>
        <pt x="105" y="-204" on="1"/>
        <pt x="175" y="-204" on="0"/>
        <pt x="294" y="-120" on="0"/>
        <pt x="294" y="-69" on="1"/>
        <pt x="294" y="-59" on="0"/>
        <pt x="276" y="-46" on="0"/>
      </contour>
    </TTGlyph>
    <TTGlyph name="germandbls" xMin="15" yMin="-193" xMax="511" yMax="761">
      <contour>
        <pt x="479" y="725" on="1"/>
        <pt x="496" y="698" on="0"/>
        <pt x="496" y="625" on="0"/>
        <pt x="440" y="525" on="0"/>
        <pt x="407" y="487" on="1"/>
        <pt x="318" y="385" on="0"/>
        <pt x="318" y="327" on="0"/>
        <pt x="341" y="309" on="1"/>
        <pt x="447" y="217" on="1"/>
        <pt x="482" y="186" on="0"/>
        <pt x="511" y="139" on="0"/>
        <pt x="511" y="105" on="1"/>
        <pt x="511" y="52" on="0"/>
        <pt x="420" y="-12" on="0"/>
        <pt x="275" y="-12" on="0"/>
        <pt x="206" y="14" on="1"/>
        <pt x="236" y="141" on="1"/>
        <pt x="258" y="137" on="1"/>
        <pt x="268" y="91" on="0"/>
        <pt x="270" y="48" on="1"/>
        <pt x="314" y="32" on="0"/>
        <pt x="396" y="32" on="0"/>
        <pt x="442" y="65" on="0"/>
        <pt x="442" y="132" on="0"/>
        <pt x="403" y="166" on="1"/>
        <pt x="308" y="248" on="1"/>
        <pt x="282" y="270" on="0"/>
        <pt x="262" y="308" on="0"/>
        <pt x="262" y="372" on="0"/>
        <pt x="314" y="460" on="0"/>
        <pt x="377" y="535" on="0"/>
        <pt x="431" y="637" on="0"/>
        <pt x="432" y="682" on="1"/>
        <pt x="379" y="696" on="0"/>
        <pt x="325" y="696" on="1"/>
        <pt x="272" y="696" on="0"/>
        <pt x="241" y="617" on="1"/>
        <pt x="213" y="545" on="0"/>
        <pt x="196" y="449" on="1"/>
        <pt x="122" y="53" on="1"/>
        <pt x="55" y="-188" on="1"/>
        <pt x="15" y="-193" on="1"/>
        <pt x="116" y="396" on="1"/>
        <pt x="44" y="396" on="1"/>
        <pt x="36" y="422" on="1"/>
        <pt x="78" y="438" on="0"/>
        <pt x="126" y="455" on="1"/>
        <pt x="147" y="573" on="0"/>
        <pt x="274" y="742" on="0"/>
        <pt x="359" y="761" on="1"/>
        <pt x="382" y="761" on="0"/>
      </contour>
    </TTGlyph>
    <TTGlyph name="grave" xMin="-24" yMin="514" xMax="150" yMax="714">
      <contour>
        <pt x="150" y="530" on="1"/>
        <pt x="135" y="514" on="1"/>
        <pt x="33" y="578" on="0"/>
        <pt x="-20" y="640" on="1"/>
        <pt x="-24" y="659" on="1"/>
        <pt x="-21" y="673" on="0"/>
        <pt x="6" y="707" on="0"/>
        <pt x="16" y="714" on="1"/>
        <pt x="72" y="628" on="0"/>
        <pt x="130" y="554" on="1"/>
      </contour>
    </TTGlyph>
    <TTGlyph name="greater" xMin="59" yMin="87" xMax="444" yMax="468">
      <contour>
        <pt x="116" y="408" on="1"/>
        <pt x="127" y="468" on="1"/>
        <pt x="444" y="306" on="1"/>
        <pt x="434" y="249" on="1"/>
        <pt x="59" y="87" on="1"/>
        <pt x="70" y="147" on="1"/>
        <pt x="377" y="277" on="1"/>
      </contour>
    </TTGlyph>
    <TTGlyph name="greaterequal" xMin="45" yMin="0" xMax="444" yMax="468">
      <contour>
        <pt x="116" y="408" on="1"/>
        <pt x="127" y="468" on="1"/>
        <pt x="444" y="306" on="1"/>
        <pt x="434" y="249" on="1"/>
        <pt x="59" y="87" on="1"/>
        <pt x="70" y="147" on="1"/>
        <pt x="377" y="277" on="1"/>
      </contour>
      <contour>
        <pt x="45" y="0" on="1"/>
        <pt x="55" y="57" on="1"/>
        <pt x="401" y="57" on="1"/>
        <pt x="391" y="0" on="1"/>
      </contour>
    </TTGlyph>
    <TTGlyph name="guillemotleft" xMin="50" yMin="15" xMax="448" yMax="444">
      <contour>
        <pt x="205" y="213" on="1"/>
        <pt x="210" y="241" on="1"/>
        <pt x="425" y="444" on="1"/>
        <pt x="448" y="420" on="1"/>
        <pt x="291" y="227" on="1"/>
        <pt x="379" y="34" on="1"/>
        <pt x="348" y="15" on="1"/>
      </contour>
      <contour>
        <pt x="50" y="213" on="1"/>
        <pt x="55" y="241" on="1"/>
        <pt x="270" y="444" on="1"/>
        <pt x="294" y="420" on="1"/>
        <pt x="136" y="227" on="1"/>
        <pt x="225" y="34" on="1"/>
        <pt x="193" y="15" on="1"/>
      </contour>
    </TTGlyph>
    <TTGlyph name="guillemotright" xMin="0" yMin="10" xMax="398" yMax="439">
      <contour>
        <pt x="398" y="241" on="1"/>
        <pt x="393" y="213" on="1"/>
        <pt x="178" y="10" on="1"/>
        <pt x="154" y="34" on="1"/>
        <pt x="312" y="227" on="1"/>
        <pt x="223" y="420" on="1"/>
        <pt x="255" y="439" on="1"/>
      </contour>
      <contour>
        <pt x="243" y="241" on="1"/>
        <pt x="238" y="213" on="1"/>
        <pt x="23" y="10" on="1"/>
        <pt x="0" y="34" on="1"/>
        <pt x="157" y="227" on="1"/>
        <pt x="69" y="420" on="1"/>
        <pt x="100" y="439" on="1"/>
      </contour>
    </TTGlyph>
    <TTGlyph name="guilsinglleft" xMin="50" yMin="15" xMax="294" yMax="444">
      <contour>
        <pt x="50" y="213" on="1"/>
        <pt x="55" y="241" on="1"/>
        <pt x="270" y="444" on="1"/>
        <pt x="294" y="420" on="1"/>
        <pt x="136" y="227" on="1"/>
        <pt x="225" y="34" on="1"/>
        <pt x="193" y="15" on="1"/>
      </contour>
    </TTGlyph>
    <TTGlyph name="guilsinglright" xMin="0" yMin="10" xMax="244" yMax="439">
      <contour>
        <pt x="244" y="241" on="1"/>
        <pt x="239" y="213" on="1"/>
        <pt x="24" y="10" on="1"/>
        <pt x="0" y="34" on="1"/>
        <pt x="158" y="227" on="1"/>
        <pt x="69" y="420" on="1"/>
        <pt x="101" y="439" on="1"/>
      </contour>
    </TTGlyph>
    <TTGlyph name="h" xMin="22" yMin="-12" xMax="443" yMax="762">
      <contour>
        <pt x="363" y="53" on="1"/>
        <pt x="416" y="43" on="0"/>
        <pt x="438" y="27" on="1"/>
        <pt x="432" y="8" on="1"/>
        <pt x="298" y="-12" on="1"/>
        <pt x="281" y="-12" on="0"/>
        <pt x="281" y="23" on="1"/>
        <pt x="319" y="102" on="0"/>
        <pt x="376" y="320" on="0"/>
        <pt x="376" y="378" on="1"/>
        <pt x="376" y="412" on="0"/>
        <pt x="351" y="412" on="1"/>
        <pt x="296" y="412" on="0"/>
        <pt x="149" y="169" on="1"/>
        <pt x="112" y="3" on="1"/>
        <pt x="72" y="-12" on="0"/>
        <pt x="37" y="-12" on="1"/>
        <pt x="22" y="-3" on="1"/>
        <pt x="70" y="90" on="0"/>
        <pt x="176" y="598" on="0"/>
        <pt x="176" y="694" on="1"/>
        <pt x="129" y="699" on="0"/>
        <pt x="96" y="724" on="1"/>
        <pt x="102" y="743" on="1"/>
        <pt x="242" y="762" on="1"/>
        <pt x="251" y="762" on="0"/>
        <pt x="251" y="727" on="1"/>
        <pt x="251" y="650" on="0"/>
        <pt x="160" y="253" on="1"/>
        <pt x="235" y="375" on="0"/>
        <pt x="338" y="468" on="0"/>
        <pt x="381" y="468" on="1"/>
        <pt x="410" y="468" on="0"/>
        <pt x="443" y="416" on="0"/>
        <pt x="443" y="340" on="0"/>
        <pt x="414" y="224" on="0"/>
      </contour>
    </TTGlyph>
    <TTGlyph name="hungarumlaut" xMin="50" yMin="502" xMax="424" yMax="702">
      <contour>
        <pt x="265" y="502" on="1"/>
        <pt x="250" y="518" on="1"/>
        <pt x="320" y="606" on="0"/>
        <pt x="384" y="702" on="1"/>
        <pt x="394" y="695" on="0"/>
        <pt x="421" y="661" on="0"/>
        <pt x="424" y="647" on="1"/>
        <pt x="420" y="628" on="1"/>
        <pt x="367" y="566" on="0"/>
      </contour>
      <contour>
        <pt x="65" y="502" on="1"/>
        <pt x="50" y="518" on="1"/>
        <pt x="120" y="606" on="0"/>
        <pt x="184" y="702" on="1"/>
        <pt x="194" y="695" on="0"/>
        <pt x="221" y="661" on="0"/>
        <pt x="224" y="647" on="1"/>
        <pt x="220" y="628" on="1"/>
        <pt x="167" y="566" on="0"/>
      </contour>
    </TTGlyph>
    <TTGlyph name="hyphen" xMin="50" yMin="220" xMax="340" yMax="279">
      <contour>
        <pt x="333" y="279" on="1"/>
        <pt x="340" y="246" on="1"/>
        <pt x="287" y="220" on="0"/>
        <pt x="167" y="220" on="1"/>
        <pt x="105" y="220" on="0"/>
        <pt x="55" y="229" on="1"/>
        <pt x="50" y="279" on="1"/>
      </contour>
    </TTGlyph>
    <TTGlyph name="i" xMin="50" yMin="-12" xMax="247" yMax="662">
      <contour>
        <pt x="222" y="662" on="1"/>
        <pt x="247" y="662" on="0"/>
        <pt x="247" y="628" on="1"/>
        <pt x="247" y="602" on="0"/>
        <pt x="229" y="556" on="0"/>
        <pt x="228" y="556" on="1"/>
        <pt x="198" y="547" on="0"/>
        <pt x="179" y="547" on="1"/>
        <pt x="153" y="547" on="0"/>
        <pt x="153" y="579" on="1"/>
        <pt x="153" y="609" on="0"/>
        <pt x="167" y="643" on="1"/>
        <pt x="172" y="655" on="1"/>
        <pt x="204" y="662" on="0"/>
      </contour>
      <contour>
        <pt x="67" y="-12" on="1"/>
        <pt x="50" y="-12" on="0"/>
        <pt x="50" y="23" on="1"/>
        <pt x="50" y="106" on="0"/>
        <pt x="125" y="451" on="1"/>
        <pt x="164" y="466" on="0"/>
        <pt x="189" y="466" on="1"/>
        <pt x="204" y="457" on="1"/>
        <pt x="172" y="377" on="0"/>
        <pt x="107" y="102" on="0"/>
        <pt x="107" y="53" on="1"/>
        <pt x="171" y="46" on="0"/>
        <pt x="197" y="26" on="1"/>
        <pt x="191" y="7" on="1"/>
      </contour>
    </TTGlyph>
    <TTGlyph name="iacute" xMin="50" yMin="-12" xMax="291" yMax="702">
      <component glyphName="dotlessi" x="0" y="0" flags="0x1004"/>
      <component glyphName="acute" x="67" y="0" flags="0x1004"/>
    </TTGlyph>
    <TTGlyph name="icircumflex" xMin="40" yMin="-12" xMax="296" yMax="688">
      <contour>
        <pt x="67" y="-12" on="1"/>
        <pt x="50" y="-12" on="0"/>
        <pt x="50" y="23" on="1"/>
        <pt x="50" y="106" on="0"/>
        <pt x="125" y="451" on="1"/>
        <pt x="164" y="466" on="0"/>
        <pt x="189" y="466" on="1"/>
        <pt x="204" y="457" on="1"/>
        <pt x="172" y="377" on="0"/>
        <pt x="107" y="102" on="0"/>
        <pt x="107" y="53" on="1"/>
        <pt x="171" y="46" on="0"/>
        <pt x="197" y="26" on="1"/>
        <pt x="191" y="7" on="1"/>
      </contour>
      <contour>
        <pt x="182" y="685" on="1"/>
        <pt x="206" y="688" on="1"/>
        <pt x="218" y="688" on="0"/>
        <pt x="230" y="685" on="1"/>
        <pt x="296" y="518" on="1"/>
        <pt x="277" y="504" on="1"/>
        <pt x="227" y="563" on="0"/>
        <pt x="198" y="608" on="1"/>
        <pt x="161" y="576" on="0"/>
        <pt x="59" y="504" on="1"/>
        <pt x="40" y="521" on="1"/>
        <pt x="101" y="580" on="0"/>
      </contour>
    </TTGlyph>
    <TTGlyph name="idieresis" xMin="50" yMin="-12" xMax="300" yMax="659">
      <component glyphName="dotlessi" x="0" y="0" flags="0x1004"/>
      <component glyphName="dieresis" x="2" y="0" flags="0x1004"/>
    </TTGlyph>
    <TTGlyph name="igrave" xMin="50" yMin="-12" xMax="244" yMax="714">
      <contour>
        <pt x="67" y="-12" on="1"/>
        <pt x="50" y="-12" on="0"/>
        <pt x="50" y="23" on="1"/>
        <pt x="50" y="106" on="0"/>
        <pt x="125" y="451" on="1"/>
        <pt x="164" y="466" on="0"/>
        <pt x="189" y="466" on="1"/>
        <pt x="204" y="457" on="1"/>
        <pt x="172" y="377" on="0"/>
        <pt x="107" y="102" on="0"/>
        <pt x="107" y="53" on="1"/>
        <pt x="171" y="46" on="0"/>
        <pt x="197" y="26" on="1"/>
        <pt x="191" y="7" on="1"/>
      </contour>
      <contour>
        <pt x="244" y="530" on="1"/>
        <pt x="229" y="514" on="1"/>
        <pt x="127" y="578" on="0"/>
        <pt x="74" y="640" on="1"/>
        <pt x="70" y="659" on="1"/>
        <pt x="73" y="673" on="0"/>
        <pt x="100" y="707" on="0"/>
        <pt x="110" y="714" on="1"/>
        <pt x="166" y="628" on="0"/>
        <pt x="224" y="554" on="1"/>
      </contour>
    </TTGlyph>
    <TTGlyph name="infinity" xMin="50" yMin="100" xMax="673" yMax="454">
      <contour>
        <pt x="493" y="100" on="1"/>
        <pt x="445" y="100" on="0"/>
        <pt x="383" y="161" on="0"/>
        <pt x="356" y="217" on="1"/>
        <pt x="348" y="206" on="1"/>
        <pt x="264" y="100" on="0"/>
        <pt x="167" y="100" on="1"/>
        <pt x="115" y="100" on="0"/>
        <pt x="50" y="172" on="0"/>
        <pt x="50" y="235" on="1"/>
        <pt x="50" y="327" on="0"/>
        <pt x="160" y="454" on="0"/>
        <pt x="232" y="454" on="1"/>
        <pt x="280" y="454" on="0"/>
        <pt x="341" y="394" on="0"/>
        <pt x="368" y="339" on="1"/>
        <pt x="375" y="348" on="1"/>
        <pt x="457" y="454" on="0"/>
        <pt x="558" y="454" on="1"/>
        <pt x="610" y="454" on="0"/>
        <pt x="673" y="383" on="0"/>
        <pt x="673" y="320" on="1"/>
        <pt x="673" y="228" on="0"/>
        <pt x="565" y="100" on="0"/>
      </contour>
      <contour>
        <pt x="180" y="175" on="1"/>
        <pt x="242" y="175" on="0"/>
        <pt x="306" y="259" on="1"/>
        <pt x="325" y="283" on="1"/>
        <pt x="302" y="329" on="0"/>
        <pt x="252" y="378" on="0"/>
        <pt x="168" y="378" on="0"/>
        <pt x="99" y="311" on="0"/>
        <pt x="99" y="220" on="0"/>
        <pt x="143" y="175" on="0"/>
      </contour>
      <contour>
        <pt x="545" y="379" on="1"/>
        <pt x="484" y="379" on="0"/>
        <pt x="418" y="295" on="1"/>
        <pt x="400" y="272" on="1"/>
        <pt x="424" y="225" on="0"/>
        <pt x="473" y="176" on="0"/>
        <pt x="557" y="176" on="0"/>
        <pt x="626" y="243" on="0"/>
        <pt x="626" y="334" on="0"/>
        <pt x="582" y="379" on="0"/>
      </contour>
    </TTGlyph>
    <TTGlyph name="integral" xMin="10" yMin="-126" xMax="392" yMax="752">
      <contour>
        <pt x="271" y="508" on="1"/>
        <pt x="197" y="90" on="1"/>
        <pt x="185" y="22" on="0"/>
        <pt x="112" y="-67" on="0"/>
        <pt x="28" y="-126" on="1"/>
        <pt x="10" y="-97" on="1"/>
        <pt x="66" y="-51" on="0"/>
        <pt x="119" y="49" on="0"/>
        <pt x="131" y="118" on="1"/>
        <pt x="205" y="536" on="1"/>
        <pt x="217" y="603" on="0"/>
        <pt x="290" y="692" on="0"/>
        <pt x="374" y="752" on="1"/>
        <pt x="392" y="723" on="1"/>
        <pt x="337" y="676" on="0"/>
        <pt x="283" y="576" on="0"/>
      </contour>
    </TTGlyph>
    <TTGlyph name="j" xMin="-60" yMin="-262" xMax="239" yMax="662">
      <contour>
        <pt x="216" y="662" on="1"/>
        <pt x="239" y="662" on="0"/>
        <pt x="239" y="627" on="1"/>
        <pt x="239" y="602" on="0"/>
        <pt x="227" y="568" on="1"/>
        <pt x="223" y="556" on="1"/>
        <pt x="194" y="547" on="0"/>
        <pt x="176" y="547" on="1"/>
        <pt x="150" y="547" on="0"/>
        <pt x="150" y="578" on="1"/>
        <pt x="150" y="602" on="0"/>
        <pt x="167" y="655" on="0"/>
        <pt x="168" y="655" on="1"/>
        <pt x="199" y="662" on="0"/>
      </contour>
      <contour>
        <pt x="207" y="427" on="1"/>
        <pt x="138" y="72" on="1"/>
        <pt x="123" y="-2" on="0"/>
        <pt x="37" y="-179" on="0"/>
        <pt x="-36" y="-262" on="1"/>
        <pt x="-60" y="-241" on="1"/>
        <pt x="52" y="-88" on="0"/>
        <pt x="79" y="69" on="1"/>
        <pt x="136" y="394" on="1"/>
        <pt x="89" y="399" on="0"/>
        <pt x="56" y="424" on="1"/>
        <pt x="62" y="443" on="1"/>
        <pt x="198" y="462" on="1"/>
        <pt x="207" y="462" on="0"/>
      </contour>
    </TTGlyph>
    <TTGlyph name="k" xMin="22" yMin="-12" xMax="443" yMax="762">
      <contour>
        <pt x="275" y="195" on="1"/>
        <pt x="288" y="151" on="0"/>
        <pt x="343" y="53" on="1"/>
        <pt x="407" y="46" on="0"/>
        <pt x="433" y="26" on="1"/>
        <pt x="427" y="7" on="1"/>
        <pt x="303" y="-12" on="1"/>
        <pt x="286" y="-12" on="0"/>
        <pt x="223" y="172" on="0"/>
        <pt x="223" y="219" on="1"/>
        <pt x="300" y="242" on="0"/>
        <pt x="379" y="332" on="0"/>
        <pt x="379" y="412" on="0"/>
        <pt x="354" y="412" on="1"/>
        <pt x="296" y="412" on="0"/>
        <pt x="149" y="169" on="1"/>
        <pt x="112" y="3" on="1"/>
        <pt x="72" y="-12" on="0"/>
        <pt x="37" y="-12" on="1"/>
        <pt x="22" y="-3" on="1"/>
        <pt x="70" y="90" on="0"/>
        <pt x="176" y="598" on="0"/>
        <pt x="176" y="694" on="1"/>
        <pt x="129" y="699" on="0"/>
        <pt x="96" y="724" on="1"/>
        <pt x="102" y="743" on="1"/>
        <pt x="242" y="762" on="1"/>
        <pt x="251" y="762" on="0"/>
        <pt x="251" y="727" on="1"/>
        <pt x="251" y="650" on="0"/>
        <pt x="160" y="253" on="1"/>
        <pt x="235" y="375" on="0"/>
        <pt x="338" y="468" on="0"/>
        <pt x="381" y="468" on="1"/>
        <pt x="443" y="468" on="0"/>
        <pt x="443" y="384" on="1"/>
        <pt x="443" y="340" on="0"/>
        <pt x="361" y="234" on="0"/>
      </contour>
    </TTGlyph>
    <TTGlyph name="l" xMin="40" yMin="-12" xMax="265" yMax="762">
      <contour>
        <pt x="57" y="-12" on="1"/>
        <pt x="40" y="-12" on="0"/>
        <pt x="40" y="23" on="1"/>
        <pt x="40" y="104" on="0"/>
        <pt x="174" y="727" on="0"/>
        <pt x="177" y="747" on="1"/>
        <pt x="216" y="762" on="0"/>
        <pt x="250" y="762" on="1"/>
        <pt x="265" y="753" on="1"/>
        <pt x="227" y="676" on="0"/>
        <pt x="97" y="117" on="0"/>
        <pt x="97" y="53" on="1"/>
        <pt x="161" y="46" on="0"/>
        <pt x="187" y="26" on="1"/>
        <pt x="181" y="7" on="1"/>
      </contour>
    </TTGlyph>
    <TTGlyph name="less" xMin="88" yMin="87" xMax="473" yMax="468">
      <contour>
        <pt x="416" y="147" on="1"/>
        <pt x="405" y="87" on="1"/>
        <pt x="88" y="249" on="1"/>
        <pt x="98" y="306" on="1"/>
        <pt x="473" y="468" on="1"/>
        <pt x="462" y="408" on="1"/>
        <pt x="155" y="277" on="1"/>
      </contour>
    </TTGlyph>
    <TTGlyph name="lessequal" xMin="45" yMin="0" xMax="473" yMax="468">
      <contour>
        <pt x="416" y="147" on="1"/>
        <pt x="405" y="87" on="1"/>
        <pt x="88" y="249" on="1"/>
        <pt x="98" y="306" on="1"/>
        <pt x="473" y="468" on="1"/>
        <pt x="462" y="408" on="1"/>
        <pt x="155" y="277" on="1"/>
      </contour>
      <contour>
        <pt x="45" y="0" on="1"/>
        <pt x="55" y="57" on="1"/>
        <pt x="401" y="57" on="1"/>
        <pt x="391" y="0" on="1"/>
      </contour>
    </TTGlyph>
    <TTGlyph name="logicalnot" xMin="69" yMin="137" xMax="449" yMax="306">
      <contour>
        <pt x="419" y="137" on="1"/>
        <pt x="368" y="137" on="1"/>
        <pt x="398" y="306" on="1"/>
        <pt x="449" y="306" on="1"/>
      </contour>
      <contour>
        <pt x="69" y="249" on="1"/>
        <pt x="79" y="306" on="1"/>
        <pt x="425" y="306" on="1"/>
        <pt x="415" y="249" on="1"/>
      </contour>
    </TTGlyph>
    <TTGlyph name="lozenge" xMin="58" yMin="-79" xMax="531" yMax="700">
      <contour>
        <pt x="263" y="-79" on="1"/>
        <pt x="189" y="-79" on="1"/>
        <pt x="58" y="310" on="1"/>
        <pt x="326" y="700" on="1"/>
        <pt x="400" y="700" on="1"/>
        <pt x="531" y="310" on="1"/>
      </contour>
      <contour>
        <pt x="339" y="640" on="1"/>
        <pt x="117" y="310" on="1"/>
        <pt x="223" y="-19" on="1"/>
        <pt x="452" y="310" on="1"/>
      </contour>
    </TTGlyph>
    <TTGlyph name="lslash" xMin="13" yMin="-12" xMax="265" yMax="762">
      <contour>
        <pt x="239" y="456" on="1"/>
        <pt x="256" y="444" on="0"/>
        <pt x="262" y="438" on="1"/>
        <pt x="264" y="426" on="1"/>
        <pt x="193" y="380" on="0"/>
        <pt x="53" y="302" on="1"/>
        <pt x="23" y="320" on="0"/>
        <pt x="15" y="330" on="1"/>
        <pt x="13" y="343" on="1"/>
        <pt x="110" y="379" on="0"/>
      </contour>
      <contour>
        <pt x="57" y="-12" on="1"/>
        <pt x="40" y="-12" on="0"/>
        <pt x="40" y="23" on="1"/>
        <pt x="40" y="104" on="0"/>
        <pt x="174" y="727" on="0"/>
        <pt x="177" y="747" on="1"/>
        <pt x="216" y="762" on="0"/>
        <pt x="250" y="762" on="1"/>
        <pt x="265" y="753" on="1"/>
        <pt x="227" y="676" on="0"/>
        <pt x="97" y="117" on="0"/>
        <pt x="97" y="53" on="1"/>
        <pt x="161" y="46" on="0"/>
        <pt x="187" y="26" on="1"/>
        <pt x="181" y="7" on="1"/>
      </contour>
    </TTGlyph>
    <TTGlyph name="m" xMin="40" yMin="-12" xMax="693" yMax="468">
      <contour>
        <pt x="130" y="3" on="1"/>
        <pt x="88" y="-12" on="0"/>
        <pt x="55" y="-12" on="1"/>
        <pt x="40" y="-3" on="1"/>
        <pt x="76" y="76" on="0"/>
        <pt x="136" y="326" on="0"/>
        <pt x="136" y="388" on="1"/>
        <pt x="89" y="393" on="0"/>
        <pt x="56" y="418" on="1"/>
        <pt x="62" y="437" on="1"/>
        <pt x="186" y="456" on="1"/>
        <pt x="195" y="456" on="0"/>
        <pt x="195" y="372" on="0"/>
        <pt x="175" y="252" on="1"/>
        <pt x="248" y="375" on="0"/>
        <pt x="347" y="468" on="0"/>
        <pt x="383" y="468" on="1"/>
        <pt x="451" y="468" on="0"/>
        <pt x="451" y="374" on="1"/>
        <pt x="451" y="348" on="0"/>
        <pt x="442" y="292" on="1"/>
        <pt x="504" y="391" on="0"/>
        <pt x="593" y="468" on="0"/>
        <pt x="661" y="468" on="0"/>
        <pt x="693" y="416" on="0"/>
        <pt x="693" y="340" on="0"/>
        <pt x="664" y="224" on="0"/>
        <pt x="613" y="53" on="1"/>
        <pt x="663" y="44" on="0"/>
        <pt x="688" y="27" on="1"/>
        <pt x="682" y="8" on="1"/>
        <pt x="548" y="-12" on="1"/>
        <pt x="531" y="-12" on="0"/>
        <pt x="531" y="23" on="1"/>
        <pt x="569" y="103" on="0"/>
        <pt x="626" y="323" on="0"/>
        <pt x="626" y="384" on="1"/>
        <pt x="626" y="412" on="0"/>
        <pt x="601" y="412" on="1"/>
        <pt x="550" y="412" on="0"/>
        <pt x="418" y="189" on="1"/>
        <pt x="399" y="113" on="0"/>
        <pt x="360" y="3" on="1"/>
        <pt x="327" y="-12" on="0"/>
        <pt x="301" y="-12" on="1"/>
        <pt x="286" y="-3" on="1"/>
        <pt x="323" y="77" on="0"/>
        <pt x="384" y="323" on="0"/>
        <pt x="384" y="384" on="1"/>
        <pt x="384" y="412" on="0"/>
        <pt x="359" y="412" on="1"/>
        <pt x="305" y="412" on="0"/>
        <pt x="159" y="160" on="1"/>
        <pt x="143" y="68" on="0"/>
      </contour>
    </TTGlyph>
    <TTGlyph name="macron" xMin="112" yMin="558" xMax="390" yMax="621">
      <contour>
        <pt x="112" y="558" on="1"/>
        <pt x="123" y="621" on="1"/>
        <pt x="390" y="621" on="1"/>
        <pt x="379" y="558" on="1"/>
      </contour>
    </TTGlyph>
    <TTGlyph name="minus" xMin="88" yMin="249" xMax="444" yMax="306">
      <contour>
        <pt x="88" y="249" on="1"/>
        <pt x="98" y="306" on="1"/>
        <pt x="444" y="306" on="1"/>
        <pt x="434" y="249" on="1"/>
      </contour>
    </TTGlyph>
    <TTGlyph name="mu" xMin="-10" yMin="-227" xMax="486" yMax="466">
      <contour>
        <pt x="346" y="-12" on="1"/>
        <pt x="329" y="-12" on="0"/>
        <pt x="329" y="23" on="1"/>
        <pt x="329" y="78" on="0"/>
        <pt x="350" y="201" on="1"/>
        <pt x="274" y="78" on="0"/>
        <pt x="170" y="-17" on="0"/>
        <pt x="127" y="-17" on="1"/>
        <pt x="98" y="-17" on="0"/>
        <pt x="88" y="16" on="1"/>
        <pt x="79" y="-101" on="1"/>
        <pt x="79" y="-159" on="0"/>
        <pt x="80" y="-184" on="1"/>
        <pt x="40" y="-223" on="0"/>
        <pt x="6" y="-227" on="1"/>
        <pt x="-10" y="-220" on="1"/>
        <pt x="3" y="-164" on="0"/>
        <pt x="49" y="51" on="0"/>
        <pt x="64" y="118" on="1"/>
        <pt x="104" y="297" on="0"/>
        <pt x="157" y="451" on="1"/>
        <pt x="188" y="466" on="0"/>
        <pt x="214" y="466" on="1"/>
        <pt x="229" y="457" on="1"/>
        <pt x="192" y="367" on="0"/>
        <pt x="132" y="132" on="0"/>
        <pt x="132" y="67" on="1"/>
        <pt x="132" y="39" on="0"/>
        <pt x="157" y="39" on="1"/>
        <pt x="212" y="39" on="0"/>
        <pt x="366" y="293" on="1"/>
        <pt x="377" y="354" on="0"/>
        <pt x="396" y="451" on="1"/>
        <pt x="436" y="466" on="0"/>
        <pt x="471" y="466" on="1"/>
        <pt x="486" y="457" on="1"/>
        <pt x="450" y="378" on="0"/>
        <pt x="386" y="115" on="0"/>
        <pt x="386" y="53" on="1"/>
        <pt x="450" y="46" on="0"/>
        <pt x="476" y="26" on="1"/>
        <pt x="470" y="7" on="1"/>
      </contour>
    </TTGlyph>
    <TTGlyph name="multiply" xMin="89" yMin="115" xMax="442" yMax="440">
      <contour>
        <pt x="120" y="115" on="1"/>
        <pt x="89" y="155" on="1"/>
        <pt x="227" y="277" on="1"/>
        <pt x="133" y="400" on="1"/>
        <pt x="178" y="440" on="1"/>
        <pt x="272" y="317" on="1"/>
        <pt x="411" y="440" on="1"/>
        <pt x="442" y="400" on="1"/>
        <pt x="303" y="277" on="1"/>
        <pt x="398" y="155" on="1"/>
        <pt x="353" y="115" on="1"/>
        <pt x="258" y="237" on="1"/>
      </contour>
    </TTGlyph>
    <TTGlyph name="n" xMin="40" yMin="-12" xMax="461" yMax="468">
      <contour>
        <pt x="130" y="3" on="1"/>
        <pt x="90" y="-12" on="0"/>
        <pt x="55" y="-12" on="1"/>
        <pt x="40" y="-3" on="1"/>
        <pt x="76" y="75" on="0"/>
        <pt x="136" y="332" on="0"/>
        <pt x="136" y="394" on="1"/>
        <pt x="89" y="399" on="0"/>
        <pt x="56" y="424" on="1"/>
        <pt x="62" y="443" on="1"/>
        <pt x="186" y="462" on="1"/>
        <pt x="195" y="462" on="0"/>
        <pt x="195" y="373" on="0"/>
        <pt x="174" y="247" on="1"/>
        <pt x="251" y="372" on="0"/>
        <pt x="355" y="468" on="0"/>
        <pt x="399" y="468" on="1"/>
        <pt x="428" y="468" on="0"/>
        <pt x="461" y="416" on="0"/>
        <pt x="461" y="340" on="0"/>
        <pt x="432" y="224" on="0"/>
        <pt x="381" y="53" on="1"/>
        <pt x="434" y="43" on="0"/>
        <pt x="456" y="27" on="1"/>
        <pt x="450" y="8" on="1"/>
        <pt x="316" y="-12" on="1"/>
        <pt x="299" y="-12" on="0"/>
        <pt x="299" y="23" on="1"/>
        <pt x="337" y="102" on="0"/>
        <pt x="394" y="320" on="0"/>
        <pt x="394" y="378" on="1"/>
        <pt x="394" y="412" on="0"/>
        <pt x="369" y="412" on="1"/>
        <pt x="313" y="412" on="0"/>
        <pt x="159" y="156" on="1"/>
        <pt x="159" y="155" on="0"/>
      </contour>
    </TTGlyph>
    <TTGlyph name="nine" xMin="38" yMin="-131" xMax="474" yMax="563">
      <contour>
        <pt x="38" y="-97" on="1"/>
        <pt x="139" y="-26" on="0"/>
        <pt x="288" y="111" on="0"/>
        <pt x="333" y="192" on="1"/>
        <pt x="236" y="192" on="1"/>
        <pt x="165" y="192" on="0"/>
        <pt x="75" y="266" on="0"/>
        <pt x="75" y="335" on="1"/>
        <pt x="75" y="435" on="0"/>
        <pt x="221" y="563" on="0"/>
        <pt x="310" y="563" on="1"/>
        <pt x="380" y="563" on="0"/>
        <pt x="474" y="475" on="0"/>
        <pt x="474" y="307" on="0"/>
        <pt x="407" y="155" on="0"/>
        <pt x="279" y="23" on="0"/>
        <pt x="151" y="-75" on="0"/>
        <pt x="62" y="-131" on="1"/>
      </contour>
      <contour>
        <pt x="303" y="512" on="1"/>
        <pt x="238" y="512" on="0"/>
        <pt x="154" y="404" on="0"/>
        <pt x="154" y="335" on="1"/>
        <pt x="154" y="240" on="0"/>
        <pt x="260" y="240" on="1"/>
        <pt x="303" y="240" on="0"/>
        <pt x="363" y="256" on="1"/>
        <pt x="388" y="323" on="0"/>
        <pt x="388" y="395" on="1"/>
        <pt x="388" y="512" on="0"/>
      </contour>
    </TTGlyph>
    <TTGlyph name="notequal" xMin="74" yMin="-35" xMax="458" yMax="581">
      <contour>
        <pt x="102" y="330" on="1"/>
        <pt x="112" y="387" on="1"/>
        <pt x="458" y="387" on="1"/>
        <pt x="448" y="330" on="1"/>
      </contour>
      <contour>
        <pt x="74" y="168" on="1"/>
        <pt x="84" y="225" on="1"/>
        <pt x="430" y="225" on="1"/>
        <pt x="420" y="168" on="1"/>
      </contour>
      <contour>
        <pt x="118" y="-35" on="1"/>
        <pt x="374" y="581" on="1"/>
        <pt x="415" y="581" on="1"/>
        <pt x="159" y="-35" on="1"/>
      </contour>
    </TTGlyph>
    <TTGlyph name="ntilde" xMin="40" yMin="-12" xMax="493" yMax="642">
      <component glyphName="n" x="0" y="0" flags="0x1004"/>
      <component glyphName="tilde" x="67" y="0" flags="0x1004"/>
    </TTGlyph>
    <TTGlyph name="numbersign" xMin="2" yMin="0" xMax="508" yMax="554">
      <contour>
        <pt x="48" y="330" on="1"/>
        <pt x="68" y="387" on="1"/>
        <pt x="182" y="387" on="1"/>
        <pt x="241" y="554" on="1"/>
        <pt x="298" y="554" on="1"/>
        <pt x="239" y="387" on="1"/>
        <pt x="344" y="387" on="1"/>
        <pt x="403" y="554" on="1"/>
        <pt x="460" y="554" on="1"/>
        <pt x="401" y="387" on="1"/>
        <pt x="508" y="387" on="1"/>
        <pt x="488" y="330" on="1"/>
        <pt x="381" y="330" on="1"/>
        <pt x="345" y="225" on="1"/>
        <pt x="462" y="225" on="1"/>
        <pt x="442" y="168" on="1"/>
        <pt x="325" y="168" on="1"/>
        <pt x="266" y="0" on="1"/>
        <pt x="209" y="0" on="1"/>
        <pt x="268" y="168" on="1"/>
        <pt x="163" y="168" on="1"/>
        <pt x="104" y="0" on="1"/>
        <pt x="47" y="0" on="1"/>
        <pt x="106" y="168" on="1"/>
        <pt x="2" y="168" on="1"/>
        <pt x="22" y="225" on="1"/>
        <pt x="126" y="225" on="1"/>
        <pt x="162" y="330" on="1"/>
      </contour>
      <contour>
        <pt x="219" y="330" on="1"/>
        <pt x="183" y="225" on="1"/>
        <pt x="288" y="225" on="1"/>
        <pt x="324" y="330" on="1"/>
      </contour>
    </TTGlyph>
    <TTGlyph name="o" xMin="30" yMin="-13" xMax="419" yMax="468">
      <contour>
        <pt x="354" y="468" on="0"/>
        <pt x="419" y="392" on="0"/>
        <pt x="419" y="250" on="0"/>
        <pt x="379" y="131" on="0"/>
        <pt x="320" y="58" on="0"/>
        <pt x="282" y="33" on="1"/>
        <pt x="215" y="-12" on="0"/>
        <pt x="93" y="-12" on="0"/>
        <pt x="30" y="65" on="0"/>
        <pt x="30" y="206" on="0"/>
        <pt x="68" y="325" on="0"/>
        <pt x="126" y="398" on="0"/>
        <pt x="162" y="423" on="1"/>
        <pt x="225" y="468" on="0"/>
      </contour>
      <contour>
        <pt x="286" y="426" on="1"/>
        <pt x="208" y="426" on="0"/>
        <pt x="94" y="263" on="0"/>
        <pt x="94" y="130" on="1"/>
        <pt x="94" y="36" on="0"/>
        <pt x="158" y="36" on="1"/>
        <pt x="231" y="36" on="0"/>
        <pt x="355" y="201" on="0"/>
        <pt x="355" y="330" on="1"/>
        <pt x="355" y="376" on="0"/>
        <pt x="318" y="426" on="0"/>
      </contour>
    </TTGlyph>
    <TTGlyph name="oacute" xMin="30" yMin="-12" xMax="436" yMax="702">
      <component glyphName="o" x="0" y="0" flags="0x1004"/>
      <component glyphName="acute" x="212" y="0" flags="0x1004"/>
    </TTGlyph>
    <TTGlyph name="ocircumflex" xMin="30" yMin="-13" xMax="419" yMax="688">
      <contour>
        <pt x="354" y="468" on="0"/>
        <pt x="419" y="392" on="0"/>
        <pt x="419" y="250" on="0"/>
        <pt x="379" y="131" on="0"/>
        <pt x="320" y="58" on="0"/>
        <pt x="282" y="33" on="1"/>
        <pt x="215" y="-12" on="0"/>
        <pt x="93" y="-12" on="0"/>
        <pt x="30" y="65" on="0"/>
        <pt x="30" y="206" on="0"/>
        <pt x="68" y="325" on="0"/>
        <pt x="126" y="398" on="0"/>
        <pt x="162" y="423" on="1"/>
        <pt x="225" y="468" on="0"/>
      </contour>
      <contour>
        <pt x="286" y="426" on="1"/>
        <pt x="208" y="426" on="0"/>
        <pt x="94" y="263" on="0"/>
        <pt x="94" y="130" on="1"/>
        <pt x="94" y="36" on="0"/>
        <pt x="158" y="36" on="1"/>
        <pt x="231" y="36" on="0"/>
        <pt x="355" y="201" on="0"/>
        <pt x="355" y="330" on="1"/>
        <pt x="355" y="376" on="0"/>
        <pt x="318" y="426" on="0"/>
      </contour>
      <contour>
        <pt x="305" y="685" on="1"/>
        <pt x="329" y="688" on="1"/>
        <pt x="341" y="688" on="0"/>
        <pt x="353" y="685" on="1"/>
        <pt x="419" y="518" on="1"/>
        <pt x="400" y="504" on="1"/>
        <pt x="350" y="563" on="0"/>
        <pt x="321" y="608" on="1"/>
        <pt x="284" y="576" on="0"/>
        <pt x="182" y="504" on="1"/>
        <pt x="163" y="521" on="1"/>
        <pt x="224" y="580" on="0"/>
      </contour>
    </TTGlyph>
    <TTGlyph name="odieresis" xMin="30" yMin="-12" xMax="422" yMax="659">
      <component glyphName="o" x="0" y="0" flags="0x1004"/>
      <component glyphName="dieresis" x="124" y="0" flags="0x1004"/>
    </TTGlyph>
    <TTGlyph name="oe" xMin="30" yMin="-12" xMax="601" yMax="468">
      <contour>
        <pt x="443" y="223" on="1"/>
        <pt x="332" y="212" on="1"/>
        <pt x="325" y="170" on="0"/>
        <pt x="325" y="120" on="1"/>
        <pt x="325" y="44" on="0"/>
        <pt x="381" y="44" on="1"/>
        <pt x="416" y="44" on="0"/>
        <pt x="500" y="105" on="0"/>
        <pt x="530" y="149" on="1"/>
        <pt x="552" y="127" on="1"/>
        <pt x="460" y="-12" on="0"/>
        <pt x="357" y="-12" on="1"/>
        <pt x="306" y="-12" on="0"/>
        <pt x="280" y="30" on="1"/>
        <pt x="214" y="-12" on="0"/>
        <pt x="93" y="-12" on="0"/>
        <pt x="30" y="65" on="0"/>
        <pt x="30" y="206" on="0"/>
        <pt x="68" y="325" on="0"/>
        <pt x="126" y="398" on="0"/>
        <pt x="162" y="423" on="1"/>
        <pt x="225" y="468" on="0"/>
        <pt x="359" y="468" on="0"/>
        <pt x="393" y="420" on="1"/>
        <pt x="459" y="468" on="0"/>
        <pt x="516" y="468" on="1"/>
        <pt x="545" y="468" on="0"/>
        <pt x="601" y="431" on="0"/>
        <pt x="601" y="407" on="1"/>
        <pt x="601" y="337" on="0"/>
        <pt x="510" y="230" on="0"/>
      </contour>
      <contour>
        <pt x="258" y="122" on="1"/>
        <pt x="258" y="282" on="0"/>
        <pt x="347" y="380" on="1"/>
        <pt x="332" y="426" on="0"/>
        <pt x="286" y="426" on="1"/>
        <pt x="207" y="426" on="0"/>
        <pt x="94" y="263" on="0"/>
        <pt x="94" y="130" on="1"/>
        <pt x="94" y="36" on="0"/>
        <pt x="158" y="36" on="1"/>
        <pt x="213" y="36" on="0"/>
        <pt x="261" y="82" on="1"/>
        <pt x="258" y="100" on="0"/>
      </contour>
      <contour>
        <pt x="535" y="400" on="1"/>
        <pt x="535" y="409" on="0"/>
        <pt x="513" y="416" on="0"/>
        <pt x="481" y="416" on="1"/>
        <pt x="431" y="416" on="0"/>
        <pt x="360" y="328" on="0"/>
        <pt x="341" y="256" on="1"/>
        <pt x="409" y="256" on="1"/>
        <pt x="464" y="256" on="0"/>
        <pt x="535" y="342" on="0"/>
      </contour>
    </TTGlyph>
    <TTGlyph name="ogonek" xMin="134" yMin="-233" xMax="342" yMax="26">
      <contour>
        <pt x="293" y="26" on="1"/>
        <pt x="303" y="9" on="1"/>
        <pt x="254" y="-19" on="0"/>
        <pt x="190" y="-109" on="0"/>
        <pt x="190" y="-142" on="1"/>
        <pt x="190" y="-190" on="0"/>
        <pt x="235" y="-190" on="1"/>
        <pt x="258" y="-190" on="0"/>
        <pt x="308" y="-166" on="0"/>
        <pt x="323" y="-147" on="1"/>
        <pt x="342" y="-165" on="1"/>
        <pt x="284" y="-233" on="0"/>
        <pt x="211" y="-233" on="1"/>
        <pt x="173" y="-233" on="0"/>
        <pt x="134" y="-193" on="0"/>
        <pt x="134" y="-161" on="1"/>
        <pt x="134" y="-108" on="0"/>
        <pt x="218" y="-12" on="0"/>
      </contour>
    </TTGlyph>
    <TTGlyph name="ograve" xMin="30" yMin="-13" xMax="419" yMax="714">
      <contour>
        <pt x="354" y="468" on="0"/>
        <pt x="419" y="392" on="0"/>
        <pt x="419" y="250" on="0"/>
        <pt x="379" y="131" on="0"/>
        <pt x="320" y="58" on="0"/>
        <pt x="282" y="33" on="1"/>
        <pt x="215" y="-12" on="0"/>
        <pt x="93" y="-12" on="0"/>
        <pt x="30" y="65" on="0"/>
        <pt x="30" y="206" on="0"/>
        <pt x="68" y="325" on="0"/>
        <pt x="126" y="398" on="0"/>
        <pt x="162" y="423" on="1"/>
        <pt x="225" y="468" on="0"/>
      </contour>
      <contour>
        <pt x="286" y="426" on="1"/>
        <pt x="208" y="426" on="0"/>
        <pt x="94" y="263" on="0"/>
        <pt x="94" y="130" on="1"/>
        <pt x="94" y="36" on="0"/>
        <pt x="158" y="36" on="1"/>
        <pt x="231" y="36" on="0"/>
        <pt x="355" y="201" on="0"/>
        <pt x="355" y="330" on="1"/>
        <pt x="355" y="376" on="0"/>
        <pt x="318" y="426" on="0"/>
      </contour>
      <contour>
        <pt x="360" y="530" on="1"/>
        <pt x="345" y="514" on="1"/>
        <pt x="243" y="578" on="0"/>
        <pt x="190" y="640" on="1"/>
        <pt x="186" y="659" on="1"/>
        <pt x="189" y="673" on="0"/>
        <pt x="216" y="707" on="0"/>
        <pt x="226" y="714" on="1"/>
        <pt x="282" y="628" on="0"/>
        <pt x="340" y="554" on="1"/>
      </contour>
    </TTGlyph>
    <TTGlyph name="one" xMin="75" yMin="0" xMax="402" yMax="563">
      <contour>
        <pt x="386" y="540" on="1"/>
        <pt x="292" y="55" on="1"/>
        <pt x="337" y="45" on="0"/>
        <pt x="402" y="22" on="1"/>
        <pt x="396" y="0" on="1"/>
        <pt x="83" y="0" on="1"/>
        <pt x="75" y="26" on="1"/>
        <pt x="160" y="47" on="0"/>
        <pt x="219" y="57" on="1"/>
        <pt x="304" y="499" on="1"/>
        <pt x="172" y="466" on="1"/>
        <pt x="157" y="518" on="1"/>
        <pt x="157" y="521" on="0"/>
        <pt x="367" y="563" on="0"/>
        <pt x="374" y="563" on="1"/>
        <pt x="386" y="557" on="0"/>
      </contour>
    </TTGlyph>
    <TTGlyph name="onehalf" xMin="67" yMin="-56" xMax="913" yMax="700">
      <contour>
        <pt x="278" y="651" on="1"/>
        <pt x="291" y="647" on="0"/>
        <pt x="290" y="629" on="0"/>
        <pt x="290" y="627" on="1"/>
        <pt x="226" y="263" on="1"/>
        <pt x="271" y="254" on="0"/>
        <pt x="314" y="241" on="1"/>
        <pt x="308" y="221" on="1"/>
        <pt x="74" y="221" on="1"/>
        <pt x="67" y="245" on="1"/>
        <pt x="69" y="245" on="0"/>
        <pt x="145" y="261" on="0"/>
        <pt x="166" y="265" on="1"/>
        <pt x="226" y="601" on="1"/>
        <pt x="115" y="574" on="1"/>
        <pt x="104" y="608" on="0"/>
        <pt x="104" y="613" on="1"/>
        <pt x="105" y="614" on="0"/>
        <pt x="273" y="651" on="0"/>
      </contour>
      <contour>
        <pt x="598" y="0" on="1"/>
        <pt x="581" y="26" on="1"/>
        <pt x="784" y="196" on="1"/>
        <pt x="848" y="250" on="0"/>
        <pt x="848" y="314" on="1"/>
        <pt x="848" y="344" on="0"/>
        <pt x="809" y="385" on="0"/>
        <pt x="773" y="385" on="1"/>
        <pt x="758" y="385" on="0"/>
        <pt x="677" y="371" on="1"/>
        <pt x="668" y="405" on="1"/>
        <pt x="753" y="430" on="0"/>
        <pt x="781" y="430" on="1"/>
        <pt x="842" y="420" on="0"/>
        <pt x="913" y="363" on="0"/>
        <pt x="913" y="320" on="1"/>
        <pt x="913" y="226" on="0"/>
        <pt x="793" y="138" on="1"/>
        <pt x="654" y="35" on="1"/>
        <pt x="782" y="39" on="0"/>
        <pt x="893" y="55" on="1"/>
        <pt x="898" y="39" on="1"/>
        <pt x="892" y="19" on="0"/>
        <pt x="876" y="0" on="1"/>
      </contour>
      <contour>
        <pt x="308" y="-56" on="1"/>
        <pt x="623" y="700" on="1"/>
        <pt x="674" y="700" on="1"/>
        <pt x="359" y="-56" on="1"/>
      </contour>
    </TTGlyph>
    <TTGlyph name="onequarter" xMin="67" yMin="-56" xMax="897" yMax="700">
      <contour>
        <pt x="278" y="651" on="1"/>
        <pt x="291" y="647" on="0"/>
        <pt x="290" y="629" on="0"/>
        <pt x="290" y="627" on="1"/>
        <pt x="226" y="263" on="1"/>
        <pt x="271" y="254" on="0"/>
        <pt x="314" y="241" on="1"/>
        <pt x="308" y="221" on="1"/>
        <pt x="74" y="221" on="1"/>
        <pt x="67" y="245" on="1"/>
        <pt x="69" y="245" on="0"/>
        <pt x="145" y="261" on="0"/>
        <pt x="166" y="265" on="1"/>
        <pt x="226" y="601" on="1"/>
        <pt x="115" y="574" on="1"/>
        <pt x="104" y="608" on="0"/>
        <pt x="104" y="613" on="1"/>
        <pt x="105" y="614" on="0"/>
        <pt x="273" y="651" on="0"/>
      </contour>
      <contour>
        <pt x="825" y="92" on="1"/>
        <pt x="824" y="86" on="0"/>
        <pt x="814" y="40" on="1"/>
        <pt x="842" y="32" on="0"/>
        <pt x="871" y="20" on="1"/>
        <pt x="865" y="0" on="1"/>
        <pt x="687" y="0" on="1"/>
        <pt x="680" y="24" on="1"/>
        <pt x="731" y="38" on="0"/>
        <pt x="758" y="43" on="1"/>
        <pt x="767" y="92" on="1"/>
        <pt x="598" y="92" on="1"/>
        <pt x="577" y="92" on="0"/>
        <pt x="577" y="103" on="1"/>
        <pt x="586" y="125" on="0"/>
        <pt x="617" y="181" on="1"/>
        <pt x="761" y="439" on="1"/>
        <pt x="813" y="421" on="1"/>
        <pt x="637" y="129" on="1"/>
        <pt x="773" y="129" on="1"/>
        <pt x="801" y="285" on="1"/>
        <pt x="830" y="292" on="0"/>
        <pt x="846" y="292" on="1"/>
        <pt x="855" y="292" on="0"/>
        <pt x="855" y="273" on="1"/>
        <pt x="855" y="266" on="1"/>
        <pt x="831" y="129" on="1"/>
        <pt x="897" y="129" on="1"/>
        <pt x="892" y="92" on="1"/>
      </contour>
      <contour>
        <pt x="307" y="-56" on="1"/>
        <pt x="622" y="700" on="1"/>
        <pt x="673" y="700" on="1"/>
        <pt x="358" y="-56" on="1"/>
      </contour>
    </TTGlyph>
    <TTGlyph name="onesuperior" xMin="67" yMin="175" xMax="314" yMax="605">
      <contour>
        <pt x="278" y="605" on="1"/>
        <pt x="291" y="601" on="0"/>
        <pt x="290" y="583" on="0"/>
        <pt x="290" y="581" on="1"/>
        <pt x="226" y="217" on="1"/>
        <pt x="271" y="208" on="0"/>
        <pt x="314" y="195" on="1"/>
        <pt x="308" y="175" on="1"/>
        <pt x="74" y="175" on="1"/>
        <pt x="67" y="199" on="1"/>
        <pt x="69" y="199" on="0"/>
        <pt x="145" y="215" on="0"/>
        <pt x="166" y="219" on="1"/>
        <pt x="226" y="555" on="1"/>
        <pt x="115" y="528" on="1"/>
        <pt x="104" y="562" on="0"/>
        <pt x="104" y="567" on="1"/>
        <pt x="105" y="568" on="0"/>
        <pt x="273" y="605" on="0"/>
      </contour>
    </TTGlyph>
    <TTGlyph name="ordfeminine" xMin="12" yMin="298" xMax="278" yMax="683">
      <contour>
        <pt x="182" y="683" on="1"/>
        <pt x="199" y="683" on="0"/>
        <pt x="237" y="668" on="1"/>
        <pt x="242" y="680" on="1"/>
        <pt x="263" y="680" on="0"/>
        <pt x="278" y="676" on="1"/>
        <pt x="257" y="631" on="0"/>
        <pt x="220" y="477" on="0"/>
        <pt x="218" y="438" on="1"/>
        <pt x="254" y="432" on="0"/>
        <pt x="272" y="421" on="1"/>
        <pt x="267" y="405" on="1"/>
        <pt x="190" y="393" on="1"/>
        <pt x="173" y="393" on="0"/>
        <pt x="173" y="450" on="0"/>
        <pt x="184" y="513" on="1"/>
        <pt x="141" y="445" on="0"/>
        <pt x="84" y="393" on="0"/>
        <pt x="38" y="393" on="0"/>
        <pt x="16" y="426" on="0"/>
        <pt x="16" y="507" on="0"/>
        <pt x="47" y="594" on="0"/>
        <pt x="74" y="620" on="1"/>
        <pt x="121" y="667" on="0"/>
      </contour>
      <contour>
        <pt x="67" y="451" on="1"/>
        <pt x="67" y="433" on="0"/>
        <pt x="76" y="433" on="1"/>
        <pt x="105" y="433" on="0"/>
        <pt x="196" y="585" on="1"/>
        <pt x="207" y="638" on="1"/>
        <pt x="187" y="642" on="0"/>
        <pt x="164" y="642" on="1"/>
        <pt x="119" y="642" on="0"/>
        <pt x="67" y="522" on="0"/>
      </contour>
      <contour>
        <pt x="12" y="321" on="1"/>
        <pt x="18" y="349" on="1"/>
        <pt x="262" y="349" on="1"/>
        <pt x="258" y="306" on="1"/>
        <pt x="210" y="298" on="0"/>
        <pt x="161" y="298" on="1"/>
        <pt x="58" y="298" on="0"/>
      </contour>
    </TTGlyph>
    <TTGlyph name="ordmasculine" xMin="25" yMin="298" xMax="301" yMax="684">
      <contour>
        <pt x="218" y="684" on="1"/>
        <pt x="301" y="684" on="0"/>
        <pt x="301" y="595" on="1"/>
        <pt x="301" y="474" on="0"/>
        <pt x="218" y="420" on="1"/>
        <pt x="177" y="393" on="0"/>
        <pt x="100" y="393" on="0"/>
        <pt x="60" y="441" on="0"/>
        <pt x="60" y="537" on="0"/>
        <pt x="94" y="620" on="0"/>
        <pt x="120" y="642" on="1"/>
        <pt x="171" y="684" on="0"/>
      </contour>
      <contour>
        <pt x="217" y="652" on="1"/>
        <pt x="173" y="652" on="0"/>
        <pt x="109" y="558" on="0"/>
        <pt x="109" y="481" on="1"/>
        <pt x="109" y="429" on="0"/>
        <pt x="142" y="429" on="1"/>
        <pt x="183" y="429" on="0"/>
        <pt x="252" y="524" on="0"/>
        <pt x="252" y="599" on="1"/>
        <pt x="252" y="624" on="0"/>
        <pt x="233" y="652" on="0"/>
      </contour>
      <contour>
        <pt x="25" y="321" on="1"/>
        <pt x="31" y="349" on="1"/>
        <pt x="275" y="349" on="1"/>
        <pt x="271" y="306" on="1"/>
        <pt x="223" y="298" on="0"/>
        <pt x="174" y="298" on="1"/>
        <pt x="71" y="298" on="0"/>
      </contour>
    </TTGlyph>
    <TTGlyph name="oslash" xMin="30" yMin="-173" xMax="419" yMax="627">
      <component glyphName="o" x="0" y="0" flags="0x1004"/>
      <component glyphName="slash" x="61" y="-123" flags="0x1004"/>
    </TTGlyph>
    <TTGlyph name="otilde" xMin="30" yMin="-12" xMax="449" yMax="642">
      <component glyphName="o" x="0" y="0" flags="0x1004"/>
      <component glyphName="tilde" x="23" y="0" flags="0x1004"/>
    </TTGlyph>
    <TTGlyph name="p" xMin="-15" yMin="-262" xMax="459" yMax="468">
      <contour>
        <pt x="75" y="-247" on="1"/>
        <pt x="36" y="-262" on="0"/>
        <pt x="0" y="-262" on="1"/>
        <pt x="-15" y="-253" on="1"/>
        <pt x="21" y="-175" on="0"/>
        <pt x="135" y="325" on="0"/>
        <pt x="135" y="388" on="1"/>
        <pt x="87" y="393" on="0"/>
        <pt x="54" y="418" on="1"/>
        <pt x="60" y="437" on="1"/>
        <pt x="184" y="456" on="1"/>
        <pt x="193" y="456" on="0"/>
        <pt x="193" y="371" on="0"/>
        <pt x="172" y="247" on="1"/>
        <pt x="249" y="372" on="0"/>
        <pt x="353" y="468" on="0"/>
        <pt x="397" y="468" on="1"/>
        <pt x="426" y="468" on="0"/>
        <pt x="459" y="416" on="0"/>
        <pt x="459" y="374" on="1"/>
        <pt x="459" y="282" on="0"/>
        <pt x="407" y="137" on="0"/>
        <pt x="364" y="94" on="1"/>
        <pt x="285" y="14" on="0"/>
        <pt x="186" y="-11" on="1"/>
        <pt x="170" y="-11" on="0"/>
        <pt x="124" y="5" on="1"/>
        <pt x="81" y="-206" on="0"/>
      </contour>
      <contour>
        <pt x="392" y="376" on="1"/>
        <pt x="392" y="412" on="0"/>
        <pt x="367" y="412" on="1"/>
        <pt x="311" y="412" on="0"/>
        <pt x="154" y="151" on="1"/>
        <pt x="135" y="54" on="1"/>
        <pt x="189" y="46" on="0"/>
        <pt x="218" y="46" on="1"/>
        <pt x="274" y="46" on="0"/>
        <pt x="315" y="100" on="1"/>
        <pt x="392" y="200" on="0"/>
      </contour>
    </TTGlyph>
    <TTGlyph name="paragraph" xMin="80" yMin="-210" xMax="536" yMax="712">
      <contour>
        <pt x="317" y="642" on="1"/>
        <pt x="257" y="302" on="1"/>
        <pt x="177" y="304" on="0"/>
        <pt x="80" y="390" on="0"/>
        <pt x="80" y="542" on="0"/>
        <pt x="128" y="639" on="0"/>
        <pt x="168" y="664" on="1"/>
        <pt x="244" y="712" on="0"/>
        <pt x="343" y="712" on="1"/>
        <pt x="435" y="712" on="0"/>
        <pt x="512" y="690" on="1"/>
        <pt x="537" y="682" on="0"/>
        <pt x="536" y="679" on="1"/>
        <pt x="526" y="642" on="1"/>
        <pt x="455" y="642" on="1"/>
        <pt x="374" y="180" on="1"/>
        <pt x="342" y="-4" on="0"/>
        <pt x="128" y="-210" on="1"/>
        <pt x="103" y="-189" on="1"/>
        <pt x="270" y="-4" on="0"/>
        <pt x="298" y="153" on="1"/>
        <pt x="384" y="642" on="1"/>
      </contour>
    </TTGlyph>
    <TTGlyph name="parenleft" xMin="38" yMin="-241" xMax="320" yMax="728">
      <contour>
        <pt x="165" y="-237" on="1"/>
        <pt x="135" y="-241" on="1"/>
        <pt x="38" y="-113" on="0"/>
        <pt x="38" y="106" on="1"/>
        <pt x="38" y="283" on="0"/>
        <pt x="177" y="630" on="0"/>
        <pt x="297" y="728" on="1"/>
        <pt x="320" y="716" on="1"/>
        <pt x="249" y="640" on="0"/>
        <pt x="200" y="518" on="1"/>
        <pt x="113" y="301" on="0"/>
        <pt x="113" y="-122" on="0"/>
      </contour>
    </TTGlyph>
    <TTGlyph name="parenright" xMin="-85" yMin="-241" xMax="197" yMax="728">
      <contour>
        <pt x="70" y="724" on="1"/>
        <pt x="101" y="728" on="1"/>
        <pt x="197" y="598" on="0"/>
        <pt x="197" y="378" on="1"/>
        <pt x="197" y="203" on="0"/>
        <pt x="58" y="-142" on="0"/>
        <pt x="-60" y="-241" on="1"/>
        <pt x="-85" y="-229" on="1"/>
        <pt x="18" y="-118" on="0"/>
        <pt x="122" y="253" on="0"/>
        <pt x="122" y="609" on="0"/>
      </contour>
    </TTGlyph>
    <TTGlyph name="partialdiff" xMin="43" yMin="-12" xMax="497" yMax="712">
      <contour>
        <pt x="198" y="-12" on="1"/>
        <pt x="132" y="-12" on="0"/>
        <pt x="43" y="76" on="0"/>
        <pt x="43" y="151" on="1"/>
        <pt x="43" y="268" on="0"/>
        <pt x="212" y="433" on="0"/>
        <pt x="319" y="433" on="1"/>
        <pt x="387" y="433" on="0"/>
        <pt x="431" y="398" on="1"/>
        <pt x="419" y="484" on="0"/>
        <pt x="291" y="616" on="0"/>
        <pt x="197" y="637" on="1"/>
        <pt x="235" y="712" on="1"/>
        <pt x="372" y="669" on="0"/>
        <pt x="497" y="482" on="0"/>
        <pt x="497" y="239" on="0"/>
        <pt x="450" y="144" on="1"/>
        <pt x="373" y="-12" on="0"/>
      </contour>
      <contour>
        <pt x="229" y="37" on="1"/>
        <pt x="303" y="37" on="0"/>
        <pt x="406" y="183" on="0"/>
        <pt x="406" y="263" on="1"/>
        <pt x="406" y="318" on="0"/>
        <pt x="349" y="383" on="0"/>
        <pt x="298" y="383" on="1"/>
        <pt x="222" y="383" on="0"/>
        <pt x="120" y="238" on="0"/>
        <pt x="120" y="156" on="1"/>
        <pt x="120" y="102" on="0"/>
        <pt x="178" y="37" on="0"/>
      </contour>
    </TTGlyph>
    <TTGlyph name="percent" xMin="65" yMin="-56" xMax="678" yMax="685">
      <contour>
        <pt x="133" y="-56" on="1"/>
        <pt x="555" y="685" on="1"/>
        <pt x="611" y="685" on="1"/>
        <pt x="189" y="-56" on="1"/>
      </contour>
      <contour>
        <pt x="345" y="518" on="1"/>
        <pt x="345" y="436" on="0"/>
        <pt x="252" y="296" on="0"/>
        <pt x="171" y="296" on="1"/>
        <pt x="122" y="296" on="0"/>
        <pt x="65" y="358" on="0"/>
        <pt x="65" y="418" on="1"/>
        <pt x="65" y="520" on="0"/>
        <pt x="170" y="641" on="0"/>
        <pt x="238" y="641" on="1"/>
        <pt x="286" y="641" on="0"/>
        <pt x="345" y="578" on="0"/>
      </contour>
      <contour>
        <pt x="182" y="338" on="1"/>
        <pt x="208" y="338" on="0"/>
        <pt x="247" y="381" on="0"/>
        <pt x="256" y="414" on="1"/>
        <pt x="275" y="477" on="0"/>
        <pt x="275" y="598" on="0"/>
        <pt x="228" y="598" on="1"/>
        <pt x="202" y="598" on="0"/>
        <pt x="164" y="555" on="0"/>
        <pt x="154" y="522" on="1"/>
        <pt x="136" y="458" on="0"/>
        <pt x="136" y="404" on="1"/>
        <pt x="136" y="338" on="0"/>
      </contour>
      <contour>
        <pt x="678" y="209" on="1"/>
        <pt x="678" y="127" on="0"/>
        <pt x="583" y="-12" on="0"/>
        <pt x="502" y="-12" on="1"/>
        <pt x="454" y="-12" on="0"/>
        <pt x="398" y="49" on="0"/>
        <pt x="398" y="108" on="1"/>
        <pt x="398" y="211" on="0"/>
        <pt x="503" y="333" on="0"/>
        <pt x="570" y="333" on="1"/>
        <pt x="618" y="333" on="0"/>
        <pt x="678" y="269" on="0"/>
      </contour>
      <contour>
        <pt x="515" y="30" on="1"/>
        <pt x="541" y="30" on="0"/>
        <pt x="580" y="73" on="0"/>
        <pt x="589" y="106" on="1"/>
        <pt x="607" y="170" on="0"/>
        <pt x="607" y="224" on="1"/>
        <pt x="607" y="290" on="0"/>
        <pt x="561" y="290" on="1"/>
        <pt x="535" y="290" on="0"/>
        <pt x="496" y="247" on="0"/>
        <pt x="486" y="214" on="1"/>
        <pt x="468" y="151" on="0"/>
        <pt x="468" y="30" on="0"/>
      </contour>
    </TTGlyph>
    <TTGlyph name="period" xMin="44" yMin="-12" xMax="151" yMax="121">
      <contour>
        <pt x="123" y="121" on="1"/>
        <pt x="151" y="121" on="0"/>
        <pt x="151" y="81" on="1"/>
        <pt x="151" y="56" on="0"/>
        <pt x="132" y="-3" on="0"/>
        <pt x="131" y="-3" on="1"/>
        <pt x="95" y="-12" on="0"/>
        <pt x="73" y="-12" on="1"/>
        <pt x="44" y="-12" on="0"/>
        <pt x="44" y="26" on="1"/>
        <pt x="44" y="56" on="0"/>
        <pt x="64" y="114" on="0"/>
        <pt x="65" y="114" on="1"/>
        <pt x="102" y="121" on="0"/>
      </contour>
    </TTGlyph>
</ttFont>
